<?xml version="1.0" encoding="utf-8"?>
<!-- Generator: Adobe Illustrator 16.0.0, SVG Export Plug-In . SVG Version: 6.00 Build 0)  -->
<!DOCTYPE svg PUBLIC "-//W3C//DTD SVG 1.1 Tiny//EN" "http://www.w3.org/Graphics/SVG/1.1/DTD/svg11-tiny.dtd">
<svg version="1.1" baseProfile="tiny" id="Layer_1" xmlns="http://www.w3.org/2000/svg" xmlns:xlink="http://www.w3.org/1999/xlink"
	 x="0px" y="0px" width="89.667px" height="89.666px" viewBox="0 0 89.667 89.666" xml:space="preserve">
<g>
	<circle fill="none" stroke="#000000" stroke-miterlimit="10" cx="44.833" cy="44.833" r="44.333"/>
	<g id="wZRN1d_1_">
		<g>
			<g>
				<path fill="none" d="M45.367,86.999c-13.875,0-27.75-0.004-41.626,0.014c-0.546,0.002-0.688-0.08-0.688-0.666
					c0.019-27.807,0.02-55.614-0.001-83.42C3.05,2.3,3.217,2.221,3.784,2.221c27.778,0.016,55.557,0.016,83.334,0
					c0.571,0,0.731,0.084,0.731,0.708c-0.021,27.779-0.021,55.556,0,83.335c0.001,0.646-0.173,0.75-0.772,0.748
					C73.173,86.994,59.271,86.999,45.367,86.999z M45.638,61.675c6.287,0,12.574,0,18.861,0c2.041-0.001,4.08-0.002,6.121-0.007
					c0.338-0.001,0.686-0.037,0.855-0.383c0.176-0.354-0.027-0.646-0.246-0.899c-0.734-0.854-1.473-1.712-2.229-2.548
					c-4.33-4.772-8.664-9.542-12.998-14.312c-0.49-0.541-1.023-0.707-1.67-0.237c-2.633,1.91-5.278,3.799-7.899,5.724
					c-0.536,0.395-0.951,0.387-1.479,0c-2.491-1.824-5.004-3.617-7.504-5.428c-1.116-0.808-1.497-0.753-2.417,0.296
					c-1.29,1.47-2.593,2.927-3.909,4.373c-3.022,3.319-6.057,6.628-9.085,9.94c-0.632,0.69-1.27,1.378-1.891,2.078
					c-0.244,0.274-0.424,0.602-0.25,0.981c0.161,0.351,0.499,0.402,0.84,0.412c0.275,0.008,0.551,0.008,0.827,0.008
					C29.59,61.675,37.614,61.675,45.638,61.675z M45.751,27.227c-8.801,0-17.602-0.001-26.402,0.003
					c-0.484,0-1.094-0.12-1.297,0.466c-0.213,0.616,0.396,0.848,0.778,1.124c3.237,2.346,6.483,4.681,9.73,7.013
					c5.376,3.86,10.762,7.708,16.129,11.581c0.713,0.515,1.314,0.53,2.018-0.001c1.385-1.048,2.801-2.057,4.213-3.069
					c7.166-5.149,14.336-10.293,21.494-15.451c0.426-0.306,1.103-0.599,0.887-1.242c-0.203-0.605-0.893-0.417-1.396-0.418
					C63.187,27.225,54.468,27.228,45.751,27.227z M17.313,45.579c-0.002,0-0.004,0-0.006,0c0,4.689-0.001,9.378,0.001,14.068
					c0,0.303-0.015,0.613,0.049,0.905c0.126,0.581,0.568,0.744,1.051,0.401c0.2-0.143,0.374-0.328,0.54-0.512
					c2.228-2.442,4.449-4.892,6.677-7.334c2.99-3.275,5.985-6.547,8.976-9.823c0.641-0.702,0.582-1.332-0.177-1.877
					c-5.039-3.62-10.076-7.242-15.125-10.847c-0.447-0.319-0.902-0.909-1.53-0.554c-0.585,0.331-0.452,1.018-0.453,1.585
					C17.31,36.255,17.313,40.917,17.313,45.579z M73.938,45.575c0-4.688,0.005-9.375-0.007-14.062
					c-0.002-0.527,0.208-1.194-0.404-1.499c-0.637-0.316-1.076,0.254-1.527,0.577c-3.027,2.162-6.045,4.338-9.062,6.512
					c-2.014,1.449-4.029,2.891-6.033,4.354c-0.777,0.568-0.828,1.04-0.219,1.711c1.814,1.998,3.646,3.979,5.46,5.978
					c1.942,2.141,3.866,4.299,5.815,6.436c1.578,1.729,3.179,3.438,4.774,5.148c0.205,0.221,0.435,0.468,0.783,0.322
					c0.323-0.135,0.392-0.441,0.407-0.755c0.013-0.274,0.013-0.552,0.013-0.827C73.938,54.839,73.938,50.207,73.938,45.575z"/>
				<path d="M45.638,61.675c-8.024,0-16.048,0-24.072,0c-0.276,0-0.552,0-0.827-0.008c-0.341-0.01-0.679-0.062-0.84-0.412
					c-0.174-0.381,0.006-0.707,0.25-0.982c0.621-0.699,1.259-1.387,1.891-2.076c3.029-3.313,6.063-6.622,9.085-9.941
					c1.316-1.445,2.619-2.902,3.909-4.373c0.92-1.049,1.301-1.104,2.417-0.296c2.5,1.812,5.013,3.604,7.504,5.429
					c0.528,0.387,0.943,0.394,1.479,0c2.621-1.926,5.269-3.814,7.899-5.725c0.646-0.47,1.18-0.304,1.67,0.237
					c4.334,4.77,8.668,9.539,12.998,14.312c0.758,0.836,1.494,1.692,2.229,2.549c0.219,0.254,0.422,0.545,0.246,0.898
					c-0.171,0.346-0.52,0.382-0.855,0.383c-2.041,0.005-4.08,0.006-6.121,0.007C58.212,61.675,51.925,61.675,45.638,61.675z"/>
				<path d="M45.751,27.227c8.717,0,17.436-0.002,26.152,0.006c0.504,0,1.192-0.188,1.396,0.418
					c0.216,0.643-0.461,0.936-0.887,1.242c-7.158,5.158-14.328,10.302-21.494,15.451c-1.412,1.015-2.828,2.021-4.213,3.069
					c-0.703,0.531-1.305,0.516-2.018,0.001c-5.368-3.873-10.753-7.721-16.129-11.581c-3.248-2.332-6.493-4.667-9.73-7.013
					c-0.382-0.276-0.991-0.508-0.778-1.124c0.203-0.586,0.813-0.466,1.297-0.466C28.15,27.226,36.95,27.227,45.751,27.227z"/>
				<path d="M17.313,45.579c0-4.662-0.003-9.324,0.005-13.986c0.001-0.567-0.133-1.254,0.453-1.585
					c0.628-0.355,1.083,0.235,1.53,0.554c5.049,3.605,10.086,7.227,15.125,10.847c0.759,0.545,0.817,1.175,0.177,1.877
					c-2.991,3.275-5.986,6.547-8.976,9.824c-2.228,2.441-4.449,4.891-6.677,7.334c-0.167,0.183-0.34,0.367-0.54,0.511
					c-0.483,0.343-0.925,0.18-1.051-0.401c-0.064-0.291-0.049-0.604-0.049-0.906c-0.002-4.688-0.001-9.379-0.001-14.067
					C17.31,45.579,17.312,45.579,17.313,45.579z"/>
				<path d="M73.938,45.575c0,4.632,0,9.264,0,13.896c0,0.274,0,0.551-0.013,0.826c-0.016,0.312-0.084,0.62-0.407,0.755
					c-0.349,0.146-0.578-0.103-0.783-0.321c-1.597-1.713-3.196-3.422-4.774-5.149c-1.949-2.136-3.873-4.295-5.815-6.435
					c-1.813-1.998-3.646-3.98-5.46-5.979c-0.609-0.671-0.559-1.143,0.219-1.711c2.004-1.463,4.021-2.906,6.033-4.354
					c3.02-2.173,6.035-4.35,9.062-6.512c0.451-0.323,0.892-0.893,1.527-0.577c0.612,0.304,0.402,0.972,0.404,1.499
					C73.942,36.2,73.938,40.887,73.938,45.575z"/>
			</g>
		</g>
	</g>
</g>
</svg>
