<?xml version="1.0" encoding="utf-8"?>
<!-- Generator: Adobe Illustrator 16.0.0, SVG Export Plug-In . SVG Version: 6.00 Build 0)  -->
<!DOCTYPE svg PUBLIC "-//W3C//DTD SVG 1.1 Tiny//EN" "http://www.w3.org/Graphics/SVG/1.1/DTD/svg11-tiny.dtd">
<svg version="1.1" baseProfile="tiny" id="Layer_1" xmlns="http://www.w3.org/2000/svg" xmlns:xlink="http://www.w3.org/1999/xlink"
	 x="0px" y="0px" width="687px" height="687px" viewBox="131 -71 687 687" xml:space="preserve">
<circle fill="#FFFFFF" stroke="#000000" stroke-miterlimit="10" cx="474.5" cy="272.5" r="343"/>
<title>HTML5 Logo</title>
<polygon points="317.736,515.021 281.63,110.053 678.37,110.053 642.227,514.958 479.757,560 "/>
<polygon fill="#888888" points="480,525.572 611.283,489.176 642.17,143.166 480,143.166 "/>
<polygon fill="#EBEBEB" points="480,293.362 414.276,293.362 409.737,242.502 480,242.502 480,192.833 479.828,192.833 
	355.457,192.833 356.646,206.159 368.853,343.029 480,343.029 "/>
<polygon fill="#EBEBEB" points="480,422.354 479.782,422.413 424.467,407.477 420.931,367.864 394.052,367.864 371.072,367.864 
	378.031,445.85 479.771,474.094 480,474.03 "/>
<path d="M318.543,0h25.24v24.938h23.089V0h25.241v75.517h-25.24V50.229h-23.089v25.288h-25.24L318.543,0L318.543,0z"/>
<path d="M425.306,25.042h-22.221V0h69.694v25.042h-22.23v50.475h-25.242L425.306,25.042L425.306,25.042z"/>
<path d="M483.84,0h26.319l16.189,26.534L542.522,0h26.328v75.517h-25.137V38.086l-17.365,26.851h-0.435l-17.377-26.851v37.431
	H483.84V0z"/>
<path d="M581.412,0h25.248v50.555h35.496v24.962h-60.744V0z"/>
<polygon fill="#FFFFFF" points="479.828,293.362 479.828,343.029 540.988,343.029 535.224,407.445 479.828,422.396 479.828,474.069 
	581.649,445.85 582.396,437.458 594.068,306.699 595.28,293.362 581.896,293.362 "/>
<polygon fill="#FFFFFF" points="479.828,192.833 479.828,223.682 479.828,242.38 479.828,242.502 599.64,242.502 599.64,242.502 
	599.8,242.502 600.796,231.338 603.059,206.159 604.247,192.833 "/>
</svg>
