<?xml version="1.0" encoding="utf-8"?>
<!-- Generator: Adobe Illustrator 16.0.0, SVG Export Plug-In . SVG Version: 6.00 Build 0)  -->
<!DOCTYPE svg PUBLIC "-//W3C//DTD SVG 1.1 Tiny//EN" "http://www.w3.org/Graphics/SVG/1.1/DTD/svg11-tiny.dtd">
<svg version="1.1" baseProfile="tiny" id="Layer_1" xmlns="http://www.w3.org/2000/svg" xmlns:xlink="http://www.w3.org/1999/xlink"
	 x="0px" y="0px" width="89.667px" height="89.666px" viewBox="0 0 89.667 89.666" xml:space="preserve">
<g>
	<circle fill="none" stroke="#000000" stroke-miterlimit="10" cx="44.833" cy="44.833" r="44.333"/>
	<g id="H2MLhJ_1_">
		<g>
			<g>
				<path fill="none" d="M15.265,44.599c0-9.79,0.002-19.579-0.009-29.368c0-0.339,0.066-0.405,0.405-0.405
					c19.513,0.011,39.026,0.011,58.539,0c0.339,0,0.405,0.066,0.405,0.405c-0.011,19.579-0.011,39.158,0,58.737
					c0,0.338-0.066,0.405-0.405,0.404c-19.513-0.01-39.026-0.01-58.539,0c-0.339,0.001-0.406-0.066-0.405-0.404
					C15.267,64.178,15.265,54.389,15.265,44.599z M17.815,44.664c-0.001,0-0.002,0-0.003,0c0,7.532-0.002,15.063,0.001,22.594
					c0.001,2.709,1.94,4.649,4.638,4.649c15.03,0.001,30.06,0.001,45.089,0c2.75,0,4.689-1.95,4.689-4.712
					c0.002-14.997,0.002-29.994,0.003-44.991c0-2.784-1.938-4.716-4.729-4.717c-14.997,0-29.994,0-44.991,0
					c-2.801,0-4.696,1.888-4.697,4.681C17.814,29.667,17.815,37.165,17.815,44.664z"/>
				<path fill-rule="evenodd" d="M17.815,44.664c0-7.499-0.001-14.997,0-22.495c0-2.792,1.896-4.68,4.697-4.681
					c14.997,0,29.994,0,44.991,0c2.791,0,4.729,1.933,4.729,4.717c-0.001,14.997-0.001,29.994-0.003,44.991
					c0,2.762-1.939,4.712-4.689,4.712c-15.029,0.001-30.059,0.001-45.089,0c-2.698,0-4.637-1.94-4.638-4.649
					c-0.003-7.531-0.001-15.062-0.001-22.594C17.813,44.664,17.814,44.664,17.815,44.664z M46.994,41.618
					c-0.149-0.162-0.093-0.334-0.095-0.49c-0.007-0.741-0.025-1.484,0.005-2.224c0.019-0.462-0.121-0.636-0.609-0.632
					c-2.29,0.021-4.58,0.021-6.87,0.001c-0.477-0.004-0.618,0.148-0.617,0.621c0.014,7.793,0.016,15.586,0.003,23.379
					c-0.001,0.488,0.163,0.61,0.626,0.606c2.241-0.021,4.481-0.009,6.723-0.009c0.73,0,0.731-0.001,0.731-0.731
					c0.004-4.284-0.018-8.567,0.023-12.852c0.014-1.427,0.329-2.724,1.404-3.872c1.768-1.886,5.735-2.026,6.885,1.34
					c0.303,0.888,0.403,1.8,0.406,2.722c0.014,4.25,0.015,8.501-0.001,12.752c-0.002,0.489,0.127,0.657,0.637,0.651
					c2.273-0.025,4.548-0.011,6.821-0.013c0.646,0,0.65-0.003,0.65-0.67c0.002-4.3-0.002-8.601,0.004-12.9
					c0.002-1.288-0.07-2.567-0.324-3.832c-0.368-1.833-0.983-3.562-2.269-4.973c-2.3-2.525-5.266-3.023-8.455-2.63
					c-2.192,0.27-3.852,1.524-5.204,3.218C47.323,41.266,47.225,41.501,46.994,41.618z M34.229,50.616c0.001,0,0.002,0,0.004,0
					c0-3.904-0.007-7.809,0.008-11.714c0.002-0.463-0.122-0.634-0.608-0.629c-2.29,0.022-4.58,0.022-6.87,0.001
					c-0.48-0.004-0.616,0.156-0.615,0.625c0.013,7.792,0.015,15.585,0.003,23.378c-0.001,0.496,0.179,0.604,0.633,0.6
					c2.273-0.019,4.547-0.022,6.82,0.003c0.512,0.007,0.637-0.16,0.634-0.649C34.22,58.359,34.229,54.488,34.229,50.616z
					 M30.341,34.804c0.132,0,0.263,0,0.395,0c1.69,0.007,2.839-0.87,3.557-2.312c0.728-1.461,0.698-2.948-0.282-4.296
					c-0.894-1.229-2.201-1.712-3.687-1.771c-1.538-0.062-2.845,0.381-3.816,1.649c-1.171,1.531-1.171,3.825,0.072,5.257
					C27.566,34.466,28.854,34.908,30.341,34.804z"/>
				<path fill-rule="evenodd" fill="none" d="M46.994,41.618c0.23-0.117,0.329-0.353,0.476-0.536
					c1.353-1.694,3.012-2.948,5.204-3.218c3.189-0.394,6.155,0.104,8.455,2.63c1.285,1.411,1.9,3.14,2.269,4.973
					c0.254,1.264,0.326,2.543,0.324,3.832c-0.006,4.3-0.002,8.601-0.004,12.9c0,0.667-0.004,0.67-0.65,0.67
					c-2.273,0.002-4.548-0.013-6.821,0.013c-0.51,0.006-0.639-0.162-0.637-0.651c0.016-4.251,0.015-8.502,0.001-12.752
					c-0.003-0.922-0.104-1.834-0.406-2.722c-1.149-3.366-5.117-3.226-6.885-1.34c-1.075,1.148-1.391,2.445-1.404,3.872
					c-0.041,4.284-0.02,8.567-0.023,12.852c0,0.73-0.001,0.731-0.731,0.731c-2.241,0-4.482-0.012-6.723,0.009
					c-0.463,0.004-0.627-0.118-0.626-0.606c0.012-7.793,0.01-15.586-0.003-23.379c0-0.472,0.14-0.625,0.617-0.621
					c2.29,0.02,4.58,0.021,6.87-0.001c0.488-0.004,0.628,0.169,0.609,0.632c-0.03,0.74-0.012,1.483-0.005,2.224
					C46.901,41.284,46.845,41.457,46.994,41.618z"/>
				<path fill-rule="evenodd" fill="none" d="M34.229,50.616c0,3.872-0.008,7.743,0.01,11.615c0.002,0.489-0.123,0.656-0.634,0.649
					c-2.273-0.025-4.547-0.021-6.82-0.003c-0.455,0.004-0.634-0.104-0.633-0.6c0.012-7.793,0.01-15.586-0.003-23.378
					c-0.001-0.469,0.135-0.629,0.615-0.625c2.29,0.021,4.58,0.021,6.87-0.001c0.487-0.005,0.61,0.166,0.608,0.629
					c-0.015,3.905-0.008,7.81-0.008,11.714C34.231,50.616,34.229,50.616,34.229,50.616z"/>
				<path fill-rule="evenodd" fill="none" d="M30.341,34.804c-1.487,0.104-2.775-0.338-3.761-1.473
					c-1.243-1.432-1.243-3.727-0.072-5.257c0.971-1.268,2.278-1.71,3.816-1.649c1.486,0.059,2.793,0.542,3.687,1.771
					c0.98,1.348,1.009,2.835,0.282,4.296c-0.718,1.442-1.867,2.318-3.557,2.312C30.604,34.803,30.473,34.804,30.341,34.804z"/>
			</g>
		</g>
	</g>
</g>
</svg>
