<?xml version="1.0" encoding="utf-8"?>
<!-- Generator: Adobe Illustrator 16.0.0, SVG Export Plug-In . SVG Version: 6.00 Build 0)  -->
<!DOCTYPE svg PUBLIC "-//W3C//DTD SVG 1.1 Tiny//EN" "http://www.w3.org/Graphics/SVG/1.1/DTD/svg11-tiny.dtd">
<svg version="1.1" baseProfile="tiny" id="Layer_1" xmlns="http://www.w3.org/2000/svg" xmlns:xlink="http://www.w3.org/1999/xlink"
	 x="0px" y="0px" width="67.24px" height="67.419px" viewBox="0 0 67.24 67.419" xml:space="preserve">
<g id="ddUcaN_1_">
	<g>
		<g>
			<path d="M67.223,30.506c0,2.191,0,4.384,0,6.575c-0.095,0.63-0.197,1.259-0.283,1.889c-1.757,12.802-12.102,24.282-24.671,27.397
				c-2.307,0.572-4.655,0.825-7.014,1.037c-0.974,0-1.948,0-2.922,0c-1.412-0.199-2.837-0.245-4.252-0.456
				C15.668,65.098,4.277,54.751,1.223,42.545c-0.511-2.041-0.776-4.116-1.041-6.194c0-1.704,0-3.409,0-5.114
				c0.094-0.722,0.17-1.447,0.283-2.166c2.13-13.466,9.85-22.354,22.392-27.256c2.448-0.957,5.056-1.288,7.648-1.632
				c2.131,0,4.263,0,6.394,0c0.66,0.094,1.323,0.168,1.979,0.284c13.317,2.363,22.088,10.117,26.8,22.653
				C66.57,25.495,66.88,28.008,67.223,30.506z M31.598,29.008c-0.064-0.153-0.138-0.353-0.229-0.543
				c-3.278-6.864-6.567-13.723-9.825-20.597c-0.337-0.712-0.64-0.858-1.375-0.495c-4.465,2.207-8.086,5.37-10.954,9.43
				c-0.45,0.637-0.454,0.959,0.254,1.418c6.337,4.099,12.647,8.237,18.968,12.362c0.229,0.149,0.463,0.298,0.713,0.402
				C29.351,31.068,31.595,29.276,31.598,29.008z M58.363,50.752c-0.124-0.534-0.565-0.681-0.908-0.906
				c-6.151-4.049-12.318-8.072-18.45-12.149c-0.771-0.513-1.277-0.622-1.877,0.164c-0.226,0.296-0.618,0.503-0.977,0.65
				c-0.582,0.239-0.589,0.549-0.338,1.063c3.349,6.862,6.687,13.73,10.01,20.605c0.298,0.616,0.594,0.793,1.263,0.467
				c4.443-2.169,8.096-5.255,10.938-9.299C58.162,51.152,58.263,50.931,58.363,50.752z M36.327,33.83
				c0.01-1.759-0.882-2.688-2.589-2.696c-1.664-0.01-2.604,0.92-2.62,2.588c-0.018,1.806,0.894,2.747,2.646,2.736
				C35.424,36.447,36.317,35.531,36.327,33.83z"/>
			<path fill-rule="evenodd" fill="none" d="M0.183,36.351c0.265,2.078,0.53,4.153,1.041,6.194
				c3.054,12.206,14.445,22.553,26.857,24.403c1.415,0.211,2.84,0.257,4.252,0.456c-10.488,0-20.977-0.005-31.465,0.015
				c-0.568,0.001-0.701-0.126-0.7-0.697C0.188,56.598,0.183,46.475,0.183,36.351z"/>
			<path fill-rule="evenodd" fill="none" d="M35.255,67.404c2.358-0.212,4.707-0.465,7.014-1.037
				c12.569-3.115,22.914-14.596,24.671-27.397c0.086-0.63,0.188-1.259,0.283-1.889c0,9.881-0.006,19.761,0.015,29.641
				c0.001,0.573-0.133,0.698-0.7,0.697C56.11,67.399,45.683,67.404,35.255,67.404z"/>
			<path fill-rule="evenodd" fill="none" d="M30.506,0.183c-2.592,0.344-5.2,0.675-7.648,1.632
				C10.316,6.716,2.596,15.604,0.466,29.07c-0.113,0.719-0.189,1.444-0.283,2.166c0-10.123,0.005-20.246-0.015-30.369
				c-0.001-0.568,0.127-0.7,0.698-0.699C10.746,0.188,20.626,0.183,30.506,0.183z"/>
			<path fill-rule="evenodd" fill="none" d="M67.223,30.506c-0.343-2.498-0.652-5.011-1.545-7.386
				c-4.712-12.536-13.482-20.29-26.8-22.653c-0.655-0.116-1.318-0.19-1.979-0.284c9.864,0,19.729,0.007,29.593-0.018
				c0.625-0.002,0.75,0.122,0.748,0.748C67.215,10.777,67.223,20.642,67.223,30.506z"/>
			<path fill-rule="evenodd" fill="none" d="M31.598,29.008c-0.002,0.269-2.247,2.061-2.448,1.978
				c-0.25-0.104-0.485-0.253-0.713-0.402c-6.32-4.125-12.631-8.264-18.968-12.362c-0.708-0.459-0.705-0.781-0.254-1.418
				c2.868-4.06,6.489-7.223,10.954-9.43c0.735-0.363,1.038-0.217,1.375,0.495c3.257,6.874,6.546,13.732,9.825,20.597
				C31.459,28.655,31.533,28.854,31.598,29.008z"/>
			<path fill-rule="evenodd" fill="none" d="M58.363,50.752c-0.101,0.179-0.201,0.4-0.339,0.596
				c-2.843,4.044-6.495,7.13-10.938,9.299c-0.669,0.326-0.965,0.149-1.263-0.467c-3.323-6.875-6.661-13.743-10.01-20.605
				c-0.251-0.515-0.244-0.824,0.338-1.063c0.358-0.147,0.751-0.354,0.977-0.65c0.6-0.786,1.105-0.677,1.877-0.164
				c6.132,4.077,12.299,8.101,18.45,12.149C57.798,50.071,58.239,50.218,58.363,50.752z"/>
			<path fill-rule="evenodd" fill="none" d="M36.327,33.83c-0.01,1.701-0.903,2.617-2.564,2.628
				c-1.752,0.011-2.663-0.931-2.646-2.736c0.016-1.668,0.957-2.598,2.62-2.588C35.445,31.143,36.337,32.071,36.327,33.83z"/>
		</g>
	</g>
</g>
</svg>
