<?xml version="1.0" encoding="utf-8"?>
<!-- Generator: Adobe Illustrator 16.0.0, SVG Export Plug-In . SVG Version: 6.00 Build 0)  -->
<!DOCTYPE svg PUBLIC "-//W3C//DTD SVG 1.1 Tiny//EN" "http://www.w3.org/Graphics/SVG/1.1/DTD/svg11-tiny.dtd">
<svg version="1.1" baseProfile="tiny" id="Layer_1" xmlns="http://www.w3.org/2000/svg" xmlns:xlink="http://www.w3.org/1999/xlink"
	 x="0px" y="0px" width="89.667px" height="89.667px" viewBox="0 0 89.667 89.667" xml:space="preserve">
<g>
	<circle fill="none" stroke="#000000" stroke-miterlimit="10" cx="44.834" cy="44.833" r="44.334"/>
	<g>
		<g>
			<path fill="none" d="M46.455,73.919c-11.037,0-22.073-0.002-33.107,0.011c-0.365,0.001-0.437-0.071-0.437-0.437
				c0.012-18.305,0.012-36.609,0-54.913c0-0.365,0.071-0.437,0.437-0.437c22.071,0.011,44.143,0.011,66.215,0
				c0.363,0,0.438,0.071,0.436,0.437c-0.011,18.304-0.011,36.608,0,54.913c0.002,0.364-0.07,0.438-0.436,0.437
				C68.525,73.917,57.489,73.919,46.455,73.919z M15.21,66.44c0.287,0.338,0.569,0.449,0.812,0.612
				c1.064,0.726,2.275,1.158,3.428,1.703c1.087,0.515,2.173,1.02,3.355,1.334c1.643,0.437,3.242,1.016,4.946,1.236
				c1.389,0.182,2.766,0.562,4.164,0.555c2.371-0.012,4.741,0.162,7.116-0.25c2.359-0.41,4.716-0.713,7.006-1.508
				c3.256-1.129,6.383-2.441,9.186-4.504c2.169-1.594,4.211-3.297,6.025-5.289c2.092-2.297,3.881-4.787,5.295-7.556
				c0.781-1.534,1.592-3.053,2.158-4.687c0.48-1.389,1.018-2.75,1.301-4.21c0.345-1.773,0.81-3.516,0.92-5.334
				c0.111-1.805,0.379-3.602,0.125-5.414c-0.043-0.3,0.084-0.501,0.326-0.671c1.955-1.373,3.479-3.18,4.983-5
				c0.338-0.408,0.713-0.824,0.802-1.448c-2.246,0.866-4.435,1.742-6.816,1.944c0.416-0.238,0.697-0.618,1.061-0.899
				c1.864-1.448,3.082-3.358,3.926-5.53c0.064-0.166,0.25-0.383,0.053-0.528c-0.149-0.11-0.319,0.093-0.473,0.17
				c-2.25,1.135-4.473,2.338-6.99,2.807c-0.348,0.064-0.607,0.081-0.914-0.195c-1.705-1.539-3.584-2.767-5.892-3.228
				c-1.841-0.367-3.649-0.53-5.53-0.111c-4.006,0.892-7.023,3.031-8.955,6.665c-0.543,1.022-1.039,2.08-1.217,3.229
				c-0.284,1.843-0.457,3.7-0.043,5.553c0.067,0.301-0.081,0.409-0.342,0.371c-0.759-0.11-1.527-0.047-2.284-0.122
				c-1.715-0.168-3.394-0.573-5.077-0.919c-1.67-0.343-3.242-1.041-4.833-1.64c-1.356-0.511-2.675-1.157-3.94-1.867
				c-2.747-1.543-5.263-3.425-7.567-5.572c-0.842-0.784-1.58-1.681-2.338-2.551c-0.278-0.32-0.424-0.299-0.606,0.061
				c-0.452,0.89-0.786,1.81-0.997,2.795c-0.41,1.914-0.625,3.803-0.111,5.74c0.375,1.415,0.759,2.819,1.533,4.072
				c0.994,1.608,2.251,2.987,3.838,4.133c-0.519,0.133-0.967,0.038-1.417-0.037c-1.271-0.211-2.457-0.692-3.648-1.152
				c-0.414-0.16-0.549-0.017-0.511,0.395c0.146,1.575,0.348,3.119,1.107,4.563c1.008,1.918,2.124,3.717,3.936,4.999
				c1.207,0.854,2.397,1.715,3.882,2.039c0.442,0.096,0.868,0.264,1.315,0.4c-0.104,0.189-0.264,0.186-0.391,0.207
				c-1.541,0.266-3.083,0.537-4.649,0.216c-0.397-0.082-0.477,0.019-0.348,0.403c0.127,0.379,0.36,0.69,0.544,1.033
				c0.995,1.864,2.207,3.521,3.972,4.782c1.747,1.25,3.647,2.007,5.735,2.394c0.531,0.099,1.096-0.014,1.707,0.275
				C28.334,65.104,22.196,67.007,15.21,66.44z"/>
			<path d="M15.21,66.44c6.985,0.567,13.124-1.336,18.665-5.534c-0.611-0.289-1.176-0.178-1.707-0.275
				c-2.088-0.387-3.988-1.144-5.735-2.394c-1.765-1.262-2.977-2.918-3.972-4.782c-0.184-0.343-0.417-0.654-0.544-1.033
				c-0.129-0.385-0.05-0.485,0.348-0.403c1.566,0.321,3.108,0.05,4.649-0.216c0.127-0.021,0.286-0.018,0.391-0.207
				c-0.447-0.139-0.873-0.305-1.315-0.4c-1.484-0.324-2.675-1.188-3.882-2.039c-1.812-1.279-2.928-3.08-3.936-4.999
				c-0.76-1.444-0.962-2.988-1.107-4.563c-0.038-0.411,0.097-0.555,0.511-0.395c1.191,0.46,2.378,0.941,3.648,1.152
				c0.45,0.075,0.898,0.17,1.417,0.037c-1.587-1.146-2.844-2.525-3.838-4.133c-0.774-1.253-1.158-2.657-1.533-4.072
				c-0.514-1.938-0.299-3.827,0.111-5.74c0.211-0.985,0.545-1.905,0.997-2.795c0.183-0.36,0.328-0.38,0.606-0.061
				c0.758,0.87,1.496,1.767,2.338,2.551c2.305,2.147,4.82,4.028,7.567,5.572c1.266,0.71,2.584,1.356,3.94,1.867
				c1.591,0.599,3.163,1.296,4.833,1.64c1.684,0.346,3.362,0.751,5.077,0.919c0.757,0.075,1.525,0.012,2.284,0.122
				c0.261,0.038,0.409-0.07,0.342-0.371c-0.414-1.854-0.241-3.71,0.043-5.553c0.178-1.149,0.674-2.206,1.217-3.229
				c1.932-3.634,4.949-5.773,8.955-6.665c1.881-0.418,3.689-0.256,5.53,0.111c2.308,0.46,4.187,1.689,5.892,3.228
				c0.307,0.276,0.566,0.26,0.914,0.195c2.519-0.469,4.739-1.672,6.989-2.807c0.153-0.077,0.323-0.28,0.474-0.17
				c0.197,0.145,0.013,0.362-0.053,0.528c-0.844,2.172-2.062,4.082-3.926,5.53c-0.363,0.282-0.645,0.662-1.061,0.899
				c2.383-0.202,4.57-1.078,6.816-1.944c-0.089,0.625-0.464,1.041-0.802,1.448c-1.506,1.819-3.028,3.627-4.983,5
				c-0.242,0.17-0.369,0.371-0.326,0.671c0.254,1.812-0.014,3.608-0.125,5.414c-0.11,1.818-0.576,3.562-0.92,5.334
				c-0.283,1.46-0.819,2.824-1.301,4.21c-0.566,1.634-1.377,3.15-2.158,4.687c-1.414,2.769-3.203,5.259-5.295,7.556
				c-1.814,1.992-3.856,3.695-6.025,5.289c-2.803,2.062-5.93,3.375-9.186,4.504c-2.29,0.795-4.646,1.098-7.006,1.508
				c-2.375,0.412-4.745,0.238-7.116,0.25c-1.398,0.008-2.775-0.373-4.164-0.555c-1.704-0.222-3.304-0.801-4.946-1.236
				c-1.183-0.314-2.269-0.819-3.355-1.334c-1.152-0.545-2.363-0.979-3.428-1.703C15.78,66.889,15.498,66.778,15.21,66.44z"/>
		</g>
	</g>
</g>
</svg>
