<?xml version="1.0" encoding="utf-8"?>
<!-- Generator: Adobe Illustrator 16.0.0, SVG Export Plug-In . SVG Version: 6.00 Build 0)  -->
<!DOCTYPE svg PUBLIC "-//W3C//DTD SVG 1.1 Tiny//EN" "http://www.w3.org/Graphics/SVG/1.1/DTD/svg11-tiny.dtd">
<svg version="1.1" baseProfile="tiny" id="Layer_1" xmlns="http://www.w3.org/2000/svg" xmlns:xlink="http://www.w3.org/1999/xlink"
	 x="0px" y="0px" width="61.423px" height="61.22px" viewBox="0 0 61.423 61.22" xml:space="preserve">
<g id="Xbr1Sp_1_">
	<g>
		<g>
			<path d="M27.45,0.203c2.168,0,4.337,0,6.506,0c4.737,0.717,9.206,2.131,13.262,4.787c5.505,3.604,9.505,8.422,11.907,14.526
				c2.582,6.562,2.879,13.272,0.781,20.01c-2.811,9.024-8.636,15.42-17.254,19.272c-2.963,1.324-6.108,1.975-9.306,2.404
				c-1.694,0-3.389,0-5.084,0c-0.129-0.036-0.258-0.095-0.39-0.106c-5.099-0.436-9.779-2.088-14.027-4.924
				c-5.424-3.62-9.342-8.459-11.707-14.56c-0.962-2.481-1.474-5.059-1.936-7.656c0-2.169,0-4.338,0-6.507
				c0.045-0.162,0.111-0.322,0.132-0.487c0.877-6.959,3.808-12.919,8.744-17.888c3.368-3.391,7.332-5.819,11.862-7.371
				C23.069,0.975,25.268,0.647,27.45,0.203z M30.456,45.167c0-3.419,0.006-6.839-0.009-10.258c-0.002-0.335,0.178-0.855-0.337-0.931
				c-0.425-0.062-0.457,0.434-0.56,0.73c-2.239,6.531-4.464,13.067-6.708,19.597c-0.232,0.675-0.038,0.989,0.63,1.182
				c1.864,0.535,3.766,0.841,5.693,0.977c1.138,0.08,1.285-0.08,1.288-1.241C30.461,51.872,30.456,48.52,30.456,45.167z
				 M16.28,30.458c3.421,0,6.843,0.004,10.264-0.006c0.315-0.001,0.78,0.134,0.873-0.295c0.099-0.458-0.398-0.484-0.688-0.584
				c-6.536-2.236-13.078-4.455-19.613-6.694c-0.688-0.236-1.065-0.118-1.267,0.633c-0.492,1.838-0.861,3.694-0.931,5.599
				c-0.045,1.239,0.065,1.343,1.302,1.346C9.573,30.463,12.927,30.458,16.28,30.458z M13.412,11.609
				c-0.165,0.12-0.398,0.255-0.59,0.435c-1.541,1.442-2.847,3.076-3.998,4.844c-0.362,0.555-0.181,0.833,0.324,1.118
				c1.621,0.915,3.229,1.855,4.842,2.786c4.428,2.555,8.854,5.113,13.287,7.659c0.271,0.155,0.606,0.492,0.905,0.152
				c0.274-0.312-0.101-0.545-0.287-0.758c-4.584-5.256-9.173-10.507-13.764-15.757C13.956,11.886,13.796,11.654,13.412,11.609z
				 M17.285,52.709c0.472,0.008,0.607-0.334,0.771-0.617c3.473-6.008,6.942-12.017,10.404-18.03c0.154-0.269,0.493-0.61,0.102-0.886
				c-0.312-0.218-0.555,0.146-0.771,0.333c-1.689,1.461-3.37,2.933-5.052,4.402c-3.491,3.052-6.969,6.119-10.483,9.144
				c-0.726,0.623-0.709,1.036-0.04,1.687c1.364,1.326,2.789,2.565,4.396,3.589C16.839,52.474,17.081,52.594,17.285,52.709z
				 M33.051,28.244c0.155-0.114,0.354-0.239,0.53-0.392c5.246-4.589,10.484-9.188,15.744-13.763
				c0.527-0.458,0.493-0.759,0.043-1.225c-1.419-1.466-2.984-2.743-4.672-3.889c-0.737-0.501-1.069-0.329-1.478,0.384
				c-3.396,5.933-6.822,11.849-10.237,17.77c-0.118,0.205-0.248,0.411-0.317,0.633C32.582,28.025,32.666,28.232,33.051,28.244z
				 M29.744,27.198c-0.019-0.1-0.036-0.2-0.057-0.299c-1.351-6.833-2.709-13.666-4.046-20.501c-0.161-0.825-0.611-0.943-1.32-0.761
				c-1.843,0.473-3.598,1.168-5.319,1.974c-0.834,0.391-0.976,0.77-0.482,1.612c3.402,5.81,6.751,11.651,10.119,17.48
				c0.152,0.263,0.318,0.519,0.49,0.77c0.102,0.148,0.254,0.236,0.435,0.156C29.746,27.548,29.766,27.376,29.744,27.198z
				 M36.483,55.822c2.114-0.452,4.094-1.227,6.018-2.17c0.752-0.368,0.756-0.779,0.371-1.441
				C39.438,46.296,36.026,40.369,32.6,34.45c-0.174-0.3-0.309-0.832-0.75-0.687c-0.487,0.162-0.191,0.642-0.126,0.978
				c0.715,3.688,1.44,7.373,2.166,11.059c0.589,2.988,1.174,5.977,1.782,8.961C35.766,55.221,35.742,55.843,36.483,55.822z
				 M33.501,32.6c-0.232-0.013-0.355,0.052-0.393,0.198c-0.082,0.316,0.161,0.495,0.334,0.693
				c4.609,5.281,9.225,10.557,13.826,15.845c0.439,0.505,0.764,0.503,1.238,0.036c1.431-1.407,2.688-2.948,3.823-4.603
				c0.518-0.752,0.368-1.146-0.398-1.585c-5.967-3.415-11.915-6.862-17.869-10.298C33.859,32.77,33.645,32.673,33.501,32.6z
				 M5.521,36.441c0.015,0.093,0.026,0.229,0.059,0.359c0.499,2.012,1.229,3.935,2.182,5.778c0.383,0.743,0.821,0.61,1.396,0.277
				c5.944-3.441,11.896-6.871,17.84-10.312c0.272-0.158,0.761-0.278,0.616-0.683c-0.171-0.478-0.636-0.221-0.979-0.153
				c-4.381,0.861-8.76,1.73-13.139,2.595c-2.355,0.465-4.715,0.912-7.066,1.396C6.047,35.777,5.47,35.713,5.521,36.441z
				 M55.801,24.691c-0.501-2.115-1.283-4.237-2.384-6.236c-0.297-0.541-0.684-0.263-1.034-0.06
				c-6.01,3.468-12.02,6.938-18.024,10.415c-0.279,0.162-0.745,0.311-0.619,0.697c0.169,0.522,0.648,0.192,0.966,0.132
				c3.953-0.761,7.903-1.542,11.853-2.323c2.788-0.552,5.574-1.111,8.36-1.669C55.39,25.552,55.896,25.483,55.801,24.691z
				 M30.939,16.272c0,3.421-0.005,6.843,0.008,10.265c0.001,0.309-0.15,0.774,0.3,0.859c0.393,0.075,0.424-0.374,0.516-0.64
				c2.263-6.599,4.515-13.203,6.775-19.803c0.193-0.564,0.06-0.878-0.546-1.05c-1.864-0.528-3.753-0.908-5.691-0.984
				c-1.245-0.049-1.357,0.068-1.36,1.291C30.933,9.564,30.938,12.918,30.939,16.272z M45.195,30.941
				c-3.455,0-6.911-0.005-10.366,0.007c-0.309,0.002-0.771-0.138-0.847,0.323c-0.064,0.396,0.377,0.429,0.643,0.52
				c6.568,2.246,13.143,4.477,19.709,6.729c0.693,0.237,0.97,0.009,1.155-0.655c0.506-1.802,0.812-3.636,0.97-5.494
				c0.107-1.265-0.054-1.426-1.305-1.429C51.835,30.935,48.515,30.939,45.195,30.941z M34.059,30.247
				c0.497,0.313,0.874,0.206,1.227,0.207c4.438,0.009,8.874,0.006,13.312,0.006c2.202,0,4.403,0.005,6.605-0.003
				c1.193-0.005,1.335-0.159,1.262-1.37c-0.035-0.574-0.123-1.145-0.18-1.718c-0.139-1.423-0.234-1.492-1.623-1.217
				c-4.715,0.933-9.431,1.86-14.146,2.795C38.41,29.365,36.307,29.793,34.059,30.247z M30.261,27.369
				c0.283-0.538,0.191-0.912,0.191-1.269c0.007-6.088,0.005-12.176,0.005-18.264c0-3.171,0-3.171-3.167-2.746
				c-1.38,0.185-1.412,0.234-1.145,1.589c1.004,5.073,2.002,10.147,3.008,15.22C29.504,23.667,29.868,25.432,30.261,27.369z
				 M27.434,29.346c0.035-0.068,0.07-0.136,0.105-0.204c-0.342-0.206-0.681-0.418-1.026-0.617
				c-5.214-3.012-10.427-6.026-15.646-9.031c-2.869-1.652-2.845-1.632-4.146,1.462c-0.386,0.917-0.197,1.294,0.742,1.606
				c4.977,1.648,9.934,3.354,14.897,5.043C24.053,28.182,25.742,28.766,27.434,29.346z M33.426,28.571
				c0.054,0.058,0.106,0.115,0.16,0.174c1.756-1.014,3.511-2.029,5.267-3.042c4.311-2.488,8.623-4.972,12.932-7.463
				c1.152-0.666,1.163-0.712,0.407-1.836c-0.397-0.589-0.852-1.14-1.241-1.733c-0.46-0.701-0.848-0.736-1.51-0.147
				c-3.565,3.173-7.178,6.294-10.771,9.437C36.918,25.492,35.174,27.033,33.426,28.571z M32.74,33.372
				c-0.061,0.042-0.121,0.084-0.183,0.126c1.96,3.395,3.919,6.789,5.878,10.183c1.607,2.782,3.23,5.557,4.812,8.353
				c0.397,0.702,0.81,0.815,1.444,0.335c0.538-0.408,1.116-0.765,1.657-1.169c1.139-0.851,1.138-0.994,0.218-2.04
				c-2.188-2.489-4.365-4.989-6.549-7.483C37.594,38.907,35.167,36.139,32.74,33.372z M29.321,33.943
				c-0.07-0.032-0.141-0.063-0.211-0.095c-0.458,0.784-0.918,1.566-1.372,2.353c-3.079,5.334-6.15,10.674-9.246,15.998
				c-0.364,0.626-0.535,1.081,0.31,1.421c0.783,0.315,1.555,0.67,2.308,1.052c0.784,0.398,1.139,0.128,1.4-0.659
				c1.131-3.403,2.31-6.791,3.464-10.187C27.094,40.533,28.206,37.237,29.321,33.943z M28.685,28.054
				c-0.022-0.624-0.331-0.956-0.541-1.32c-2.988-5.192-5.988-10.378-8.98-15.568c-1.719-2.98-1.69-2.95-4.444-0.821
				c-0.808,0.624-0.688,1.021-0.101,1.682c2.766,3.111,5.491,6.257,8.234,9.388C24.764,23.595,26.679,25.771,28.685,28.054z
				 M32.187,27.606c0.859-1.482,1.688-2.902,2.51-4.326c2.707-4.687,5.4-9.381,8.13-14.055C43.27,8.466,43.221,8,42.374,7.657
				c-0.657-0.267-1.281-0.616-1.936-0.889c-1.172-0.488-1.223-0.471-1.646,0.761c-2.202,6.431-4.394,12.866-6.58,19.302
				C32.145,27.035,31.969,27.248,32.187,27.606z M33.97,32.042c-0.037,0.072-0.074,0.145-0.11,0.217
				c1.576,0.909,3.153,1.817,4.729,2.728c4.455,2.573,8.909,5.149,13.365,7.721c1.203,0.693,1.257,0.677,1.876-0.589
				c0.283-0.577,0.505-1.185,0.799-1.756c0.422-0.816,0.257-1.229-0.676-1.539c-5.011-1.663-9.999-3.392-14.996-5.095
				C37.296,33.163,35.632,32.604,33.97,32.042z M27.979,32.74c-0.312,0-0.353-0.012-0.377,0.002
				c-6.187,3.558-12.37,7.119-18.56,10.672c-0.527,0.303-0.496,0.642-0.186,1.073c0.494,0.687,1.004,1.363,1.449,2.08
				c0.53,0.854,1.005,0.812,1.731,0.164c3.458-3.084,6.958-6.121,10.442-9.175C24.256,36,26.032,34.445,27.979,32.74z
				 M31.116,34.087c-0.266,0.521-0.174,0.892-0.174,1.246c-0.007,6.429-0.005,12.856-0.005,19.285c0,0.305,0.015,0.609,0.003,0.913
				c-0.025,0.696,0.314,1.001,0.993,0.943c0.741-0.063,1.482-0.128,2.221-0.211c1.246-0.141,1.312-0.243,1.071-1.467
				c-0.923-4.678-1.84-9.356-2.765-14.033C32.03,38.591,31.587,36.42,31.116,34.087z M27.136,31.149
				c-0.006-0.07-0.011-0.141-0.016-0.211c-1.183,0-2.365,0-3.548,0c-5.793,0.001-11.587,0.016-17.381-0.013
				c-0.96-0.005-1.403,0.307-1.282,1.294c0.078,0.638,0.106,1.281,0.191,1.918c0.156,1.185,0.334,1.308,1.521,1.074
				c3.389-0.667,6.776-1.341,10.164-2.012C20.236,32.516,23.686,31.833,27.136,31.149z"/>
			<path fill-rule="evenodd" fill="none" d="M33.347,61.203c3.197-0.43,6.343-1.08,9.306-2.404
				c8.618-3.853,14.443-10.248,17.254-19.272c2.098-6.737,1.801-13.447-0.781-20.01C56.723,13.412,52.723,8.594,47.218,4.99
				c-4.056-2.655-8.524-4.069-13.262-4.787c8.913,0,17.826,0.008,26.738-0.017c0.606-0.002,0.729,0.122,0.729,0.729
				c-0.021,19.859-0.021,39.717,0,59.576c0,0.606-0.122,0.73-0.729,0.729C51.578,61.195,42.463,61.203,33.347,61.203z"/>
			<path fill-rule="evenodd" fill="none" d="M0.203,33.957c0.462,2.598,0.974,5.175,1.936,7.656
				c2.365,6.101,6.283,10.939,11.707,14.56c4.248,2.836,8.929,4.488,14.027,4.924c0.132,0.012,0.261,0.07,0.39,0.106
				c-9.099,0-18.198-0.008-27.298,0.017c-0.632,0.001-0.78-0.141-0.778-0.776C0.211,51.614,0.203,42.785,0.203,33.957z"/>
			<path fill-rule="evenodd" fill="none" d="M27.45,0.203c-2.183,0.444-4.381,0.772-6.509,1.5c-4.53,1.552-8.494,3.98-11.862,7.371
				c-4.937,4.969-7.867,10.928-8.744,17.888c-0.021,0.165-0.087,0.325-0.132,0.487c0-8.828,0.008-17.657-0.017-26.485
				C0.186,0.33,0.33,0.185,0.965,0.187C9.793,0.211,18.621,0.203,27.45,0.203z"/>
			<path fill-rule="evenodd" fill="none" d="M30.456,45.167c0,3.353,0.005,6.704-0.002,10.056c-0.003,1.161-0.15,1.321-1.288,1.241
				c-1.928-0.136-3.829-0.441-5.693-0.977c-0.668-0.192-0.862-0.507-0.63-1.182c2.244-6.529,4.469-13.065,6.708-19.597
				c0.103-0.297,0.135-0.793,0.56-0.73c0.515,0.075,0.335,0.596,0.337,0.931C30.462,38.329,30.456,41.749,30.456,45.167z"/>
			<path fill-rule="evenodd" fill="none" d="M16.28,30.458c-3.354,0-6.707,0.005-10.061-0.002c-1.236-0.003-1.347-0.106-1.302-1.346
				c0.069-1.904,0.438-3.76,0.931-5.599c0.201-0.751,0.578-0.87,1.267-0.633c6.535,2.239,13.077,4.458,19.613,6.694
				c0.29,0.1,0.787,0.126,0.688,0.584c-0.093,0.429-0.558,0.294-0.873,0.295C23.123,30.461,19.701,30.458,16.28,30.458z"/>
			<path fill-rule="evenodd" fill="none" d="M13.412,11.609c0.384,0.045,0.544,0.277,0.72,0.478
				c4.591,5.25,9.18,10.501,13.764,15.757c0.187,0.213,0.562,0.447,0.287,0.758c-0.299,0.34-0.635,0.003-0.905-0.152
				c-4.433-2.546-8.859-5.104-13.287-7.659c-1.612-0.931-3.221-1.871-4.842-2.786c-0.505-0.285-0.687-0.562-0.324-1.118
				c1.151-1.768,2.457-3.401,3.998-4.844C13.014,11.864,13.247,11.729,13.412,11.609z"/>
			<path fill-rule="evenodd" fill="none" d="M17.285,52.709c-0.204-0.115-0.446-0.235-0.672-0.379
				c-1.607-1.023-3.032-2.263-4.396-3.589c-0.669-0.65-0.686-1.063,0.04-1.687c3.515-3.024,6.992-6.092,10.483-9.144
				c1.682-1.47,3.362-2.941,5.052-4.402c0.216-0.187,0.459-0.551,0.771-0.333c0.392,0.275,0.053,0.617-0.102,0.886
				c-3.462,6.014-6.932,12.022-10.404,18.03C17.893,52.375,17.757,52.717,17.285,52.709z"/>
			<path fill-rule="evenodd" fill="none" d="M33.051,28.244c-0.385-0.012-0.469-0.218-0.387-0.481
				c0.069-0.223,0.199-0.429,0.317-0.633c3.415-5.921,6.842-11.837,10.237-17.77c0.408-0.713,0.74-0.885,1.478-0.384
				c1.688,1.146,3.253,2.423,4.672,3.889c0.45,0.465,0.484,0.766-0.043,1.225c-5.26,4.575-10.498,9.174-15.744,13.763
				C33.405,28.004,33.206,28.129,33.051,28.244z"/>
			<path fill-rule="evenodd" fill="none" d="M29.743,27.198c0.022,0.178,0.003,0.35-0.18,0.431c-0.181,0.08-0.333-0.008-0.435-0.156
				c-0.172-0.25-0.338-0.506-0.49-0.77c-3.368-5.83-6.717-11.671-10.119-17.48c-0.493-0.843-0.352-1.222,0.482-1.612
				c1.722-0.806,3.477-1.501,5.319-1.974c0.709-0.182,1.159-0.064,1.32,0.761c1.337,6.836,2.695,13.668,4.046,20.501
				C29.708,26.999,29.726,27.099,29.743,27.198z"/>
			<path fill-rule="evenodd" fill="none" d="M36.483,55.822c-0.741,0.021-0.718-0.601-0.812-1.062
				c-0.608-2.984-1.193-5.973-1.782-8.961c-0.726-3.686-1.451-7.371-2.166-11.059c-0.065-0.336-0.361-0.815,0.126-0.978
				c0.441-0.146,0.576,0.387,0.75,0.687c3.427,5.919,6.838,11.847,10.272,17.761c0.385,0.662,0.381,1.073-0.371,1.441
				C40.577,54.595,38.598,55.37,36.483,55.822z"/>
			<path fill-rule="evenodd" fill="none" d="M33.501,32.6c0.144,0.073,0.358,0.17,0.562,0.287
				c5.954,3.436,11.902,6.883,17.869,10.298c0.767,0.438,0.916,0.833,0.398,1.585c-1.136,1.654-2.393,3.195-3.823,4.603
				c-0.475,0.467-0.799,0.469-1.238-0.036c-4.602-5.288-9.217-10.563-13.826-15.845c-0.173-0.198-0.416-0.377-0.334-0.693
				C33.146,32.652,33.269,32.587,33.501,32.6z"/>
			<path fill-rule="evenodd" fill="none" d="M5.521,36.441c-0.051-0.728,0.526-0.664,0.908-0.743
				c2.352-0.483,4.711-0.931,7.066-1.396c4.379-0.864,8.758-1.733,13.139-2.595c0.343-0.067,0.808-0.324,0.979,0.153
				c0.145,0.404-0.344,0.524-0.616,0.683c-5.944,3.441-11.896,6.871-17.84,10.312c-0.574,0.333-1.013,0.466-1.396-0.277
				c-0.952-1.844-1.683-3.767-2.182-5.778C5.547,36.669,5.535,36.534,5.521,36.441z"/>
			<path fill-rule="evenodd" fill="none" d="M55.801,24.691c0.096,0.792-0.411,0.861-0.883,0.956
				c-2.786,0.559-5.572,1.118-8.36,1.669c-3.949,0.781-7.899,1.562-11.853,2.323c-0.317,0.061-0.797,0.391-0.966-0.132
				c-0.126-0.387,0.34-0.535,0.619-0.697c6.005-3.477,12.015-6.947,18.024-10.415c0.351-0.203,0.737-0.48,1.034,0.06
				C54.518,20.455,55.3,22.576,55.801,24.691z"/>
			<path fill-rule="evenodd" fill="none" d="M30.938,16.272c0-3.354-0.006-6.708,0.002-10.062c0.003-1.222,0.115-1.339,1.36-1.291
				c1.938,0.076,3.827,0.456,5.691,0.984c0.605,0.172,0.739,0.485,0.546,1.05c-2.261,6.6-4.513,13.204-6.775,19.803
				c-0.092,0.266-0.123,0.715-0.516,0.64c-0.45-0.085-0.299-0.551-0.3-0.859C30.935,23.116,30.939,19.694,30.938,16.272z"/>
			<path fill-rule="evenodd" fill="none" d="M45.195,30.94c3.319-0.001,6.64-0.005,9.959,0.001c1.251,0.003,1.412,0.164,1.305,1.429
				c-0.158,1.858-0.464,3.692-0.97,5.494c-0.186,0.664-0.462,0.893-1.155,0.655c-6.566-2.252-13.141-4.482-19.709-6.729
				c-0.266-0.091-0.707-0.123-0.643-0.52c0.076-0.461,0.538-0.321,0.847-0.323C38.284,30.936,41.74,30.941,45.195,30.94z"/>
			<path fill-rule="evenodd" fill="none" d="M34.059,30.247c2.248-0.453,4.352-0.882,6.457-1.3
				c4.715-0.935,9.431-1.862,14.146-2.795c1.389-0.275,1.484-0.206,1.623,1.217c0.057,0.573,0.145,1.144,0.18,1.718
				c0.073,1.211-0.068,1.365-1.262,1.37c-2.202,0.008-4.403,0.003-6.605,0.003c-4.438,0-8.874,0.003-13.312-0.006
				C34.933,30.453,34.556,30.56,34.059,30.247z"/>
			<path fill-rule="evenodd" fill="none" d="M30.261,27.369c-0.393-1.937-0.757-3.702-1.107-5.47
				c-1.006-5.073-2.004-10.147-3.008-15.22C25.878,5.324,25.91,5.274,27.29,5.09c3.167-0.425,3.167-0.425,3.167,2.746
				c0,6.088,0.002,12.176-0.005,18.264C30.452,26.457,30.544,26.832,30.261,27.369z"/>
			<path fill-rule="evenodd" fill="none" d="M27.434,29.346c-1.691-0.58-3.381-1.165-5.073-1.741
				c-4.964-1.689-9.921-3.395-14.897-5.043c-0.939-0.312-1.128-0.689-0.742-1.606c1.302-3.095,1.277-3.114,4.146-1.462
				c5.219,3.004,10.432,6.019,15.646,9.031c0.346,0.199,0.685,0.411,1.026,0.617C27.504,29.21,27.469,29.278,27.434,29.346z"/>
			<path fill-rule="evenodd" fill="none" d="M33.426,28.571c1.748-1.538,3.492-3.079,5.244-4.611
				c3.593-3.143,7.205-6.263,10.771-9.437c0.662-0.589,1.05-0.554,1.51,0.147c0.39,0.594,0.844,1.144,1.241,1.733
				c0.756,1.124,0.745,1.17-0.407,1.836c-4.309,2.491-8.621,4.975-12.932,7.463c-1.756,1.013-3.511,2.028-5.267,3.042
				C33.532,28.686,33.479,28.628,33.426,28.571z"/>
			<path fill-rule="evenodd" fill="none" d="M32.74,33.372c2.427,2.768,4.854,5.535,7.278,8.304c2.184,2.494,4.36,4.994,6.549,7.483
				c0.92,1.046,0.921,1.189-0.218,2.04c-0.541,0.404-1.119,0.761-1.657,1.169c-0.635,0.48-1.047,0.367-1.444-0.335
				c-1.582-2.796-3.205-5.57-4.812-8.353c-1.959-3.394-3.918-6.788-5.878-10.183C32.619,33.456,32.68,33.414,32.74,33.372z"/>
			<path fill-rule="evenodd" fill="none" d="M29.321,33.943c-1.115,3.294-2.228,6.59-3.348,9.883
				c-1.154,3.396-2.333,6.783-3.464,10.187c-0.262,0.787-0.616,1.058-1.4,0.659c-0.753-0.382-1.524-0.736-2.308-1.052
				c-0.845-0.34-0.674-0.795-0.31-1.421c3.096-5.324,6.167-10.664,9.246-15.998c0.454-0.786,0.914-1.568,1.372-2.353
				C29.181,33.879,29.251,33.911,29.321,33.943z"/>
			<path fill-rule="evenodd" fill="none" d="M28.685,28.054c-2.006-2.283-3.921-4.458-5.832-6.639
				c-2.743-3.131-5.469-6.277-8.234-9.388c-0.587-0.661-0.707-1.058,0.101-1.682c2.754-2.129,2.726-2.159,4.444,0.821
				c2.992,5.19,5.992,10.375,8.98,15.568C28.354,27.098,28.662,27.43,28.685,28.054z"/>
			<path fill-rule="evenodd" fill="none" d="M32.187,27.606c-0.218-0.359-0.042-0.572,0.026-0.774
				c2.187-6.437,4.378-12.871,6.58-19.302c0.423-1.232,0.474-1.25,1.646-0.761c0.654,0.273,1.278,0.622,1.936,0.889
				C43.221,8,43.27,8.466,42.826,9.226c-2.729,4.674-5.423,9.368-8.13,14.055C33.874,24.704,33.046,26.125,32.187,27.606z"/>
			<path fill-rule="evenodd" fill="none" d="M33.97,32.042c1.662,0.562,3.326,1.12,4.987,1.687
				c4.997,1.703,9.985,3.432,14.996,5.095c0.933,0.31,1.098,0.723,0.676,1.539c-0.294,0.571-0.516,1.179-0.799,1.756
				c-0.619,1.266-0.673,1.282-1.876,0.589c-4.456-2.571-8.91-5.147-13.365-7.721c-1.576-0.91-3.153-1.818-4.729-2.728
				C33.896,32.187,33.933,32.115,33.97,32.042z"/>
			<path fill-rule="evenodd" fill="none" d="M27.979,32.74c-1.946,1.705-3.723,3.26-5.499,4.816
				c-3.484,3.054-6.984,6.091-10.442,9.175c-0.727,0.648-1.201,0.689-1.731-0.164c-0.445-0.717-0.955-1.394-1.449-2.08
				c-0.311-0.432-0.342-0.771,0.186-1.073c6.189-3.553,12.373-7.114,18.56-10.672C27.626,32.728,27.666,32.74,27.979,32.74z"/>
			<path fill-rule="evenodd" fill="none" d="M31.116,34.087c0.471,2.333,0.914,4.504,1.345,6.677
				c0.925,4.677,1.842,9.355,2.765,14.033c0.241,1.224,0.175,1.326-1.071,1.467c-0.738,0.083-1.479,0.147-2.221,0.211
				c-0.679,0.058-1.019-0.247-0.993-0.943c0.012-0.304-0.003-0.608-0.003-0.913c0-6.429-0.002-12.856,0.005-19.285
				C30.942,34.979,30.851,34.609,31.116,34.087z"/>
			<path fill-rule="evenodd" fill="none" d="M27.136,31.149c-3.45,0.684-6.899,1.367-10.35,2.051
				c-3.388,0.671-6.775,1.345-10.164,2.012c-1.188,0.233-1.365,0.11-1.521-1.074c-0.085-0.637-0.113-1.28-0.191-1.918
				c-0.121-0.987,0.322-1.299,1.282-1.294c5.794,0.028,11.588,0.014,17.381,0.013c1.183,0,2.365,0,3.548,0
				C27.125,31.008,27.13,31.079,27.136,31.149z"/>
		</g>
	</g>
</g>
</svg>
