<svg version="1.1" id="Layer_1" xmlns="http://www.w3.org/2000/svg" xmlns:xlink="http://www.w3.org/1999/xlink" x="0px" y="0px"
	 width="30px" height="30px" viewBox="15 0 30 30" enable-background="new 15 0 30 30" xml:space="preserve">
<g id="heart_x5F_stroke">
	<g>
		<path fill="#BBBBCC" d="M36.669,5.625c2.303,0,4.211,1.706,4.533,3.927l-11.199,12.86L18.798,9.552
			c0.323-2.221,2.231-3.927,4.535-3.927c1.889,0,3.614,2.029,3.614,2.029L30,10.898l3.054-3.244
			C33.054,7.654,34.78,5.625,36.669,5.625 M36.669,1.875c-2.798,0-5.156,1.479-6.669,3.604c-1.512-2.124-3.871-3.604-6.667-3.604
			C18.735,1.875,15,5.617,15,10.21v0.688l15.008,17.227L45,10.898V10.21C45,5.617,41.265,1.875,36.669,1.875L36.669,1.875z"/>
	</g>
</g>
</svg>
