<svg version="1.1" id="Layer_1" xmlns="http://www.w3.org/2000/svg" xmlns:xlink="http://www.w3.org/1999/xlink" x="0px" y="0px"
	 width="34.286px" height="30px" viewBox="4.232 0 34.286 30" enable-background="new 4.232 0 34.286 30" xml:space="preserve">
<g id="svgsvg">
	<path id="main-nav-contact-mainpic" fill="#111122" d="M25.125,0h-7.5c-4.142,0-7.5,3.358-7.5,7.5v15c0,4.142,3.358,7.5,7.5,7.5
		h7.5c4.142,0,7.5-3.358,7.5-7.5v-15C32.625,3.358,29.267,0,25.125,0z M21.375,28.183c-1.068,0-1.933-0.865-1.933-1.933
		s0.866-1.933,1.933-1.933c1.068,0,1.933,0.865,1.933,1.933S22.443,28.183,21.375,28.183z M28.875,22.5h-15v-15
		c0-2.065,1.683-3.75,3.75-3.75h7.5c2.065,0,3.75,1.685,3.75,3.75V22.5z"/>
</g>
</svg>
