<svg version="1.1" class="skills-big" id="Layer_1" xmlns="http://www.w3.org/2000/svg" xmlns:xlink="http://www.w3.org/1999/xlink" x="0px" y="0px"
	 width="80px" height="80px" viewBox="0 0 80 80" enable-background="new 0 0 80 80" xml:space="preserve">
<circle fill="#FFFFFF" stroke="#000000" stroke-miterlimit="10" cx="39.667" cy="39.999" r="37.5"/>
<circle fill="#FFFFFF" stroke="#000000" stroke-miterlimit="10" cx="39.667" cy="39.999" r="37.5"/>
<g id="ntjOiR.tif">
	<g>
		<g>
			<path fill="#F7A118" d="M17.343,20.516c0-0.995,0.013-1.989-0.008-2.983c-0.006-0.289,0.032-0.43,0.354-0.361
				c0.112,0.024,0.233,0.004,0.35,0.004c14.536,0,29.071,0.005,43.607-0.018c0.612-0.001,0.755,0.132,0.712,0.727
				c-0.062,0.873-0.016,1.753-0.016,2.631C47.343,20.516,32.343,20.516,17.343,20.516z"/>
			<path fill-rule="evenodd" clip-rule="evenodd" fill="#D85E03" d="M62.343,59.012c0,0.936-0.014,1.872,0.008,2.808
				c0.007,0.289-0.032,0.429-0.354,0.36c-0.111-0.023-0.232-0.004-0.35-0.004c-14.536,0-29.071-0.005-43.607,0.018
				c-0.612,0.001-0.758-0.131-0.712-0.727c0.063-0.813,0.016-1.637,0.016-2.455C32.343,59.012,47.343,59.012,62.343,59.012z"/>
			<path fill-rule="evenodd" clip-rule="evenodd" fill="#DB6405" d="M62.343,59.012c-15,0-30,0-45,0c0-0.996,0-1.992,0-2.988
				c15,0,30,0,45,0C62.343,57.02,62.343,58.016,62.343,59.012z"/>
			<path fill-rule="evenodd" clip-rule="evenodd" fill="#DC6605" d="M62.343,56.023c-15,0-30,0-45,0c0-0.996,0-1.992,0-2.988
				c15,0,30,0,45,0C62.343,54.031,62.343,55.027,62.343,56.023z"/>
			<path fill-rule="evenodd" clip-rule="evenodd" fill="#F29715" d="M62.343,24.383c0,0.938,0,1.875,0,2.812c-15,0-30,0-45,0
				c0-0.938,0-1.875,0-2.812C32.343,24.383,47.343,24.383,62.343,24.383z"/>
			<path fill-rule="evenodd" clip-rule="evenodd" fill="#DF6C07" d="M62.343,53.035c-15,0-30,0-45,0c0-0.938,0-1.875,0-2.812
				c15,0,30,0,45,0C62.343,51.16,62.343,52.098,62.343,53.035z"/>
			<path fill-rule="evenodd" clip-rule="evenodd" fill="#EC8910" d="M62.343,31.941c0,1.699,0,3.398,0,5.098
				c-4.423,0-8.846,0-13.269,0c-0.014-0.466-0.038-0.933-0.039-1.398c-0.006-1.424-0.003-1.424-1.397-1.417
				c-1.131,0.006-1.13,0.006-1.146,1.15c-0.003,0.204-0.023,0.407-0.036,0.61c-2.28,0.006-4.56,0.012-6.84,0.018
				c-0.441-1.295-0.883-2.59-1.325-3.885c0.507-0.177,1.032-0.179,1.562-0.178C47.35,31.942,54.846,31.941,62.343,31.941z"/>
			<path fill-rule="evenodd" clip-rule="evenodd" fill="#E07008" d="M62.343,50.223c-15,0-30,0-45,0c0-0.762,0-1.523,0-2.285
				c3.029,0,6.058-0.002,9.086,0.002c0.4,0.001,0.826-0.074,1.154,0.261c-0.05,0.412-0.116,0.868,0.464,0.922
				c0.678,0.063,1.384,0.195,1.982-0.305c3.257-0.001,6.513,0.001,9.77-0.003c0.4-0.001,0.825,0.071,1.151-0.264
				c0.405,1.005,1.28,0.525,1.962,0.593c0.555,0.055,0.873-0.247,0.78-0.854c0.921,0.001,1.842,0.001,2.763,0.002
				c0.071,0.295-0.038,0.713,0.384,0.794c0.63,0.121,1.296,0.219,1.892-0.063c0.543-0.257,0.217-0.835,0.312-1.263
				c0.013-0.058,0.021-0.115,0.031-0.172c4.423-0.001,8.846-0.001,13.269-0.001C62.343,48.465,62.343,49.344,62.343,50.223z"/>
			<path fill-rule="evenodd" clip-rule="evenodd" fill="#F59E17" d="M17.343,20.516c15,0,30,0,45,0c0,0.645,0,1.289,0,1.934
				c-15,0-30,0-45,0C17.343,21.805,17.343,21.16,17.343,20.516z"/>
			<path fill-rule="evenodd" clip-rule="evenodd" fill="#F49B16" d="M17.343,22.449c15,0,30,0,45,0c0,0.645,0,1.289,0,1.934
				c-15,0-30,0-45,0C17.343,23.738,17.343,23.094,17.343,22.449z"/>
			<path fill-rule="evenodd" clip-rule="evenodd" fill="#E57C0D" d="M17.343,44.949c0-1.934,0-3.867,0-5.801
				c3.9,0,7.8,0.003,11.701-0.003c0.498,0,0.988,0.026,1.465,0.179c-0.62,1.88-1.239,3.761-1.859,5.641
				C24.88,44.96,21.112,44.955,17.343,44.949z"/>
			<path fill-rule="evenodd" clip-rule="evenodd" fill="#F19414" d="M17.343,27.195c15,0,30,0,45,0c0,0.469,0,0.938,0,1.406
				c-3.572,0-7.145,0.004-10.717-0.003c-0.85-0.001-1.697-0.006-2.528,0.201c-0.261-0.109-0.512-0.251-0.781-0.322
				c-1.012-0.266-1.747,0.027-2.15,0.827c-2.311,0-4.621,0-6.931,0c-0.613,0-1.23-0.037-1.823,0.176
				c-0.144-0.36-0.176-0.807-0.668-0.905c-0.954-0.191-1.909-0.378-2.798,0.229c-0.463-0.23-0.962-0.203-1.458-0.203
				c-5.048,0-10.096,0-15.145,0C17.343,28.133,17.343,27.664,17.343,27.195z"/>
			<path fill-rule="evenodd" clip-rule="evenodd" fill="#EF9113" d="M49.098,28.799c0.831-0.208,1.679-0.203,2.528-0.201
				c3.572,0.008,7.145,0.003,10.717,0.003c0,1.113,0,2.227,0,3.34c-7.497,0-14.993,0.001-22.49-0.002
				c-0.529,0-1.055,0.001-1.562,0.178c-0.293-0.879-0.586-1.758-0.879-2.637c0.592-0.213,1.209-0.176,1.823-0.176
				c2.31,0.001,4.621,0,6.931,0c0.004,0.318-0.005,0.638,0.016,0.955c0.029,0.448,0.125,0.907,0.597,1.075
				c0.7,0.25,1.454,0.322,2.095-0.107c0.583-0.391,0.483-1.074,0.436-1.679C49.288,29.294,49.171,29.049,49.098,28.799z"/>
			<path fill-rule="evenodd" clip-rule="evenodd" fill="#EF9113" d="M17.343,28.602c5.048,0,10.096,0,15.145,0
				c0.496,0,0.995-0.027,1.458,0.203c-0.393,1.317-0.723,2.654-1.266,3.922c-0.36-0.353-0.818-0.253-1.246-0.254
				c-4.697-0.005-9.394-0.003-14.091-0.003C17.343,31.18,17.343,29.891,17.343,28.602z"/>
			<path fill-rule="evenodd" clip-rule="evenodd" fill="#EC8910" d="M17.343,32.469c4.697,0,9.394-0.002,14.091,0.003
				c0.428,0,0.886-0.099,1.246,0.254c-0.262,1.318-0.971,2.485-1.281,3.786c-4.686,0-9.371,0-14.056,0
				C17.343,35.164,17.343,33.816,17.343,32.469z"/>
			<path fill-rule="evenodd" clip-rule="evenodd" fill="#E57C0D" d="M62.343,39.676c0,1.406,0,2.812,0,4.219
				c-4.423,0-8.846,0.001-13.269,0.001c0-1.406,0-2.812,0-4.219C53.497,39.676,57.92,39.676,62.343,39.676z"/>
			<path fill-rule="evenodd" clip-rule="evenodd" fill="#E3750A" d="M49.074,43.896c4.423,0,8.846-0.001,13.269-0.001
				c0,1.23,0,2.461,0,3.691c-4.423,0-8.846,0-13.269,0.001C49.074,46.356,49.074,45.126,49.074,43.896z"/>
			<path fill-rule="evenodd" clip-rule="evenodd" fill="#E9820E" d="M17.343,36.512c4.685,0,9.37,0,14.056,0
				c-0.297,0.938-0.593,1.875-0.89,2.812c-0.477-0.153-0.967-0.18-1.465-0.179c-3.9,0.006-7.8,0.003-11.701,0.003
				C17.343,38.27,17.343,37.391,17.343,36.512z"/>
			<path fill-rule="evenodd" clip-rule="evenodd" fill="#E9820E" d="M62.343,39.676c-4.423,0-8.846,0-13.269,0
				c0-0.879,0-1.758,0-2.637c4.423,0,8.846,0,13.269,0C62.343,37.918,62.343,38.797,62.343,39.676z"/>
			<path fill-rule="evenodd" clip-rule="evenodd" fill="#E3750A" d="M17.343,44.949c3.769,0.006,7.538,0.011,11.307,0.017
				c-0.289,1.1-0.641,2.18-1.066,3.234c-0.328-0.335-0.753-0.26-1.154-0.261c-3.029-0.004-6.058-0.002-9.086-0.002
				C17.343,46.941,17.343,45.945,17.343,44.949z"/>
			<path fill-rule="evenodd" clip-rule="evenodd" fill="#EAE8E5" d="M27.583,48.2c0.426-1.055,0.777-2.135,1.066-3.234
				c0.62-1.88,1.239-3.761,1.859-5.641c0.297-0.938,0.593-1.875,0.89-2.812c0.311-1.301,1.019-2.468,1.281-3.786
				c0.543-1.268,0.873-2.605,1.266-3.922c0.89-0.606,1.845-0.42,2.798-0.229c0.492,0.098,0.524,0.544,0.668,0.905
				c0.293,0.879,0.586,1.758,0.879,2.637c0.442,1.295,0.883,2.59,1.325,3.885c0.474,1.404,0.947,2.809,1.421,4.213
				c0.502,1.557,1.005,3.113,1.508,4.669c0.383,1.135,0.766,2.27,1.148,3.404c0.093,0.607-0.226,0.909-0.78,0.854
				c-0.682-0.067-1.557,0.412-1.962-0.593c-0.456-1.466-0.927-2.927-1.359-4.399c-0.134-0.455-0.428-0.466-0.798-0.464
				c-2.167,0.007-4.333,0.024-6.5-0.012c-0.56-0.009-0.751,0.223-0.893,0.703c-0.436,1.485-0.912,2.96-1.372,4.438
				c-0.598,0.5-1.305,0.368-1.982,0.305C27.467,49.068,27.533,48.612,27.583,48.2z M33.539,37.566
				c-0.418,1.266-0.836,2.532-1.291,3.906c2.069,0,4.018-0.007,5.967,0.005c0.536,0.003,0.468-0.295,0.36-0.627
				c-0.36-1.107-0.728-2.212-1.092-3.318c-0.632-2.005-1.263-4.01-1.895-6.015c-0.065-0.002-0.129-0.003-0.194-0.005
				C34.776,33.53,34.157,35.548,33.539,37.566z"/>
			<path fill-rule="evenodd" clip-rule="evenodd" fill="#EAE8E5" d="M49.074,37.04c0,0.879,0,1.758,0,2.637c0,1.407,0,2.813,0,4.219
				c0,1.23,0,2.461,0,3.691c-0.01,0.057-0.019,0.114-0.031,0.172c-0.095,0.428,0.231,1.006-0.312,1.263
				c-0.596,0.282-1.262,0.185-1.892,0.063c-0.422-0.081-0.312-0.499-0.384-0.794c0-1.23,0-2.461,0-3.691c0-1.465,0-2.931,0-4.396
				c0-1.406,0-2.812,0-4.219c0.013-0.204,0.033-0.407,0.036-0.61c0.016-1.144,0.015-1.144,1.146-1.15
				c1.395-0.007,1.392-0.007,1.397,1.417C49.036,36.107,49.061,36.573,49.074,37.04z"/>
			<path fill-rule="evenodd" clip-rule="evenodd" fill="#E9820E" d="M46.456,35.985c0,1.406,0,2.812,0,4.219
				c-1.807,0.004-3.613,0.008-5.419,0.012c-0.474-1.404-0.947-2.809-1.421-4.213C41.896,35.997,44.176,35.991,46.456,35.985z"/>
			<path fill-rule="evenodd" clip-rule="evenodd" fill="#E3750A" d="M30.03,48.817c0.46-1.479,0.936-2.953,1.372-4.438
				c0.142-0.48,0.333-0.712,0.893-0.703c2.167,0.036,4.333,0.019,6.5,0.012c0.37-0.002,0.664,0.009,0.798,0.464
				c0.432,1.473,0.903,2.934,1.359,4.399c-0.327,0.335-0.751,0.263-1.151,0.264C36.543,48.818,33.287,48.816,30.03,48.817z"/>
			<path fill-rule="evenodd" clip-rule="evenodd" fill="#E3750A" d="M46.456,44.6c0,1.23,0,2.461,0,3.691
				c-0.921-0.001-1.842-0.001-2.763-0.002c-0.383-1.135-0.766-2.27-1.148-3.404c0.301-0.282,0.675-0.289,1.055-0.288
				C44.552,44.601,45.504,44.6,46.456,44.6z"/>
			<path fill-rule="evenodd" clip-rule="evenodd" fill="#EAE8E5" d="M49.098,28.799c0.073,0.25,0.19,0.495,0.211,0.749
				c0.048,0.605,0.147,1.289-0.436,1.679c-0.641,0.429-1.395,0.356-2.095,0.107c-0.472-0.168-0.567-0.626-0.597-1.075
				c-0.021-0.317-0.012-0.637-0.016-0.955c0.403-0.8,1.139-1.093,2.15-0.827C48.586,28.548,48.837,28.69,49.098,28.799z"/>
			<path fill-rule="evenodd" clip-rule="evenodd" fill="#E57C0D" d="M46.456,44.6c-0.952,0-1.904,0.001-2.856-0.003
				c-0.38-0.001-0.754,0.006-1.055,0.288c-0.503-1.556-1.006-3.112-1.508-4.669c1.806-0.004,3.612-0.008,5.419-0.012
				C46.456,41.669,46.456,43.135,46.456,44.6z"/>
			<path fill-rule="evenodd" clip-rule="evenodd" fill="#E9820E" d="M37.483,37.533c0.364,1.106,0.731,2.211,1.092,3.318
				c0.108,0.332,0.176,0.63-0.36,0.627c-1.949-0.012-3.897-0.005-5.967-0.005c0.455-1.374,0.873-2.64,1.291-3.906
				C34.854,37.556,36.168,37.544,37.483,37.533z"/>
			<path fill-rule="evenodd" clip-rule="evenodd" fill="#EC8910" d="M37.483,37.533c-1.315,0.011-2.629,0.023-3.944,0.034
				c0.619-2.018,1.237-4.036,1.856-6.054c0.064,0.002,0.129,0.003,0.194,0.005C36.22,33.522,36.851,35.528,37.483,37.533z"/>
		</g>
	</g>
</g>
</svg>
