<?xml version="1.0" encoding="utf-8"?>
<!-- Generator: Adobe Illustrator 16.0.0, SVG Export Plug-In . SVG Version: 6.00 Build 0)  -->
<!DOCTYPE svg PUBLIC "-//W3C//DTD SVG 1.1//EN" "http://www.w3.org/Graphics/SVG/1.1/DTD/svg11.dtd">
<svg version="1.1" id="Layer_1" xmlns="http://www.w3.org/2000/svg" xmlns:xlink="http://www.w3.org/1999/xlink" x="0px" y="0px"
	 width="89.667px" height="89.666px" viewBox="0 0 89.667 89.666" enable-background="new 0 0 89.667 89.666" xml:space="preserve">
<g>
	<circle fill="none" stroke="#000000" stroke-miterlimit="10" cx="44.833" cy="44.833" r="42.5"/>
	<g id="wZRN1d_1_">
		<g>
			<g>
				<path fill="none" d="M45.344,85.256c-13.3,0-26.602-0.004-39.904,0.014c-0.524,0.002-0.66-0.077-0.66-0.639
					C4.798,57.974,4.8,31.316,4.779,4.66C4.777,4.059,4.938,3.983,5.481,3.983c26.629,0.015,53.26,0.015,79.889,0
					c0.547,0,0.7,0.081,0.7,0.679c-0.021,26.63-0.021,53.259,0,79.89c0.001,0.619-0.166,0.72-0.739,0.718
					C72.002,85.251,58.674,85.256,45.344,85.256z M45.605,60.979c6.027,0,12.055,0,18.082,0c1.956-0.001,3.911-0.002,5.868-0.006
					c0.323-0.001,0.657-0.036,0.818-0.367c0.169-0.34-0.024-0.619-0.235-0.862c-0.703-0.818-1.413-1.642-2.138-2.442
					c-4.15-4.575-8.306-9.147-12.461-13.721c-0.469-0.519-0.979-0.678-1.601-0.227c-2.523,1.831-5.059,3.642-7.571,5.487
					c-0.515,0.38-0.912,0.371-1.418,0c-2.388-1.748-4.797-3.467-7.193-5.203c-1.07-0.774-1.436-0.722-2.317,0.284
					c-1.237,1.41-2.486,2.806-3.748,4.192c-2.897,3.183-5.807,6.354-8.709,9.53c-0.605,0.66-1.217,1.319-1.813,1.992
					c-0.234,0.262-0.406,0.576-0.239,0.939c0.154,0.337,0.478,0.386,0.805,0.396c0.264,0.007,0.528,0.007,0.793,0.007
					C30.22,60.979,37.913,60.979,45.605,60.979z M45.713,27.955c-8.437,0-16.875-0.001-25.311,0.003
					c-0.464,0-1.049-0.115-1.244,0.446c-0.204,0.591,0.38,0.813,0.746,1.078c3.103,2.25,6.215,4.488,9.328,6.723
					c5.154,3.701,10.317,7.39,15.462,11.103c0.683,0.493,1.26,0.509,1.934-0.001c1.327-1.004,2.685-1.972,4.039-2.942
					c6.869-4.936,13.743-9.868,20.605-14.812c0.408-0.293,1.058-0.574,0.85-1.191c-0.193-0.58-0.855-0.399-1.338-0.4
					C62.428,27.953,54.07,27.956,45.713,27.955z M18.451,45.549c-0.001,0-0.003,0-0.005,0c0,4.495-0.001,8.99,0.001,13.486
					c0,0.29-0.015,0.587,0.047,0.867c0.121,0.557,0.544,0.713,1.008,0.385c0.191-0.138,0.358-0.314,0.518-0.491
					c2.135-2.341,4.265-4.689,6.401-7.031c2.867-3.139,5.737-6.276,8.605-9.416c0.615-0.673,0.558-1.277-0.17-1.799
					c-4.831-3.471-9.659-6.943-14.5-10.399c-0.428-0.306-0.864-0.872-1.466-0.531c-0.561,0.317-0.434,0.976-0.435,1.52
					C18.448,36.61,18.451,41.079,18.451,45.549z M72.735,45.545c0-4.494,0.005-8.988-0.007-13.481
					c-0.001-0.505,0.2-1.145-0.387-1.437c-0.611-0.303-1.032,0.244-1.465,0.553c-2.901,2.073-5.795,4.159-8.687,6.243
					c-1.932,1.389-3.862,2.771-5.784,4.174c-0.744,0.544-0.793,0.997-0.21,1.64c1.739,1.916,3.495,3.816,5.234,5.731
					c1.861,2.053,3.707,4.121,5.574,6.17c1.513,1.658,3.049,3.297,4.577,4.935c0.196,0.213,0.417,0.449,0.751,0.31
					c0.31-0.13,0.375-0.424,0.391-0.724c0.012-0.264,0.012-0.529,0.012-0.793C72.735,54.426,72.735,49.985,72.735,45.545z"/>
				<path d="M45.605,60.979c-7.692,0-15.385,0-23.077,0c-0.264,0-0.529,0-0.793-0.007c-0.327-0.01-0.65-0.061-0.805-0.396
					c-0.167-0.365,0.005-0.678,0.239-0.941c0.596-0.67,1.208-1.33,1.813-1.99c2.904-3.176,5.812-6.348,8.709-9.53
					c1.262-1.384,2.511-2.781,3.748-4.192c0.882-1.005,1.247-1.059,2.317-0.284c2.397,1.738,4.806,3.455,7.194,5.205
					c0.505,0.371,0.904,0.377,1.417,0c2.514-1.848,5.051-3.656,7.573-5.489c0.619-0.451,1.131-0.292,1.601,0.227
					c4.155,4.573,8.31,9.146,12.461,13.721c0.727,0.801,1.433,1.622,2.137,2.444c0.21,0.243,0.404,0.522,0.235,0.86
					c-0.163,0.331-0.498,0.366-0.819,0.366c-1.957,0.005-3.912,0.006-5.868,0.007C57.66,60.979,51.632,60.979,45.605,60.979z"/>
				<path d="M45.713,27.955c8.356,0,16.715-0.002,25.07,0.006c0.484,0,1.144-0.18,1.338,0.4c0.208,0.617-0.441,0.897-0.85,1.191
					c-6.862,4.944-13.736,9.876-20.605,14.812c-1.354,0.973-2.712,1.938-4.039,2.942c-0.674,0.51-1.251,0.494-1.934,0.001
					c-5.146-3.713-10.309-7.402-15.462-11.103c-3.114-2.235-6.225-4.474-9.328-6.723c-0.366-0.264-0.95-0.487-0.746-1.078
					c0.195-0.562,0.779-0.446,1.244-0.446C28.84,27.954,37.276,27.955,45.713,27.955z"/>
				<path d="M18.451,45.549c0-4.47-0.002-8.939,0.005-13.409c0.001-0.543-0.127-1.202,0.435-1.519
					c0.602-0.34,1.038,0.226,1.466,0.531c4.841,3.456,9.669,6.928,14.5,10.398c0.728,0.522,0.783,1.126,0.17,1.799
					c-2.868,3.14-5.739,6.277-8.605,9.418c-2.136,2.34-4.265,4.688-6.401,7.03c-0.16,0.176-0.326,0.353-0.518,0.49
					c-0.463,0.328-0.887,0.172-1.008-0.385c-0.062-0.279-0.047-0.579-0.047-0.869c-0.002-4.493-0.001-8.991-0.001-13.484
					C18.448,45.549,18.45,45.549,18.451,45.549z"/>
				<path d="M72.735,45.545c0,4.44,0,8.881,0,13.322c0,0.262,0,0.527-0.012,0.791c-0.016,0.298-0.081,0.594-0.391,0.724
					c-0.334,0.14-0.555-0.099-0.751-0.308c-1.53-1.642-3.064-3.28-4.577-4.937c-1.867-2.047-3.713-4.117-5.574-6.168
					c-1.737-1.916-3.495-3.816-5.234-5.733c-0.583-0.643-0.536-1.096,0.21-1.64c1.922-1.402,3.854-2.786,5.784-4.174
					c2.896-2.083,5.785-4.17,8.687-6.243c0.433-0.309,0.855-0.855,1.465-0.553c0.587,0.291,0.386,0.932,0.387,1.437
					C72.739,36.557,72.735,41.051,72.735,45.545z"/>
			</g>
		</g>
	</g>
</g>
</svg>
