<svg version="1.1" class="svg-contact-logos" id="github-logo" xmlns="http://www.w3.org/2000/svg" xmlns:xlink="http://www.w3.org/1999/xlink" x="0px" y="0px"
	 width="80px" height="80px" viewBox="0 0 80 80" enable-background="new 0 0 80 80" xml:space="preserve">
<g id="woxvhk_1_">
	<g>
		<g>
			<path fill="#FFFFFF" d="M4.188,5.192c23.323,0,46.646,0,69.985,0c0,23.311,0,46.626,0,69.968c-23.318,0-46.651,0-69.985,0
				C4.188,51.848,4.188,28.522,4.188,5.192z M39.158,5.234c-1.62,0.141-3.26,0.171-4.856,0.451c-2.097,0.368-4.23,0.55-6.149,1.751
				c-1.293,0.81-2.909,1.083-4.286,1.782c-2.146,1.09-4.298,2.198-6.118,3.824c-0.159,0.142-0.381,0.211-0.564,0.331
				c-0.305,0.2-0.643,0.373-0.893,0.628c-0.478,0.488-0.861,1.072-1.359,1.534c-1.778,1.645-3.446,3.372-4.768,5.423
				c-4.769,7.396-6.736,15.453-5.389,24.165c1.736,11.232,7.648,19.751,17.495,25.371c7.604,4.339,15.815,5.579,24.39,3.617
				c10.504-2.404,18.315-8.461,23.4-17.923c3.284-6.111,4.55-12.707,3.755-19.618c-0.876-7.614-3.578-14.43-9.213-19.849
				c-1.511-1.453-3.105-2.82-4.657-4.231c-0.338-0.307-0.616-0.702-0.995-0.939c-0.627-0.394-1.315-0.688-1.975-1.032
				c-2.069-1.078-4.06-2.357-6.221-3.195C47.053,5.888,43.148,5.282,39.158,5.234z"/>
			<path fill-rule="evenodd" clip-rule="evenodd" d="M39.158,5.234c3.99,0.048,7.895,0.654,11.597,2.09
				c2.161,0.838,4.151,2.117,6.221,3.195c0.659,0.344,1.348,0.639,1.975,1.032c0.379,0.238,0.657,0.632,0.995,0.939
				c1.552,1.411,3.146,2.778,4.657,4.231c5.635,5.419,8.337,12.235,9.213,19.849c0.795,6.911-0.471,13.507-3.755,19.618
				c-5.085,9.462-12.896,15.519-23.4,17.923c-8.575,1.962-16.786,0.722-24.39-3.617c-9.846-5.62-15.759-14.139-17.495-25.371
				c-1.347-8.712,0.62-16.769,5.389-24.165c1.322-2.051,2.99-3.778,4.768-5.423c0.499-0.461,0.882-1.046,1.359-1.534
				c0.25-0.256,0.588-0.429,0.893-0.628c0.183-0.12,0.405-0.189,0.564-0.331c1.82-1.626,3.973-2.734,6.118-3.824
				c1.377-0.699,2.993-0.973,4.286-1.782c1.919-1.201,4.052-1.384,6.149-1.751C35.898,5.405,37.538,5.375,39.158,5.234z
				 M48.136,67.578c11.538-3.479,21.563-15.57,19.796-30.846C66.178,21.57,53.12,10.539,37.772,11.243
				c-14.91,0.684-27.18,12.77-27.49,28.358C9.99,54.312,20.547,64.893,30.252,67.53c0-1.477,0-2.958,0-4.487
				c-0.514,0.075-0.946,0.14-1.379,0.201c-4.191,0.589-7.375-1.038-8.833-4.576c-0.746-1.812-1.723-3.403-3.482-4.402
				c-0.212-0.12-0.386-0.32-0.555-0.504c-0.64-0.695-0.469-1.278,0.451-1.479c1.17-0.255,2.324-0.045,3.188,0.724
				c1.062,0.943,2.029,2.023,2.885,3.159c1.411,1.872,3.205,2.474,5.501,2.32c2.131-0.142,2.936-1.575,3.787-3.16
				c-0.534-0.106-1.025-0.198-1.513-0.301c-3.003-0.633-5.866-1.585-8.229-3.657c-2.521-2.212-3.784-5.107-4.409-8.309
				c-0.949-4.866-0.519-9.476,2.729-13.512c0.138-0.171,0.186-0.516,0.121-0.734c-0.726-2.448-0.664-4.879,0.102-7.302
				c0.529-1.676,0.763-1.812,2.492-1.513c2.456,0.424,4.631,1.52,6.686,2.862c0.655,0.428,1.199,0.52,1.981,0.336
				c5.085-1.191,10.178-1.143,15.263,0.074c0.339,0.081,0.785-0.023,1.106-0.187c1.254-0.639,2.43-1.457,3.726-1.981
				c1.349-0.545,2.793-0.872,4.217-1.205c0.674-0.158,1.183,0.149,1.402,0.908c0.561,1.94,1.126,3.938,0.678,5.915
				c-0.42,1.852,0.003,3.197,1.051,4.744c1.968,2.902,2.089,6.285,1.771,9.69c-0.343,3.663-1.456,6.996-4.146,9.625
				c-2.71,2.648-6.104,3.847-9.768,4.418c-0.352,0.055-0.701,0.126-1.226,0.221c1.22,1.244,1.928,2.565,2.101,4.095
				c0.145,1.272,0.151,2.562,0.177,3.846C48.157,64.731,48.136,66.107,48.136,67.578z M44.249,6.115
				c-4.041-0.757-8.055-0.568-12.045,0.337C36.201,5.745,40.214,5.599,44.249,6.115z"/>
			<path fill-rule="evenodd" clip-rule="evenodd" fill="#FFFFFF" d="M48.136,67.578c0-1.471,0.021-2.847-0.007-4.221
				c-0.025-1.283-0.032-2.573-0.177-3.846c-0.173-1.529-0.881-2.851-2.101-4.095c0.524-0.095,0.874-0.166,1.226-0.221
				c3.664-0.571,7.058-1.77,9.768-4.418c2.69-2.629,3.804-5.962,4.146-9.625c0.317-3.405,0.196-6.788-1.771-9.69
				c-1.048-1.546-1.471-2.892-1.051-4.744c0.448-1.977-0.117-3.974-0.678-5.915c-0.22-0.758-0.729-1.065-1.402-0.908
				c-1.424,0.333-2.868,0.66-4.217,1.205c-1.296,0.524-2.472,1.342-3.726,1.981c-0.321,0.164-0.768,0.268-1.106,0.187
				c-5.085-1.216-10.178-1.265-15.263-0.074c-0.782,0.184-1.326,0.091-1.981-0.336c-2.054-1.342-4.23-2.438-6.686-2.862
				c-1.729-0.299-1.963-0.163-2.492,1.513c-0.766,2.423-0.828,4.854-0.102,7.302c0.065,0.218,0.017,0.563-0.121,0.734
				c-3.247,4.036-3.678,8.646-2.729,13.512c0.625,3.201,1.888,6.097,4.409,8.309c2.363,2.072,5.225,3.024,8.229,3.657
				c0.488,0.103,0.979,0.194,1.513,0.301c-0.852,1.585-1.656,3.019-3.787,3.16c-2.296,0.153-4.09-0.448-5.501-2.32
				c-0.856-1.136-1.824-2.216-2.885-3.159c-0.865-0.769-2.019-0.979-3.188-0.724c-0.92,0.201-1.091,0.784-0.451,1.479
				c0.169,0.184,0.342,0.384,0.555,0.504c1.759,0.999,2.736,2.591,3.482,4.402c1.458,3.538,4.642,5.165,8.833,4.576
				c0.433-0.062,0.865-0.126,1.379-0.201c0,1.529,0,3.011,0,4.487c-9.705-2.638-20.262-13.218-19.97-27.929
				c0.31-15.589,12.58-27.675,27.49-28.358c15.348-0.704,28.406,10.328,30.16,25.489C69.699,52.008,59.674,64.1,48.136,67.578z"/>
			<path fill-rule="evenodd" clip-rule="evenodd" fill="#FFFFFF" d="M44.249,6.115c-4.035-0.516-8.048-0.37-12.045,0.337
				C36.194,5.547,40.208,5.357,44.249,6.115z"/>
		</g>
	</g>
</g>
<circle fill="none" stroke="#000000" stroke-miterlimit="10" cx="39.5" cy="40" r="37.5"/>
</svg>
