<?xml version="1.0" encoding="utf-8"?>
<!-- Generator: Adobe Illustrator 16.0.0, SVG Export Plug-In . SVG Version: 6.00 Build 0)  -->
<!DOCTYPE svg PUBLIC "-//W3C//DTD SVG 1.1//EN" "http://www.w3.org/Graphics/SVG/1.1/DTD/svg11.dtd">
<svg version="1.1" class="svg-contact-icons" id="Layer_1" xmlns="http://www.w3.org/2000/svg" xmlns:xlink="http://www.w3.org/1999/xlink" x="0px" y="0px"
	 width="89.667px" height="89.666px" viewBox="0 0 89.667 89.666" enable-background="new 0 0 89.667 89.666" xml:space="preserve">
<g>
	<circle fill="none" stroke="#000000" stroke-miterlimit="10" cx="44.833" cy="43" r="42.5"/>
	<g id="H2MLhJ_1_">
		<g>
			<g>
				<path fill="none" d="M16.488,42.776c0-9.385,0.002-18.77-0.009-28.154c0-0.325,0.063-0.388,0.388-0.388
					c18.706,0.01,37.413,0.01,56.12,0c0.324,0,0.388,0.063,0.388,0.388c-0.012,18.77-0.012,37.54,0,56.309
					c0,0.324-0.063,0.389-0.388,0.388c-18.707-0.01-37.414-0.01-56.12,0c-0.325,0.001-0.389-0.063-0.388-0.388
					C16.49,61.546,16.488,52.162,16.488,42.776z M18.932,42.838c-0.001,0-0.002,0-0.003,0c0,7.221-0.002,14.441,0.001,21.66
					c0.001,2.597,1.86,4.457,4.446,4.457c14.409,0.001,28.817,0.001,43.226,0c2.637,0,4.494-1.869,4.494-4.518
					c0.002-14.377,0.002-28.753,0.003-43.131c0-2.669-1.857-4.521-4.532-4.522c-14.379,0-28.755,0-43.132,0
					c-2.686,0-4.502,1.81-4.503,4.487C18.931,28.461,18.932,35.649,18.932,42.838z"/>
				<path d="M18.932,42.838c0-7.189-0.001-14.377,0-21.565c0-2.676,1.817-4.486,4.503-4.487c14.377,0,28.753,0,43.132,0
					c2.675,0,4.532,1.853,4.532,4.522c-0.001,14.377-0.001,28.754-0.003,43.132c0,2.647-1.857,4.517-4.494,4.517
					c-14.408,0.001-28.817,0.001-43.226,0c-2.586,0-4.445-1.86-4.446-4.457c-0.003-7.22-0.001-14.439-0.001-21.66
					C18.93,42.838,18.931,42.838,18.932,42.838z M46.905,39.918c-0.143-0.156-0.09-0.32-0.091-0.47
					c-0.007-0.71-0.023-1.422,0.004-2.132c0.02-0.442-0.116-0.609-0.584-0.605c-2.194,0.02-4.39,0.02-6.585,0.001
					c-0.457-0.004-0.592,0.142-0.591,0.595c0.013,7.471,0.015,14.941,0.002,22.412c-0.001,0.468,0.157,0.585,0.6,0.581
					c2.149-0.02,4.296-0.008,6.445-0.008c0.7,0,0.701-0.001,0.701-0.7c0.004-4.108-0.018-8.215,0.021-12.321
					c0.014-1.368,0.316-2.611,1.347-3.712c1.694-1.808,5.498-1.942,6.6,1.285c0.29,0.852,0.387,1.727,0.39,2.61
					c0.013,4.074,0.015,8.148-0.001,12.225c-0.002,0.468,0.122,0.629,0.611,0.623c2.179-0.024,4.359-0.01,6.538-0.012
					c0.62,0,0.624-0.003,0.624-0.644c0.002-4.121-0.002-8.244,0.004-12.366c0.002-1.234-0.067-2.461-0.312-3.673
					c-0.353-1.757-0.941-3.415-2.176-4.767c-2.203-2.421-5.048-2.898-8.105-2.521c-2.101,0.259-3.692,1.461-4.987,3.085
					C47.221,39.581,47.126,39.806,46.905,39.918z M34.667,48.544c0.001,0,0.002,0,0.004,0c0-3.743-0.006-7.486,0.008-11.229
					c0.002-0.444-0.117-0.608-0.583-0.603c-2.195,0.021-4.391,0.021-6.586,0.001c-0.46-0.004-0.59,0.15-0.59,0.599
					c0.013,7.469,0.015,14.94,0.003,22.411c-0.001,0.476,0.172,0.579,0.607,0.575c2.179-0.018,4.359-0.021,6.538,0.003
					c0.491,0.008,0.611-0.153,0.608-0.621C34.659,55.967,34.667,52.256,34.667,48.544z M30.94,33.386c0.127,0,0.252,0,0.379,0
					c1.62,0.006,2.722-0.834,3.41-2.217c0.698-1.4,0.669-2.826-0.27-4.119c-0.857-1.178-2.11-1.641-3.535-1.698
					c-1.475-0.06-2.728,0.366-3.659,1.581c-1.123,1.468-1.123,3.667,0.069,5.04C28.28,33.062,29.515,33.486,30.94,33.386z"/>
				<path fill="none" d="M46.905,39.918c0.221-0.112,0.316-0.338,0.457-0.514c1.297-1.624,2.887-2.826,4.987-3.085
					c3.058-0.377,5.902,0.1,8.105,2.521c1.232,1.352,1.822,3.01,2.176,4.767c0.244,1.212,0.313,2.438,0.312,3.673
					c-0.006,4.122-0.002,8.245-0.004,12.367c0,0.64-0.004,0.643-0.624,0.643c-2.179,0.002-4.359-0.013-6.538,0.012
					c-0.489,0.006-0.613-0.155-0.611-0.623c0.016-4.076,0.014-8.15,0.001-12.225c-0.003-0.884-0.1-1.759-0.39-2.61
					c-1.101-3.227-4.905-3.092-6.6-1.285c-1.03,1.101-1.334,2.344-1.347,3.712c-0.039,4.106-0.019,8.213-0.021,12.321
					c0,0.699-0.001,0.7-0.701,0.7c-2.148,0-4.296-0.012-6.445,0.008c-0.444,0.004-0.601-0.113-0.6-0.581
					c0.012-7.471,0.01-14.942-0.003-22.412c0-0.453,0.135-0.599,0.591-0.595c2.195,0.019,4.391,0.02,6.585-0.001
					c0.468-0.004,0.603,0.162,0.584,0.606c-0.028,0.709-0.011,1.422-0.005,2.132C46.815,39.598,46.762,39.764,46.905,39.918z"/>
				<path fill="none" d="M34.667,48.544c0,3.712-0.007,7.423,0.009,11.136c0.002,0.468-0.117,0.629-0.607,0.621
					c-2.179-0.024-4.359-0.021-6.538-0.003c-0.437,0.004-0.608-0.1-0.607-0.575c0.012-7.471,0.01-14.942-0.003-22.411
					c-0.001-0.449,0.13-0.603,0.59-0.599c2.195,0.02,4.391,0.02,6.586-0.001c0.467-0.005,0.585,0.159,0.583,0.603
					c-0.015,3.744-0.008,7.487-0.008,11.229C34.669,48.544,34.667,48.544,34.667,48.544z"/>
				<path fill="none" d="M30.94,33.386c-1.425,0.1-2.66-0.325-3.605-1.413c-1.192-1.373-1.192-3.573-0.069-5.04
					c0.931-1.215,2.184-1.639,3.659-1.581c1.424,0.057,2.677,0.52,3.535,1.698c0.939,1.292,0.967,2.718,0.27,4.119
					c-0.688,1.382-1.79,2.222-3.41,2.217C31.192,33.385,31.067,33.386,30.94,33.386z"/>
			</g>
		</g>
	</g>
</g>
</svg>
