<svg version="1.1" id="Layer_1" xmlns="http://www.w3.org/2000/svg" xmlns:xlink="http://www.w3.org/1999/xlink" x="0px" y="0px"
	 width="1600px" height="400px" viewBox="0 0 1600 400" enable-background="new 0 0 1600 400" xml:space="preserve">
<rect fill="#D9E5EC" width="1600" height="400"/>
<path fill="#A1B8C3" d="M788.254,261.893c0,0,224.042-28.449,362.025,53.66c0,0,180.433,107.111,449.056,1.54L1600,400
	l-813.757,0.272L788.254,261.893z"/>
<g>
	<path fill="#343333" d="M1417.281,295.099l-3.006-1.17l-0.045-4.554l-0.575-0.654l0.056,5.002
		c-2.239-0.479-10.534-0.155-10.534-0.155c-4.645-2.669-10.685-3.182-10.685-3.182c-9.351,0.913-16.262,5.558-16.262,5.558
		c-9.104,1.799-18.094-0.534-18.094-0.534l-9.166-9.136l-7.903,0.765l7.254,12.868c-1.771,0.495-4.318,1.342-4.318,1.342
		l5.148,0.534c10.942,1.677,27.956,1.554,39.65,1.197l0.009,0.376c-1.009,0.21-1.757,1.113-1.726,2.182
		c0.031,1.202,1.028,2.148,2.229,2.117c1.202-0.032,2.151-1.03,2.12-2.23c-0.026-1.018-0.748-1.845-1.695-2.059l0.027-0.417
		c7.07-0.229,11.971-0.53,11.971-0.53l0.364,1.219l4.22-0.778l-0.03-1.227l1.922-0.638l0.539,3.17
		c-0.74,0.312-1.253,1.049-1.23,1.899c0.03,1.11,0.951,1.984,2.062,1.956c1.106-0.029,1.982-0.951,1.952-2.059
		c-0.028-1.109-0.95-1.986-2.059-1.957c-0.068,0.001-0.132,0.017-0.198,0.025l-0.547-2.907l1.492,1.524l-1.179-1.927l0.896-0.297
		c0.666-0.129,2.339-1.261,3.845-2.361l0.092,3.596l0.7,1.099l-0.221-5.115c1.258-0.937,2.275-1.748,2.275-1.748
		C1417.51,295.429,1417.281,295.099,1417.281,295.099"/>
	<path fill="#A1B8C3" d="M867.988,259.304c87.908,11.164-205.285-39.613-362.025,53.66c0,0-167.34,104.269-435.963-1.304v86.021h800
		L867.988,259.304z"/>
	<path fill="#343333" d="M1598.138,341.843h-5.313v-11.422h-10.076v5.347l-2.214,2.336v11.217h-11.7v4.048h-4.819v-13.291h-9.734
		v-11.424h-14.261v22.222h-8.556v19.214l-2.261,2.388h-2.358v-17.032h-10.031v2.181h-2.754v3.426h-2.653v4.154h-3.246v-11.526
		h-9.637v3.426h-3.935v2.701h-1.474v7.892h-4.425v-1.972h-3.148v-1.246h-13.275v2.698h-4.62l-1.573,1.665v6.541h-3.148v3.633h-8.16
		v-6.333h-1.968v-16.511h-18.092v29.285h-2.314v-13.655l-2.504-2.649h-4.819v2.179h-4.131v1.871h-1.081v4.776h-6.49l-2.066,2.182
		h-3.344v-12.982l-1.963-2.077l-2.56,2.701h-1.966v9.347h-16.03v-10.593h-3.343v-2.18h-3.246v2.387h-2.556v13.398h-1.769v2.596
		h-5.164v-4.206l-4.57-4.829v-7.581h-0.767v-0.444h-0.496l-0.399,0.444h-0.801l-0.785-0.831h-0.519v1.22h-0.588v7.599l-4.356,4.84
		v4.214h-4.921v-2.602h-1.686v-13.427h-2.438v-2.394h-3.093v2.185h-3.186v10.618h-15.275v-9.369h-1.874l-2.436-2.705l-1.875,2.081
		v13.011h-3.186l-1.969-2.186h-6.185v-4.787h-1.029v-1.875h-3.938v-2.185h-4.591l-2.389,2.654v13.686h-2.202v-29.35h-17.242v16.55
		h-1.874v6.348h-7.777v-3.641h-3v-6.558l-1.497-1.667h-4.405v-2.704h-12.65v1.249h-2.999v1.977h-4.218v-7.91h-1.404v-2.707h-3.749
		v-3.434h-9.184v11.553h-3.092v-4.164h-2.53v-3.433h-2.624v-2.187h-9.559v17.07h-2.25l-2.154-2.392v-19.257h-8.152v-22.273h-13.588
		v11.45h-9.277v13.32h-4.591v-4.058h-11.152V338.43l-2.108-2.341v-5.359h-9.603v7.906h-2.768v-12.221h-11.354v5.721l-2.493,2.5v12
		h-13.183v4.332h-5.428v-14.22h-10.969v-12.223h-16.064v23.776h-9.639v20.558l-2.548,2.555h-2.658V353.19h-11.301v2.334h-3.101
		v3.667h-2.992v4.444h-3.656v-12.333h-10.857v3.666h-4.431v2.889h-1.663v8.444h-4.984v-2.109h-3.545v-1.333h-14.956v2.886h-5.207
		l-1.773,1.78v7h-3.544v3.889h-9.195v-6.778h-2.216v-17.667h-20.384v31.333h-2.604v-14.61l-2.826-2.833h-5.428v2.331h-4.654v2
		h-1.219v5.113h-7.312l-2.327,2.333h-3.767v-13.891l-2.216-2.222l-2.88,2.889h-2.216v10h-18.058v-11.333h-3.767v-2.333h-3.655v2.555
		h-2.88v14.335h-1.995v2.777h-5.816v-4.5l-5.151-5.166v-8.113h-2.77l-0.887-0.888h-2.659l-1.44,1.446h-2.438v1.742
		c-4.281-66.975-3.363-84.167-3.363-84.167c3.709,0.142,6.278-4.056,6.278-4.056l0.096-3.198l0.333-0.38l0.237-6.489l-2.474-2.337
		l-0.143-2.243l-3.568-2.768l-0.047-2.576c-0.094-0.333-0.999-0.667-0.999-0.667l-0.286-21.898c3.092-2.719-0.428-5.105-0.428-5.105
		l-0.094-14.646l-0.428-0.669v-5.534l-0.365-0.333l-0.126-15.523c-0.635-2.161-1.015,0.129-1.015,0.129l-0.127,15.267l-0.379,0.508
		l-0.128,5.47l-0.506,0.892l-0.127,14.377c-3.552,2.035-0.634,4.961-0.634,4.961v22.009c-0.762,0-1.142,0.637-1.142,0.637v2.544
		l-3.806,3.054v2.162l-2.537,2.036l0.253,6.488l0.38,0.51v3.18c0.634,2.545,6.343,4.452,6.343,4.452
		c0.76,2.164,0.127,14.506,0,26.973c-0.079,7.695-2.138,37.432-3.702,59.078c-22.567-5.597-40.34,8.786-40.34,8.786v-5.776h-11.41
		v10.886h-1.218v-17.998h-5v35.555l796.549,0.358L1598.138,341.843z"/>
</g>
<polyline fill="#343333" points="185.642,399.719 811.549,400 810.352,340.961 805.038,340.961 805.038,329.54 794.962,329.54 
	794.962,334.887 792.748,337.223 792.748,348.439 781.048,348.439 781.048,352.488 776.229,352.488 776.229,339.197 
	766.494,339.197 766.494,327.773 752.233,327.773 752.233,349.995 743.678,349.995 743.678,369.209 741.417,371.598 
	739.059,371.598 739.059,354.566 729.027,354.566 729.027,356.747 726.273,356.747 726.273,360.173 723.62,360.173 723.62,364.327 
	720.374,364.327 720.374,352.8 710.737,352.8 710.737,356.226 706.803,356.226 706.803,358.927 705.329,358.927 705.329,366.819 
	700.904,366.819 700.904,364.847 697.756,364.847 697.756,363.601 684.48,363.601 684.48,366.299 679.86,366.299 678.287,367.963 
	678.287,374.504 675.139,374.504 675.139,378.138 666.979,378.138 666.979,371.804 665.011,371.804 665.011,355.293 
	646.919,355.293 646.919,384.578 644.604,384.578 644.604,370.922 642.101,368.273 637.281,368.273 637.281,370.453 633.15,370.453 
	633.15,372.323 632.069,372.323 632.069,377.099 625.579,377.099 623.513,379.281 620.169,379.281 620.169,366.299 618.206,364.222 
	615.646,366.922 613.681,366.922 613.681,376.269 597.65,376.269 597.65,365.676 594.308,365.676 594.308,363.496 591.062,363.496 
	591.062,365.883 588.506,365.883 588.506,379.281 586.737,379.281 586.737,381.877 581.573,381.877 581.573,377.671 
	577.003,372.843 577.003,365.262 576.236,365.262 576.236,364.817 575.74,364.817 575.341,365.262 574.54,365.262 573.755,364.431 
	573.236,364.431 573.236,365.65 572.648,365.65 572.648,373.249 568.292,378.089 568.292,382.304 563.371,382.304 563.371,379.702 
	561.686,379.702 561.686,366.275 559.248,366.275 559.248,363.881 556.155,363.881 556.155,366.066 552.97,366.066 552.97,376.684 
	537.694,376.684 537.694,367.314 535.82,367.314 533.385,364.609 531.51,366.69 531.51,379.702 528.324,379.702 526.355,377.516 
	520.171,377.516 520.171,372.729 519.142,372.729 519.142,370.854 515.203,370.854 515.203,368.669 510.612,368.669 
	508.224,371.324 508.224,385.009 506.021,385.009 506.021,355.659 488.779,355.659 488.779,372.209 486.905,372.209 
	486.905,378.557 479.128,378.557 479.128,374.916 476.128,374.916 476.128,368.358 474.631,366.69 470.226,366.69 470.226,363.986 
	457.575,363.986 457.575,365.235 454.576,365.235 454.576,367.212 450.358,367.212 450.358,359.302 448.954,359.302 
	448.954,356.595 445.205,356.595 445.205,353.161 436.021,353.161 436.021,364.714 432.93,364.714 432.93,360.55 430.399,360.55 
	430.399,357.117 427.775,357.117 427.775,354.93 418.217,354.93 418.217,372 415.967,372 413.812,369.608 413.812,350.351 
	405.66,350.351 405.66,328.078 392.072,328.078 392.072,339.527 382.795,339.527 382.795,352.848 378.204,352.848 378.204,348.79 
	367.052,348.79 367.052,337.548 364.944,335.207 364.944,329.848 355.341,329.848 355.341,337.754 352.573,337.754 352.573,325.533 
	341.219,325.533 341.219,331.254 338.726,333.753 338.726,345.754 325.543,345.754 325.543,350.086 320.116,350.086 
	320.116,335.866 309.147,335.866 309.147,323.643 293.083,323.643 293.083,347.419 283.444,347.419 283.444,367.977 
	280.896,370.532 278.238,370.532 278.238,352.309 266.937,352.309 266.937,354.643 263.836,354.643 263.836,358.309 
	260.845,358.309 260.845,362.753 257.188,362.753 257.188,350.42 246.332,350.42 246.332,354.086 241.9,354.086 241.9,356.976 
	240.238,356.976 240.238,365.419 235.253,365.419 235.253,363.31 231.708,363.31 231.708,361.977 216.752,361.977 216.752,364.863 
	211.545,364.863 209.772,366.643 209.772,373.643 206.228,373.643 206.228,377.532 197.033,377.532 197.033,370.754 
	194.817,370.754 194.817,353.087 184.141,353.087 "/>
<path fill="#A1B8C3" d="M-727.347,260.894c-87.908,11.164,205.285-39.613,362.025,53.66c0,0,167.34,104.269,435.963-1.304v86.021
	h-800L-727.347,260.894z"/>
<polyline fill="#343333" points="-434.358,399.991 191.549,400.271 190.352,341.233 185.039,341.233 185.039,329.811 
	174.962,329.811 174.962,335.158 172.749,337.494 172.749,348.711 161.048,348.711 161.048,352.759 156.229,352.759 
	156.229,339.469 146.495,339.469 146.495,328.045 132.234,328.045 132.234,350.267 123.678,350.267 123.678,369.481 
	121.417,371.869 119.059,371.869 119.059,354.837 109.028,354.837 109.028,357.019 106.274,357.019 106.274,360.444 
	103.621,360.444 103.621,364.598 100.375,364.598 100.375,353.072 90.738,353.072 90.738,356.498 86.803,356.498 86.803,359.199 
	85.33,359.199 85.33,367.091 80.905,367.091 80.905,365.119 77.756,365.119 77.756,363.873 64.481,363.873 64.481,366.57 
	59.861,366.57 58.288,368.235 58.288,374.776 55.139,374.776 55.139,378.409 46.979,378.409 46.979,372.076 45.011,372.076 
	45.011,355.564 26.919,355.564 26.919,384.849 24.605,384.849 24.605,371.194 22.101,368.545 17.282,368.545 17.282,370.724 
	13.151,370.724 13.151,372.595 12.07,372.595 12.07,377.371 5.58,377.371 3.513,379.553 0.169,379.553 0.169,366.57 -1.793,364.493 
	-4.353,367.194 -6.319,367.194 -6.319,376.541 -22.349,376.541 -22.349,365.947 -25.692,365.947 -25.692,363.768 -28.938,363.768 
	-28.938,366.155 -31.494,366.155 -31.494,379.553 -33.262,379.553 -33.262,382.148 -38.426,382.148 -38.426,377.943 
	-42.997,373.114 -42.997,365.533 -43.763,365.533 -43.763,365.089 -44.259,365.089 -44.659,365.533 -45.459,365.533 
	-46.245,364.702 -46.763,364.702 -46.763,365.922 -47.351,365.922 -47.351,373.521 -51.708,378.361 -51.708,382.575 
	-56.628,382.575 -56.628,379.973 -58.314,379.973 -58.314,366.546 -60.751,366.546 -60.751,364.153 -63.844,364.153 
	-63.844,366.337 -67.03,366.337 -67.03,376.955 -82.305,376.955 -82.305,367.586 -84.179,367.586 -86.615,364.881 -88.49,366.962 
	-88.49,379.973 -91.675,379.973 -93.644,377.787 -99.829,377.787 -99.829,373 -100.858,373 -100.858,371.125 -104.796,371.125 
	-104.796,368.941 -109.387,368.941 -111.776,371.595 -111.776,385.281 -113.978,385.281 -113.978,355.931 -131.22,355.931 
	-131.22,372.48 -133.094,372.48 -133.094,378.828 -140.872,378.828 -140.872,375.187 -143.872,375.187 -143.872,368.629 
	-145.369,366.962 -149.774,366.962 -149.774,364.258 -162.424,364.258 -162.424,365.506 -165.423,365.506 -165.423,367.483 
	-169.641,367.483 -169.641,359.573 -171.045,359.573 -171.045,356.867 -174.794,356.867 -174.794,353.433 -183.978,353.433 
	-183.978,364.986 -187.07,364.986 -187.07,360.822 -189.6,360.822 -189.6,357.389 -192.224,357.389 -192.224,355.202 
	-201.783,355.202 -201.783,372.271 -204.033,372.271 -206.187,369.879 -206.187,350.622 -214.339,350.622 -214.339,328.349 
	-227.927,328.349 -227.927,339.799 -237.205,339.799 -237.205,353.119 -241.795,353.119 -241.795,349.061 -252.948,349.061 
	-252.948,337.82 -255.056,335.479 -255.056,330.12 -264.659,330.12 -264.659,338.025 -267.426,338.025 -267.426,325.805 
	-278.781,325.805 -278.781,331.525 -281.273,334.025 -281.273,346.025 -294.456,346.025 -294.456,350.357 -299.884,350.357 
	-299.884,336.137 -310.853,336.137 -310.853,323.914 -326.917,323.914 -326.917,347.69 -336.555,347.69 -336.555,368.249 
	-339.103,370.804 -341.761,370.804 -341.761,352.58 -353.062,352.58 -353.062,354.914 -356.163,354.914 -356.163,358.581 
	-359.155,358.581 -359.155,363.025 -362.811,363.025 -362.811,350.692 -373.668,350.692 -373.668,354.358 -378.099,354.358 
	-378.099,357.247 -379.762,357.247 -379.762,365.691 -384.746,365.691 -384.746,363.582 -388.292,363.582 -388.292,362.249 
	-403.248,362.249 -403.248,365.135 -408.454,365.135 -410.228,366.915 -410.228,373.914 -413.771,373.914 -413.771,377.803 
	-422.967,377.803 -422.967,371.025 -425.183,371.025 -425.183,353.358 -435.858,353.358 "/>
</svg>
