<?xml version="1.0" encoding="utf-8"?>
<!-- Generator: Adobe Illustrator 16.0.0, SVG Export Plug-In . SVG Version: 6.00 Build 0)  -->
<!DOCTYPE svg PUBLIC "-//W3C//DTD SVG 1.1//EN" "http://www.w3.org/Graphics/SVG/1.1/DTD/svg11.dtd">
<svg version="1.1" id="Layer_1" xmlns="http://www.w3.org/2000/svg" xmlns:xlink="http://www.w3.org/1999/xlink" x="0px" y="0px"
	 width="800px" height="400px" viewBox="0 0 800 400" enable-background="new 0 0 800 400" xml:space="preserve">
<g>
	<rect x="1.86" fill="#D9E5EC" width="796.279" height="400"/>
	<g>
		<path fill="#343333" d="M617.281,295.099l-3.006-1.17l-0.045-4.554l-0.575-0.654l0.056,5.002
			c-2.239-0.479-10.534-0.155-10.534-0.155c-4.645-2.669-10.685-3.182-10.685-3.182c-9.351,0.913-16.262,5.558-16.262,5.558
			c-9.104,1.799-18.094-0.534-18.094-0.534l-9.166-9.136l-7.903,0.765l7.254,12.868c-1.771,0.495-4.318,1.342-4.318,1.342
			l5.148,0.534c10.942,1.677,27.956,1.554,39.65,1.197l0.009,0.376c-1.009,0.21-1.757,1.113-1.726,2.182
			c0.031,1.202,1.028,2.148,2.229,2.117c1.202-0.032,2.151-1.03,2.12-2.23c-0.026-1.018-0.748-1.845-1.695-2.059l0.027-0.417
			c7.07-0.229,11.971-0.53,11.971-0.53l0.364,1.219l4.22-0.778l-0.03-1.227l1.922-0.638l0.539,3.17
			c-0.74,0.312-1.253,1.049-1.23,1.899c0.03,1.11,0.951,1.984,2.062,1.956c1.106-0.029,1.982-0.951,1.952-2.059
			c-0.028-1.109-0.95-1.986-2.059-1.957c-0.068,0.001-0.132,0.017-0.198,0.025l-0.547-2.907l1.492,1.524l-1.179-1.927l0.896-0.297
			c0.666-0.129,2.339-1.261,3.845-2.361l0.092,3.596l0.7,1.099l-0.221-5.115c1.258-0.937,2.275-1.748,2.275-1.748
			C617.51,295.429,617.281,295.099,617.281,295.099"/>
		<path fill="#A1B8C3" d="M3.611,262.119c0,0,223.343-28.45,360.895,53.66c0,0,166.818,104.269,434.603-1.304v86.021H1.606
			L3.611,262.119z"/>
		<path fill="#343333" d="M798.138,341.233h-5.313v-11.422h-10.076v5.347l-2.214,2.336v11.217h-11.7v4.048h-4.819v-13.291h-9.734
			v-11.424H740.02v22.222h-8.556v19.214l-2.261,2.388h-2.358v-17.032h-10.031v2.181h-2.754v3.426h-2.653v4.154h-3.246v-11.526
			h-9.637v3.426h-3.935v2.701h-1.474v7.892h-4.425v-1.972h-3.148v-1.246h-13.275v2.698h-4.62l-1.573,1.665v6.541h-3.148v3.633h-8.16
			v-6.333h-1.968v-16.511h-18.092v29.285h-2.314v-13.655l-2.504-2.649h-4.819v2.179h-4.131v1.871h-1.081v4.776h-6.49l-2.066,2.182
			h-3.344V366.57l-1.963-2.077l-2.56,2.701h-1.966v9.347h-16.03v-10.593h-3.343v-2.18h-3.246v2.387h-2.556v13.398h-1.769v2.596
			h-5.164v-4.206l-4.57-4.829v-7.581h-0.767v-0.444h-0.496l-0.399,0.444h-0.801l-0.785-0.831h-0.519v1.22h-0.588v7.599l-4.356,4.84
			v4.214h-4.921v-2.602h-1.686v-13.427h-2.438v-2.394h-3.093v2.185h-3.186v10.618H525.48v-9.369h-1.874l-2.436-2.705l-1.875,2.081
			v13.011h-3.186l-1.969-2.186h-6.185V373h-1.029v-1.875h-3.938v-2.185h-4.591l-2.389,2.654v13.686h-2.202v-29.35h-17.242v16.55
			h-1.874v6.348h-7.777v-3.641h-3v-6.558l-1.497-1.667h-4.405v-2.704h-12.65v1.249h-2.999v1.977h-4.218v-7.91h-1.404v-2.707h-3.749
			v-3.434h-9.184v11.553h-3.092v-4.164h-2.53v-3.433h-2.624v-2.187h-9.559v17.07h-2.25l-2.154-2.392v-19.257h-8.152v-22.273h-13.588
			v11.45h-9.277v13.32h-4.591v-4.058h-11.152V337.82l-2.108-2.341v-5.359h-9.603v7.906h-2.768v-12.221h-11.354v5.721l-2.493,2.5v12
			H313.33v4.332h-5.428v-14.22h-10.969v-12.223h-16.064v23.776h-9.639v20.558l-2.548,2.555h-2.658V352.58h-11.301v2.334h-3.101
			v3.667h-2.992v4.444h-3.656v-12.333h-10.857v3.666h-4.431v2.889h-1.663v8.444h-4.984v-2.109h-3.545v-1.333h-14.956v2.886h-5.207
			l-1.773,1.78v7h-3.544v3.889h-9.195v-6.778h-2.216v-17.667h-20.384v31.333h-2.604v-14.61l-2.826-2.833h-5.428v2.331h-4.654v2
			h-1.219v5.113h-7.312l-2.327,2.333h-3.767v-13.891l-2.216-2.222l-2.88,2.889h-2.216v10h-18.058v-11.333h-3.767v-2.333h-3.655
			v2.555h-2.88v14.335h-1.995v2.777h-5.816v-4.5l-5.151-5.166v-8.113h-2.77l-0.887-0.888h-2.659l-1.44,1.446h-2.438v1.742
			c-4.281-66.975-3.363-84.167-3.363-84.167c3.709,0.142,6.278-4.056,6.278-4.056l0.096-3.198l0.333-0.38l0.237-6.489l-2.474-2.337
			l-0.143-2.243l-3.568-2.768l-0.047-2.576c-0.094-0.333-0.999-0.667-0.999-0.667l-0.286-21.898
			c3.092-2.719-0.428-5.105-0.428-5.105L68.8,215.794l-0.428-0.669v-5.534l-0.365-0.333l-0.126-15.523
			c-0.635-2.161-1.015,0.129-1.015,0.129l-0.127,15.267l-0.379,0.508l-0.128,5.47L65.724,216l-0.127,14.377
			c-3.552,2.035-0.634,4.961-0.634,4.961v22.009c-0.762,0-1.142,0.637-1.142,0.637v2.544l-3.806,3.054v2.162l-2.537,2.036
			l0.253,6.488l0.38,0.51v3.18c0.634,2.545,6.343,4.452,6.343,4.452c0.76,2.164,0.127,14.506,0,26.973
			c-0.079,7.695-2.138,37.432-3.702,59.078c-22.567-5.597-40.34,8.786-40.34,8.786v-5.776H9.004v10.886H7.786v-17.998h-5v35.556
			l796.549,0.358L798.138,341.233z"/>
	</g>
</g>
</svg>
