<?xml version="1.0" encoding="utf-8"?>
<!-- Generator: Adobe Illustrator 16.0.0, SVG Export Plug-In . SVG Version: 6.00 Build 0)  -->
<!DOCTYPE svg PUBLIC "-//W3C//DTD SVG 1.1//EN" "http://www.w3.org/Graphics/SVG/1.1/DTD/svg11.dtd">
<svg version="1.1" id="Layer_1" xmlns="http://www.w3.org/2000/svg" xmlns:xlink="http://www.w3.org/1999/xlink" x="0px" y="0px"
	 width="89.667px" height="89.667px" viewBox="0 0 89.667 89.667" enable-background="new 0 0 89.667 89.667" xml:space="preserve">
<g>
	<circle fill="none" stroke="#000000" stroke-miterlimit="10" cx="44.834" cy="44.834" r="41.5"/>
	<g>
		<g>
			<path fill="none" d="M46.353,72.062c-10.332,0-20.663,0-30.993,0.01c-0.34,0.001-0.409-0.066-0.409-0.409
				c0.011-17.133,0.011-34.269,0-51.402c0-0.343,0.068-0.409,0.409-0.409c20.662,0.008,41.323,0.008,61.983,0
				c0.341,0,0.41,0.065,0.408,0.409c-0.012,17.133-0.012,34.269,0,51.402c0.002,0.343-0.063,0.41-0.408,0.409
				C67.013,72.062,56.681,72.062,46.353,72.062z M17.103,65.062c0.27,0.316,0.532,0.422,0.762,0.574
				c0.995,0.676,2.128,1.08,3.208,1.593c1.016,0.481,2.033,0.954,3.14,1.251c1.538,0.408,3.034,0.949,4.631,1.153
				c1.301,0.171,2.588,0.528,3.898,0.521c2.218-0.013,4.437,0.149,6.66-0.233c2.209-0.383,4.417-0.67,6.56-1.414
				c3.048-1.057,5.976-2.285,8.598-4.215c2.031-1.49,3.945-3.088,5.642-4.951c1.96-2.148,3.634-4.478,4.957-7.07
				c0.732-1.438,1.487-2.858,2.019-4.389c0.449-1.301,0.952-2.575,1.219-3.941c0.324-1.661,0.756-3.292,0.859-4.994
				c0.105-1.691,0.355-3.372,0.119-5.068c-0.043-0.28,0.078-0.471,0.305-0.629c1.828-1.285,3.258-2.976,4.662-4.679
				c0.316-0.383,0.668-0.771,0.752-1.357c-2.104,0.811-4.152,1.631-6.379,1.82c0.387-0.222,0.652-0.579,0.995-0.84
				c1.741-1.357,2.882-3.146,3.672-5.176c0.06-0.158,0.234-0.36,0.054-0.495c-0.144-0.104-0.304,0.087-0.445,0.159
				c-2.105,1.062-4.186,2.188-6.541,2.627c-0.326,0.061-0.568,0.076-0.859-0.182c-1.594-1.442-3.353-2.592-5.516-3.022
				c-1.719-0.343-3.416-0.497-5.176-0.102c-3.75,0.833-6.574,2.837-8.381,6.238c-0.508,0.956-0.974,1.947-1.14,3.022
				c-0.265,1.727-0.427,3.465-0.04,5.198c0.063,0.282-0.076,0.384-0.321,0.347c-0.709-0.103-1.43-0.043-2.137-0.114
				c-1.608-0.157-3.178-0.535-4.754-0.859c-1.563-0.322-3.035-0.975-4.523-1.536c-1.271-0.478-2.505-1.083-3.688-1.748
				c-2.572-1.444-4.927-3.205-7.084-5.215c-0.787-0.734-1.478-1.573-2.189-2.389c-0.259-0.3-0.396-0.279-0.567,0.058
				c-0.421,0.833-0.735,1.694-0.934,2.616c-0.382,1.792-0.584,3.56-0.103,5.374c0.35,1.325,0.71,2.638,1.434,3.811
				c0.93,1.504,2.107,2.797,3.594,3.869c-0.486,0.124-0.907,0.035-1.328-0.034c-1.189-0.197-2.299-0.648-3.413-1.078
				c-0.389-0.151-0.516-0.017-0.479,0.367c0.136,1.476,0.325,2.919,1.037,4.272c0.945,1.796,1.988,3.479,3.684,4.678
				c1.13,0.799,2.245,1.609,3.633,1.911c0.414,0.091,0.812,0.248,1.232,0.372c-0.098,0.18-0.247,0.176-0.366,0.196
				c-1.442,0.249-2.887,0.503-4.354,0.2c-0.37-0.076-0.446,0.02-0.325,0.38c0.121,0.352,0.337,0.646,0.51,0.967
				c0.932,1.741,2.066,3.295,3.718,4.477c1.636,1.167,3.415,1.875,5.37,2.239c0.498,0.096,1.026-0.014,1.596,0.26
				C29.388,63.81,23.643,65.591,17.103,65.062z"/>
			<path d="M17.103,65.062c6.54,0.529,12.286-1.252,17.473-5.18c-0.569-0.271-1.099-0.166-1.597-0.26
				c-1.955-0.364-3.733-1.072-5.37-2.239c-1.652-1.183-2.787-2.735-3.718-4.477c-0.173-0.321-0.39-0.615-0.508-0.967
				c-0.121-0.362-0.047-0.457,0.325-0.38c1.464,0.303,2.908,0.049,4.35-0.199c0.119-0.021,0.27-0.02,0.366-0.196
				c-0.418-0.129-0.817-0.284-1.229-0.373c-1.39-0.302-2.506-1.112-3.636-1.91c-1.696-1.196-2.739-2.881-3.684-4.679
				c-0.71-1.353-0.901-2.798-1.036-4.272c-0.037-0.383,0.089-0.52,0.479-0.367c1.113,0.429,2.225,0.88,3.415,1.078
				c0.42,0.069,0.84,0.159,1.326,0.034c-1.486-1.072-2.663-2.365-3.593-3.869c-0.726-1.174-1.084-2.486-1.435-3.811
				c-0.481-1.814-0.279-3.582,0.103-5.374c0.197-0.921,0.511-1.783,0.934-2.616c0.172-0.337,0.308-0.357,0.567-0.058
				c0.711,0.814,1.402,1.654,2.188,2.389c2.158,2.009,4.514,3.77,7.085,5.215c1.183,0.666,2.418,1.27,3.688,1.748
				c1.488,0.561,2.96,1.213,4.522,1.535c1.576,0.324,3.147,0.703,4.753,0.861c0.707,0.07,1.428,0.011,2.137,0.113
				c0.244,0.038,0.383-0.064,0.319-0.347c-0.386-1.735-0.224-3.472,0.04-5.199c0.166-1.075,0.632-2.065,1.14-3.022
				c1.81-3.401,4.632-5.405,8.381-6.238c1.763-0.394,3.457-0.24,5.179,0.102c2.162,0.43,3.921,1.582,5.513,3.022
				c0.291,0.257,0.533,0.244,0.859,0.182c2.359-0.439,4.436-1.564,6.541-2.627c0.143-0.071,0.301-0.263,0.445-0.159
				c0.182,0.134,0.012,0.337-0.053,0.495c-0.787,2.031-1.928,3.819-3.672,5.176c-0.34,0.262-0.605,0.619-0.992,0.84
				c2.226-0.188,4.275-1.009,6.376-1.82c-0.082,0.586-0.431,0.975-0.753,1.357c-1.405,1.703-2.831,3.395-4.659,4.679
				c-0.226,0.159-0.347,0.349-0.304,0.629c0.236,1.696-0.017,3.375-0.119,5.068c-0.105,1.702-0.537,3.333-0.859,4.994
				c-0.268,1.366-0.77,2.645-1.219,3.942c-0.531,1.529-1.289,2.946-2.02,4.389c-1.324,2.592-2.998,4.922-4.957,7.069
				c-1.697,1.864-3.613,3.461-5.643,4.95c-2.621,1.932-5.549,3.16-8.598,4.217c-2.143,0.744-4.35,1.031-6.558,1.413
				c-2.226,0.384-4.443,0.222-6.662,0.233c-1.31,0.008-2.598-0.351-3.898-0.521c-1.596-0.206-3.094-0.748-4.631-1.154
				c-1.106-0.297-2.122-0.77-3.139-1.25c-1.08-0.512-2.213-0.918-3.209-1.594C17.636,65.484,17.374,65.378,17.103,65.062z"/>
		</g>
	</g>
</g>
</svg>
