<svg version="1.1" id="new_stuff" xmlns="http://www.w3.org/2000/svg" xmlns:xlink="http://www.w3.org/1999/xlink" x="0px" y="0px"
	 width="2000px" height="400px" viewBox="0 0 2000 400" enable-background="new 0 0 2000 400" xml:space="preserve">
<rect id="backgroundColor" opacity="0.7" fill="#BBBBCC" width="2000" height="400"/>
<g id="grid">
	<g>
		<rect x="344.5" y="-231.5" fill="none" stroke="#FF0000" stroke-miterlimit="10" width="4" height="6"/>
		<line fill="none" stroke="#FF0000" stroke-miterlimit="10" x1="344.5" y1="-225.834" x2="348.5" y2="-225.834"/>
		<line fill="none" stroke="#FF0000" stroke-miterlimit="10" x1="344.5" y1="-226.168" x2="348.5" y2="-226.168"/>
		<line fill="none" stroke="#FF0000" stroke-miterlimit="10" x1="344.5" y1="-226.499" x2="348.5" y2="-226.499"/>
		<line fill="none" stroke="#FF0000" stroke-miterlimit="10" x1="344.5" y1="-226.833" x2="348.5" y2="-226.833"/>
		<line fill="none" stroke="#FF0000" stroke-miterlimit="10" x1="344.5" y1="-227.167" x2="348.5" y2="-227.167"/>
		<line fill="none" stroke="#FF0000" stroke-miterlimit="10" x1="344.5" y1="-227.501" x2="348.5" y2="-227.501"/>
		<line fill="none" stroke="#FF0000" stroke-miterlimit="10" x1="344.5" y1="-227.832" x2="348.5" y2="-227.832"/>
		<line fill="none" stroke="#FF0000" stroke-miterlimit="10" x1="344.5" y1="-228.166" x2="348.5" y2="-228.166"/>
		<line fill="none" stroke="#FF0000" stroke-miterlimit="10" x1="344.5" y1="-228.5" x2="348.5" y2="-228.5"/>
		<line fill="none" stroke="#FF0000" stroke-miterlimit="10" x1="344.5" y1="-228.834" x2="348.5" y2="-228.834"/>
		<line fill="none" stroke="#FF0000" stroke-miterlimit="10" x1="344.5" y1="-229.168" x2="348.5" y2="-229.168"/>
		<line fill="none" stroke="#FF0000" stroke-miterlimit="10" x1="344.5" y1="-229.499" x2="348.5" y2="-229.499"/>
		<line fill="none" stroke="#FF0000" stroke-miterlimit="10" x1="344.5" y1="-229.833" x2="348.5" y2="-229.833"/>
		<line fill="none" stroke="#FF0000" stroke-miterlimit="10" x1="344.5" y1="-230.167" x2="348.5" y2="-230.167"/>
		<line fill="none" stroke="#FF0000" stroke-miterlimit="10" x1="344.5" y1="-230.501" x2="348.5" y2="-230.501"/>
		<line fill="none" stroke="#FF0000" stroke-miterlimit="10" x1="344.5" y1="-230.832" x2="348.5" y2="-230.832"/>
		<line fill="none" stroke="#FF0000" stroke-miterlimit="10" x1="344.5" y1="-231.166" x2="348.5" y2="-231.166"/>
		<line fill="none" stroke="#FF0000" stroke-miterlimit="10" x1="348.44" y1="-231.5" x2="348.44" y2="-225.5"/>
		<line fill="none" stroke="#FF0000" stroke-miterlimit="10" x1="348.381" y1="-231.5" x2="348.381" y2="-225.5"/>
		<line fill="none" stroke="#FF0000" stroke-miterlimit="10" x1="348.321" y1="-231.5" x2="348.321" y2="-225.5"/>
		<line fill="none" stroke="#FF0000" stroke-miterlimit="10" x1="348.261" y1="-231.5" x2="348.261" y2="-225.5"/>
		<line fill="none" stroke="#FF0000" stroke-miterlimit="10" x1="348.201" y1="-231.5" x2="348.201" y2="-225.5"/>
		<line fill="none" stroke="#FF0000" stroke-miterlimit="10" x1="348.142" y1="-231.5" x2="348.142" y2="-225.5"/>
		<line fill="none" stroke="#FF0000" stroke-miterlimit="10" x1="348.082" y1="-231.5" x2="348.082" y2="-225.5"/>
		<line fill="none" stroke="#FF0000" stroke-miterlimit="10" x1="348.022" y1="-231.5" x2="348.022" y2="-225.5"/>
		<line fill="none" stroke="#FF0000" stroke-miterlimit="10" x1="347.963" y1="-231.5" x2="347.963" y2="-225.5"/>
		<line fill="none" stroke="#FF0000" stroke-miterlimit="10" x1="347.903" y1="-231.5" x2="347.903" y2="-225.5"/>
		<line fill="none" stroke="#FF0000" stroke-miterlimit="10" x1="347.844" y1="-231.5" x2="347.844" y2="-225.5"/>
		<line fill="none" stroke="#FF0000" stroke-miterlimit="10" x1="347.783" y1="-231.5" x2="347.783" y2="-225.5"/>
		<line fill="none" stroke="#FF0000" stroke-miterlimit="10" x1="347.724" y1="-231.5" x2="347.724" y2="-225.5"/>
		<line fill="none" stroke="#FF0000" stroke-miterlimit="10" x1="347.664" y1="-231.5" x2="347.664" y2="-225.5"/>
		<line fill="none" stroke="#FF0000" stroke-miterlimit="10" x1="347.604" y1="-231.5" x2="347.604" y2="-225.5"/>
		<line fill="none" stroke="#FF0000" stroke-miterlimit="10" x1="347.545" y1="-231.5" x2="347.545" y2="-225.5"/>
		<line fill="none" stroke="#FF0000" stroke-miterlimit="10" x1="347.485" y1="-231.5" x2="347.485" y2="-225.5"/>
		<line fill="none" stroke="#FF0000" stroke-miterlimit="10" x1="347.426" y1="-231.5" x2="347.426" y2="-225.5"/>
		<line fill="none" stroke="#FF0000" stroke-miterlimit="10" x1="347.365" y1="-231.5" x2="347.365" y2="-225.5"/>
		<line fill="none" stroke="#FF0000" stroke-miterlimit="10" x1="347.306" y1="-231.5" x2="347.306" y2="-225.5"/>
		<line fill="none" stroke="#FF0000" stroke-miterlimit="10" x1="347.246" y1="-231.5" x2="347.246" y2="-225.5"/>
		<line fill="none" stroke="#FF0000" stroke-miterlimit="10" x1="347.187" y1="-231.5" x2="347.187" y2="-225.5"/>
		<line fill="none" stroke="#FF0000" stroke-miterlimit="10" x1="347.127" y1="-231.5" x2="347.127" y2="-225.5"/>
		<line fill="none" stroke="#FF0000" stroke-miterlimit="10" x1="347.067" y1="-231.5" x2="347.067" y2="-225.5"/>
		<line fill="none" stroke="#FF0000" stroke-miterlimit="10" x1="347.008" y1="-231.5" x2="347.008" y2="-225.5"/>
		<line fill="none" stroke="#FF0000" stroke-miterlimit="10" x1="346.948" y1="-231.5" x2="346.948" y2="-225.5"/>
		<line fill="none" stroke="#FF0000" stroke-miterlimit="10" x1="346.888" y1="-231.5" x2="346.888" y2="-225.5"/>
		<line fill="none" stroke="#FF0000" stroke-miterlimit="10" x1="346.828" y1="-231.5" x2="346.828" y2="-225.5"/>
		<line fill="none" stroke="#FF0000" stroke-miterlimit="10" x1="346.769" y1="-231.5" x2="346.769" y2="-225.5"/>
		<line fill="none" stroke="#FF0000" stroke-miterlimit="10" x1="346.709" y1="-231.5" x2="346.709" y2="-225.5"/>
		<line fill="none" stroke="#FF0000" stroke-miterlimit="10" x1="346.649" y1="-231.5" x2="346.649" y2="-225.5"/>
		<line fill="none" stroke="#FF0000" stroke-miterlimit="10" x1="346.59" y1="-231.5" x2="346.59" y2="-225.5"/>
		<line fill="none" stroke="#FF0000" stroke-miterlimit="10" x1="346.53" y1="-231.5" x2="346.53" y2="-225.5"/>
		<line fill="none" stroke="#FF0000" stroke-miterlimit="10" x1="346.47" y1="-231.5" x2="346.47" y2="-225.5"/>
		<line fill="none" stroke="#FF0000" stroke-miterlimit="10" x1="346.41" y1="-231.5" x2="346.41" y2="-225.5"/>
		<line fill="none" stroke="#FF0000" stroke-miterlimit="10" x1="346.351" y1="-231.5" x2="346.351" y2="-225.5"/>
		<line fill="none" stroke="#FF0000" stroke-miterlimit="10" x1="346.291" y1="-231.5" x2="346.291" y2="-225.5"/>
		<line fill="none" stroke="#FF0000" stroke-miterlimit="10" x1="346.231" y1="-231.5" x2="346.231" y2="-225.5"/>
		<line fill="none" stroke="#FF0000" stroke-miterlimit="10" x1="346.172" y1="-231.5" x2="346.172" y2="-225.5"/>
		<line fill="none" stroke="#FF0000" stroke-miterlimit="10" x1="346.112" y1="-231.5" x2="346.112" y2="-225.5"/>
		<line fill="none" stroke="#FF0000" stroke-miterlimit="10" x1="346.052" y1="-231.5" x2="346.052" y2="-225.5"/>
		<line fill="none" stroke="#FF0000" stroke-miterlimit="10" x1="345.992" y1="-231.5" x2="345.992" y2="-225.5"/>
		<line fill="none" stroke="#FF0000" stroke-miterlimit="10" x1="345.933" y1="-231.5" x2="345.933" y2="-225.5"/>
		<line fill="none" stroke="#FF0000" stroke-miterlimit="10" x1="345.873" y1="-231.5" x2="345.873" y2="-225.5"/>
		<line fill="none" stroke="#FF0000" stroke-miterlimit="10" x1="345.813" y1="-231.5" x2="345.813" y2="-225.5"/>
		<line fill="none" stroke="#FF0000" stroke-miterlimit="10" x1="345.754" y1="-231.5" x2="345.754" y2="-225.5"/>
		<line fill="none" stroke="#FF0000" stroke-miterlimit="10" x1="345.694" y1="-231.5" x2="345.694" y2="-225.5"/>
		<line fill="none" stroke="#FF0000" stroke-miterlimit="10" x1="345.635" y1="-231.5" x2="345.635" y2="-225.5"/>
		<line fill="none" stroke="#FF0000" stroke-miterlimit="10" x1="345.574" y1="-231.5" x2="345.574" y2="-225.5"/>
		<line fill="none" stroke="#FF0000" stroke-miterlimit="10" x1="345.515" y1="-231.5" x2="345.515" y2="-225.5"/>
		<line fill="none" stroke="#FF0000" stroke-miterlimit="10" x1="345.455" y1="-231.5" x2="345.455" y2="-225.5"/>
		<line fill="none" stroke="#FF0000" stroke-miterlimit="10" x1="345.396" y1="-231.5" x2="345.396" y2="-225.5"/>
		<line fill="none" stroke="#FF0000" stroke-miterlimit="10" x1="345.336" y1="-231.5" x2="345.336" y2="-225.5"/>
		<line fill="none" stroke="#FF0000" stroke-miterlimit="10" x1="345.276" y1="-231.5" x2="345.276" y2="-225.5"/>
		<line fill="none" stroke="#FF0000" stroke-miterlimit="10" x1="345.217" y1="-231.5" x2="345.217" y2="-225.5"/>
		<line fill="none" stroke="#FF0000" stroke-miterlimit="10" x1="345.156" y1="-231.5" x2="345.156" y2="-225.5"/>
		<line fill="none" stroke="#FF0000" stroke-miterlimit="10" x1="345.097" y1="-231.5" x2="345.097" y2="-225.5"/>
		<line fill="none" stroke="#FF0000" stroke-miterlimit="10" x1="345.037" y1="-231.5" x2="345.037" y2="-225.5"/>
		<line fill="none" stroke="#FF0000" stroke-miterlimit="10" x1="344.978" y1="-231.5" x2="344.978" y2="-225.5"/>
		<line fill="none" stroke="#FF0000" stroke-miterlimit="10" x1="344.918" y1="-231.5" x2="344.918" y2="-225.5"/>
		<line fill="none" stroke="#FF0000" stroke-miterlimit="10" x1="344.858" y1="-231.5" x2="344.858" y2="-225.5"/>
		<line fill="none" stroke="#FF0000" stroke-miterlimit="10" x1="344.799" y1="-231.5" x2="344.799" y2="-225.5"/>
		<line fill="none" stroke="#FF0000" stroke-miterlimit="10" x1="344.739" y1="-231.5" x2="344.739" y2="-225.5"/>
		<line fill="none" stroke="#FF0000" stroke-miterlimit="10" x1="344.679" y1="-231.5" x2="344.679" y2="-225.5"/>
		<line fill="none" stroke="#FF0000" stroke-miterlimit="10" x1="344.619" y1="-231.5" x2="344.619" y2="-225.5"/>
		<line fill="none" stroke="#FF0000" stroke-miterlimit="10" x1="344.56" y1="-231.5" x2="344.56" y2="-225.5"/>
	</g>
	<g opacity="0.15">
		<rect fill="none" stroke="#996677" stroke-width="0.5" stroke-miterlimit="10" width="2000" height="400"/>
		<line fill="none" stroke="#996677" stroke-width="0.5" stroke-miterlimit="10" x1="0" y1="385.156" x2="2000" y2="385.156"/>
		<line fill="none" stroke="#996677" stroke-width="0.5" stroke-miterlimit="10" x1="0" y1="370.312" x2="2000" y2="370.312"/>
		<line fill="none" stroke="#996677" stroke-width="0.5" stroke-miterlimit="10" x1="0" y1="355.469" x2="2000" y2="355.469"/>
		<line fill="none" stroke="#996677" stroke-width="0.5" stroke-miterlimit="10" x1="0" y1="340.82" x2="2000" y2="340.82"/>
		<line fill="none" stroke="#996677" stroke-width="0.5" stroke-miterlimit="10" x1="0" y1="325.977" x2="2000" y2="325.977"/>
		<line fill="none" stroke="#996677" stroke-width="0.5" stroke-miterlimit="10" x1="0" y1="311.133" x2="2000" y2="311.133"/>
		<line fill="none" stroke="#996677" stroke-width="0.5" stroke-miterlimit="10" x1="0" y1="296.289" x2="2000" y2="296.289"/>
		<line fill="none" stroke="#996677" stroke-width="0.5" stroke-miterlimit="10" x1="0" y1="281.445" x2="2000" y2="281.445"/>
		<line fill="none" stroke="#996677" stroke-width="0.5" stroke-miterlimit="10" x1="0" y1="266.602" x2="2000" y2="266.602"/>
		<line fill="none" stroke="#996677" stroke-width="0.5" stroke-miterlimit="10" x1="0" y1="251.758" x2="2000" y2="251.758"/>
		<line fill="none" stroke="#996677" stroke-width="0.5" stroke-miterlimit="10" x1="0" y1="237.109" x2="2000" y2="237.109"/>
		<line fill="none" stroke="#996677" stroke-width="0.5" stroke-miterlimit="10" x1="0" y1="222.266" x2="2000" y2="222.266"/>
		<line fill="none" stroke="#996677" stroke-width="0.5" stroke-miterlimit="10" x1="0" y1="207.422" x2="2000" y2="207.422"/>
		<line fill="none" stroke="#996677" stroke-width="0.5" stroke-miterlimit="10" x1="0" y1="192.578" x2="2000" y2="192.578"/>
		<line fill="none" stroke="#996677" stroke-width="0.5" stroke-miterlimit="10" x1="0" y1="177.734" x2="2000" y2="177.734"/>
		<line fill="none" stroke="#996677" stroke-width="0.5" stroke-miterlimit="10" x1="0" y1="162.891" x2="2000" y2="162.891"/>
		<line fill="none" stroke="#996677" stroke-width="0.5" stroke-miterlimit="10" x1="0" y1="148.242" x2="2000" y2="148.242"/>
		<line fill="none" stroke="#996677" stroke-width="0.5" stroke-miterlimit="10" x1="0" y1="133.398" x2="2000" y2="133.398"/>
		<line fill="none" stroke="#996677" stroke-width="0.5" stroke-miterlimit="10" x1="0" y1="118.555" x2="2000" y2="118.555"/>
		<line fill="none" stroke="#996677" stroke-width="0.5" stroke-miterlimit="10" x1="0" y1="103.711" x2="2000" y2="103.711"/>
		<line fill="none" stroke="#996677" stroke-width="0.5" stroke-miterlimit="10" x1="0" y1="88.867" x2="2000" y2="88.867"/>
		<line fill="none" stroke="#996677" stroke-width="0.5" stroke-miterlimit="10" x1="0" y1="74.023" x2="2000" y2="74.023"/>
		<line fill="none" stroke="#996677" stroke-width="0.5" stroke-miterlimit="10" x1="0" y1="59.18" x2="2000" y2="59.18"/>
		<line fill="none" stroke="#996677" stroke-width="0.5" stroke-miterlimit="10" x1="0" y1="44.531" x2="2000" y2="44.531"/>
		<line fill="none" stroke="#996677" stroke-width="0.5" stroke-miterlimit="10" x1="0" y1="29.688" x2="2000" y2="29.688"/>
		<line fill="none" stroke="#996677" stroke-width="0.5" stroke-miterlimit="10" x1="0" y1="14.844" x2="2000" y2="14.844"/>
		<line fill="none" stroke="#996677" stroke-width="0.5" stroke-miterlimit="10" x1="1981.445" y1="0" x2="1981.445" y2="400"/>
		<line fill="none" stroke="#996677" stroke-width="0.5" stroke-miterlimit="10" x1="1962.891" y1="0" x2="1962.891" y2="400"/>
		<line fill="none" stroke="#996677" stroke-width="0.5" stroke-miterlimit="10" x1="1944.336" y1="0" x2="1944.336" y2="400"/>
		<line fill="none" stroke="#996677" stroke-width="0.5" stroke-miterlimit="10" x1="1925.781" y1="0" x2="1925.781" y2="400"/>
		<line fill="none" stroke="#996677" stroke-width="0.5" stroke-miterlimit="10" x1="1907.227" y1="0" x2="1907.227" y2="400"/>
		<line fill="none" stroke="#996677" stroke-width="0.5" stroke-miterlimit="10" x1="1888.672" y1="0" x2="1888.672" y2="400"/>
		<line fill="none" stroke="#996677" stroke-width="0.5" stroke-miterlimit="10" x1="1870.605" y1="0" x2="1870.605" y2="400"/>
		<line fill="none" stroke="#996677" stroke-width="0.5" stroke-miterlimit="10" x1="1852.051" y1="0" x2="1852.051" y2="400"/>
		<line fill="none" stroke="#996677" stroke-width="0.5" stroke-miterlimit="10" x1="1833.496" y1="0" x2="1833.496" y2="400"/>
		<line fill="none" stroke="#996677" stroke-width="0.5" stroke-miterlimit="10" x1="1814.941" y1="0" x2="1814.941" y2="400"/>
		<line fill="none" stroke="#996677" stroke-width="0.5" stroke-miterlimit="10" x1="1796.387" y1="0" x2="1796.387" y2="400"/>
		<line fill="none" stroke="#996677" stroke-width="0.5" stroke-miterlimit="10" x1="1777.832" y1="0" x2="1777.832" y2="400"/>
		<line fill="none" stroke="#996677" stroke-width="0.5" stroke-miterlimit="10" x1="1759.277" y1="0" x2="1759.277" y2="400"/>
		<line fill="none" stroke="#996677" stroke-width="0.5" stroke-miterlimit="10" x1="1740.723" y1="0" x2="1740.723" y2="400"/>
		<line fill="none" stroke="#996677" stroke-width="0.5" stroke-miterlimit="10" x1="1722.168" y1="0" x2="1722.168" y2="400"/>
		<line fill="none" stroke="#996677" stroke-width="0.5" stroke-miterlimit="10" x1="1703.613" y1="0" x2="1703.613" y2="400"/>
		<line fill="none" stroke="#996677" stroke-width="0.5" stroke-miterlimit="10" x1="1685.059" y1="0" x2="1685.059" y2="400"/>
		<line fill="none" stroke="#996677" stroke-width="0.5" stroke-miterlimit="10" x1="1666.504" y1="0" x2="1666.504" y2="400"/>
		<line fill="none" stroke="#996677" stroke-width="0.5" stroke-miterlimit="10" x1="1647.949" y1="0" x2="1647.949" y2="400"/>
		<line fill="none" stroke="#996677" stroke-width="0.5" stroke-miterlimit="10" x1="1629.395" y1="0" x2="1629.395" y2="400"/>
		<line fill="none" stroke="#996677" stroke-width="0.5" stroke-miterlimit="10" x1="1611.328" y1="0" x2="1611.328" y2="400"/>
		<line fill="none" stroke="#996677" stroke-width="0.5" stroke-miterlimit="10" x1="1592.773" y1="0" x2="1592.773" y2="400"/>
		<line fill="none" stroke="#996677" stroke-width="0.5" stroke-miterlimit="10" x1="1574.219" y1="0" x2="1574.219" y2="400"/>
		<line fill="none" stroke="#996677" stroke-width="0.5" stroke-miterlimit="10" x1="1555.664" y1="0" x2="1555.664" y2="400"/>
		<line fill="none" stroke="#996677" stroke-width="0.5" stroke-miterlimit="10" x1="1537.109" y1="0" x2="1537.109" y2="400"/>
		<line fill="none" stroke="#996677" stroke-width="0.5" stroke-miterlimit="10" x1="1518.555" y1="0" x2="1518.555" y2="400"/>
		<line fill="none" stroke="#996677" stroke-width="0.5" stroke-miterlimit="10" x1="1500" y1="0" x2="1500" y2="400"/>
		<line fill="none" stroke="#996677" stroke-width="0.5" stroke-miterlimit="10" x1="1481.445" y1="0" x2="1481.445" y2="400"/>
		<line fill="none" stroke="#996677" stroke-width="0.5" stroke-miterlimit="10" x1="1462.891" y1="0" x2="1462.891" y2="400"/>
		<line fill="none" stroke="#996677" stroke-width="0.5" stroke-miterlimit="10" x1="1444.336" y1="0" x2="1444.336" y2="400"/>
		<line fill="none" stroke="#996677" stroke-width="0.5" stroke-miterlimit="10" x1="1425.781" y1="0" x2="1425.781" y2="400"/>
		<line fill="none" stroke="#996677" stroke-width="0.5" stroke-miterlimit="10" x1="1407.227" y1="0" x2="1407.227" y2="400"/>
		<line fill="none" stroke="#996677" stroke-width="0.5" stroke-miterlimit="10" x1="1388.672" y1="0" x2="1388.672" y2="400"/>
		<line fill="none" stroke="#996677" stroke-width="0.5" stroke-miterlimit="10" x1="1370.605" y1="0" x2="1370.605" y2="400"/>
		<line fill="none" stroke="#996677" stroke-width="0.5" stroke-miterlimit="10" x1="1352.051" y1="0" x2="1352.051" y2="400"/>
		<line fill="none" stroke="#996677" stroke-width="0.5" stroke-miterlimit="10" x1="1333.496" y1="0" x2="1333.496" y2="400"/>
		<line fill="none" stroke="#996677" stroke-width="0.5" stroke-miterlimit="10" x1="1314.941" y1="0" x2="1314.941" y2="400"/>
		<line fill="none" stroke="#996677" stroke-width="0.5" stroke-miterlimit="10" x1="1296.387" y1="0" x2="1296.387" y2="400"/>
		<line fill="none" stroke="#996677" stroke-width="0.5" stroke-miterlimit="10" x1="1277.832" y1="0" x2="1277.832" y2="400"/>
		<line fill="none" stroke="#996677" stroke-width="0.5" stroke-miterlimit="10" x1="1259.277" y1="0" x2="1259.277" y2="400"/>
		<line fill="none" stroke="#996677" stroke-width="0.5" stroke-miterlimit="10" x1="1240.723" y1="0" x2="1240.723" y2="400"/>
		<line fill="none" stroke="#996677" stroke-width="0.5" stroke-miterlimit="10" x1="1222.168" y1="0" x2="1222.168" y2="400"/>
		<line fill="none" stroke="#996677" stroke-width="0.5" stroke-miterlimit="10" x1="1203.613" y1="0" x2="1203.613" y2="400"/>
		<line fill="none" stroke="#996677" stroke-width="0.5" stroke-miterlimit="10" x1="1185.059" y1="0" x2="1185.059" y2="400"/>
		<line fill="none" stroke="#996677" stroke-width="0.5" stroke-miterlimit="10" x1="1166.504" y1="0" x2="1166.504" y2="400"/>
		<line fill="none" stroke="#996677" stroke-width="0.5" stroke-miterlimit="10" x1="1147.949" y1="0" x2="1147.949" y2="400"/>
		<line fill="none" stroke="#996677" stroke-width="0.5" stroke-miterlimit="10" x1="1129.395" y1="0" x2="1129.395" y2="400"/>
		<line fill="none" stroke="#996677" stroke-width="0.5" stroke-miterlimit="10" x1="1111.328" y1="0" x2="1111.328" y2="400"/>
		<line fill="none" stroke="#996677" stroke-width="0.5" stroke-miterlimit="10" x1="1092.773" y1="0" x2="1092.773" y2="400"/>
		<line fill="none" stroke="#996677" stroke-width="0.5" stroke-miterlimit="10" x1="1074.219" y1="0" x2="1074.219" y2="400"/>
		<line fill="none" stroke="#996677" stroke-width="0.5" stroke-miterlimit="10" x1="1055.664" y1="0" x2="1055.664" y2="400"/>
		<line fill="none" stroke="#996677" stroke-width="0.5" stroke-miterlimit="10" x1="1037.109" y1="0" x2="1037.109" y2="400"/>
		<line fill="none" stroke="#996677" stroke-width="0.5" stroke-miterlimit="10" x1="1018.555" y1="0" x2="1018.555" y2="400"/>
		<line fill="none" stroke="#996677" stroke-width="0.5" stroke-miterlimit="10" x1="1000" y1="0" x2="1000" y2="400"/>
		<line fill="none" stroke="#996677" stroke-width="0.5" stroke-miterlimit="10" x1="981.445" y1="0" x2="981.445" y2="400"/>
		<line fill="none" stroke="#996677" stroke-width="0.5" stroke-miterlimit="10" x1="962.891" y1="0" x2="962.891" y2="400"/>
		<line fill="none" stroke="#996677" stroke-width="0.5" stroke-miterlimit="10" x1="944.336" y1="0" x2="944.336" y2="400"/>
		<line fill="none" stroke="#996677" stroke-width="0.5" stroke-miterlimit="10" x1="925.781" y1="0" x2="925.781" y2="400"/>
		<line fill="none" stroke="#996677" stroke-width="0.5" stroke-miterlimit="10" x1="907.227" y1="0" x2="907.227" y2="400"/>
		<line fill="none" stroke="#996677" stroke-width="0.5" stroke-miterlimit="10" x1="888.672" y1="0" x2="888.672" y2="400"/>
		<line fill="none" stroke="#996677" stroke-width="0.5" stroke-miterlimit="10" x1="870.605" y1="0" x2="870.605" y2="400"/>
		<line fill="none" stroke="#996677" stroke-width="0.5" stroke-miterlimit="10" x1="852.051" y1="0" x2="852.051" y2="400"/>
		<line fill="none" stroke="#996677" stroke-width="0.5" stroke-miterlimit="10" x1="833.496" y1="0" x2="833.496" y2="400"/>
		<line fill="none" stroke="#996677" stroke-width="0.5" stroke-miterlimit="10" x1="814.941" y1="0" x2="814.941" y2="400"/>
		<line fill="none" stroke="#996677" stroke-width="0.5" stroke-miterlimit="10" x1="796.387" y1="0" x2="796.387" y2="400"/>
		<line fill="none" stroke="#996677" stroke-width="0.5" stroke-miterlimit="10" x1="777.832" y1="0" x2="777.832" y2="400"/>
		<line fill="none" stroke="#996677" stroke-width="0.5" stroke-miterlimit="10" x1="759.277" y1="0" x2="759.277" y2="400"/>
		<line fill="none" stroke="#996677" stroke-width="0.5" stroke-miterlimit="10" x1="740.723" y1="0" x2="740.723" y2="400"/>
		<line fill="none" stroke="#996677" stroke-width="0.5" stroke-miterlimit="10" x1="722.168" y1="0" x2="722.168" y2="400"/>
		<line fill="none" stroke="#996677" stroke-width="0.5" stroke-miterlimit="10" x1="703.613" y1="0" x2="703.613" y2="400"/>
		<line fill="none" stroke="#996677" stroke-width="0.5" stroke-miterlimit="10" x1="685.059" y1="0" x2="685.059" y2="400"/>
		<line fill="none" stroke="#996677" stroke-width="0.5" stroke-miterlimit="10" x1="666.504" y1="0" x2="666.504" y2="400"/>
		<line fill="none" stroke="#996677" stroke-width="0.5" stroke-miterlimit="10" x1="647.949" y1="0" x2="647.949" y2="400"/>
		<line fill="none" stroke="#996677" stroke-width="0.5" stroke-miterlimit="10" x1="629.395" y1="0" x2="629.395" y2="400"/>
		<line fill="none" stroke="#996677" stroke-width="0.5" stroke-miterlimit="10" x1="611.328" y1="0" x2="611.328" y2="400"/>
		<line fill="none" stroke="#996677" stroke-width="0.5" stroke-miterlimit="10" x1="592.773" y1="0" x2="592.773" y2="400"/>
		<line fill="none" stroke="#996677" stroke-width="0.5" stroke-miterlimit="10" x1="574.219" y1="0" x2="574.219" y2="400"/>
		<line fill="none" stroke="#996677" stroke-width="0.5" stroke-miterlimit="10" x1="555.664" y1="0" x2="555.664" y2="400"/>
		<line fill="none" stroke="#996677" stroke-width="0.5" stroke-miterlimit="10" x1="537.109" y1="0" x2="537.109" y2="400"/>
		<line fill="none" stroke="#996677" stroke-width="0.5" stroke-miterlimit="10" x1="518.555" y1="0" x2="518.555" y2="400"/>
		<line fill="none" stroke="#996677" stroke-width="0.5" stroke-miterlimit="10" x1="500" y1="0" x2="500" y2="400"/>
		<line fill="none" stroke="#996677" stroke-width="0.5" stroke-miterlimit="10" x1="481.445" y1="0" x2="481.445" y2="400"/>
		<line fill="none" stroke="#996677" stroke-width="0.5" stroke-miterlimit="10" x1="462.891" y1="0" x2="462.891" y2="400"/>
		<line fill="none" stroke="#996677" stroke-width="0.5" stroke-miterlimit="10" x1="444.336" y1="0" x2="444.336" y2="400"/>
		<line fill="none" stroke="#996677" stroke-width="0.5" stroke-miterlimit="10" x1="425.781" y1="0" x2="425.781" y2="400"/>
		<line fill="none" stroke="#996677" stroke-width="0.5" stroke-miterlimit="10" x1="407.227" y1="0" x2="407.227" y2="400"/>
		<line fill="none" stroke="#996677" stroke-width="0.5" stroke-miterlimit="10" x1="388.672" y1="0" x2="388.672" y2="400"/>
		<line fill="none" stroke="#996677" stroke-width="0.5" stroke-miterlimit="10" x1="370.605" y1="0" x2="370.605" y2="400"/>
		<line fill="none" stroke="#996677" stroke-width="0.5" stroke-miterlimit="10" x1="352.051" y1="0" x2="352.051" y2="400"/>
		<line fill="none" stroke="#996677" stroke-width="0.5" stroke-miterlimit="10" x1="333.496" y1="0" x2="333.496" y2="400"/>
		<line fill="none" stroke="#996677" stroke-width="0.5" stroke-miterlimit="10" x1="314.941" y1="0" x2="314.941" y2="400"/>
		<line fill="none" stroke="#996677" stroke-width="0.5" stroke-miterlimit="10" x1="296.387" y1="0" x2="296.387" y2="400"/>
		<line fill="none" stroke="#996677" stroke-width="0.5" stroke-miterlimit="10" x1="277.832" y1="0" x2="277.832" y2="400"/>
		<line fill="none" stroke="#996677" stroke-width="0.5" stroke-miterlimit="10" x1="259.277" y1="0" x2="259.277" y2="400"/>
		<line fill="none" stroke="#996677" stroke-width="0.5" stroke-miterlimit="10" x1="240.723" y1="0" x2="240.723" y2="400"/>
		<line fill="none" stroke="#996677" stroke-width="0.5" stroke-miterlimit="10" x1="222.168" y1="0" x2="222.168" y2="400"/>
		<line fill="none" stroke="#996677" stroke-width="0.5" stroke-miterlimit="10" x1="203.613" y1="0" x2="203.613" y2="400"/>
		<line fill="none" stroke="#996677" stroke-width="0.5" stroke-miterlimit="10" x1="185.059" y1="0" x2="185.059" y2="400"/>
		<line fill="none" stroke="#996677" stroke-width="0.5" stroke-miterlimit="10" x1="166.504" y1="0" x2="166.504" y2="400"/>
		<line fill="none" stroke="#996677" stroke-width="0.5" stroke-miterlimit="10" x1="147.949" y1="0" x2="147.949" y2="400"/>
		<line fill="none" stroke="#996677" stroke-width="0.5" stroke-miterlimit="10" x1="129.395" y1="0" x2="129.395" y2="400"/>
		<line fill="none" stroke="#996677" stroke-width="0.5" stroke-miterlimit="10" x1="111.328" y1="0" x2="111.328" y2="400"/>
		<line fill="none" stroke="#996677" stroke-width="0.5" stroke-miterlimit="10" x1="92.773" y1="0" x2="92.773" y2="400"/>
		<line fill="none" stroke="#996677" stroke-width="0.5" stroke-miterlimit="10" x1="74.219" y1="0" x2="74.219" y2="400"/>
		<line fill="none" stroke="#996677" stroke-width="0.5" stroke-miterlimit="10" x1="55.664" y1="0" x2="55.664" y2="400"/>
		<line fill="none" stroke="#996677" stroke-width="0.5" stroke-miterlimit="10" x1="37.109" y1="0" x2="37.109" y2="400"/>
		<line fill="none" stroke="#996677" stroke-width="0.5" stroke-miterlimit="10" x1="18.555" y1="0" x2="18.555" y2="400"/>
	</g>
</g>
<path fill="#A1B8C3" d="M1188.254,471.621c0,0,224.042-28.449,362.025,53.66c0,0,180.433,107.111,449.056,1.54l0.665,82.907
	L1186.243,610L1188.254,471.621z"/>
<path id="plane" fill="#111122" d="M-229.799,176.076l-3.006-1.17l-0.045-4.554l-0.574-0.654l0.055,5.002
	c-2.238-0.479-10.534-0.155-10.534-0.155c-4.645-2.669-10.685-3.182-10.685-3.182c-9.351,0.913-16.262,5.558-16.262,5.558
	c-9.104,1.799-18.094-0.534-18.094-0.534l-9.166-9.136l-7.903,0.765l7.254,12.868c-1.771,0.495-4.318,1.342-4.318,1.342l5.148,0.534
	c10.942,1.677,27.956,1.554,39.65,1.197l0.009,0.376c-1.009,0.21-1.757,1.113-1.726,2.182c0.031,1.202,1.028,2.148,2.229,2.117
	c1.202-0.032,2.151-1.03,2.12-2.23c-0.026-1.018-0.748-1.845-1.695-2.059l0.027-0.417c7.07-0.229,11.971-0.53,11.971-0.53
	l0.364,1.219l4.22-0.778l-0.03-1.227l1.922-0.638l0.539,3.17c-0.74,0.312-1.253,1.049-1.23,1.899c0.03,1.11,0.951,1.984,2.063,1.956
	c1.105-0.029,1.982-0.951,1.951-2.059c-0.027-1.109-0.949-1.986-2.059-1.957c-0.068,0.001-0.132,0.017-0.198,0.025l-0.547-2.907
	l1.493,1.524l-1.18-1.927l0.896-0.297c0.666-0.129,2.34-1.261,3.846-2.361l0.092,3.596l0.699,1.099l-0.221-5.115
	c1.258-0.937,2.275-1.748,2.275-1.748C-229.57,176.406-229.799,176.076-229.799,176.076"/>
<path fill="#111122" d="M1017.856,470.891c87.908,11.164-205.285-39.613-362.025,53.66c0,0-167.34,104.269-435.963-1.304v86.021h800
	L1017.856,470.891z"/>
<path fill="#A1B8C3" d="M-327.347,470.894c-87.908,11.164,205.285-39.613,362.025,53.66c-0.711-0.443,168.052,103.989,435.963-1.304
	v86.021h-800L-327.347,470.894z"/>
<path id="skyline" fill="#111122" d="M1753.296,402.003l597.253,0.269l-1.197-59.039h-5.312v-11.422h-10.076v5.347l-2.215,2.336
	v11.217h-11.699v4.048h-4.82v-13.291h-9.734v-11.424h-14.26v22.222h-8.557v19.214l-2.26,2.388h-2.359v-17.032h-10.031v2.181h-2.754
	v3.426h-2.652v4.154h-3.246v-11.526h-9.637v3.426h-3.936v2.701h-1.473v7.892h-4.426v-1.972h-3.148v-1.246h-13.275v2.698h-4.619
	l-1.574,1.665v6.541h-3.148v3.633h-8.16v-6.333h-1.967v-16.511h-18.092v29.285h-2.314v-13.655l-2.504-2.649h-4.82v2.179h-4.131
	v1.871h-1.08v4.776h-6.49l-2.066,2.182h-3.344V368.57l-1.963-2.077l-2.561,2.701h-1.965v9.347h-16.031v-10.593h-3.342v-2.18h-3.246
	v2.387h-2.557v13.398h-1.768v2.596h-5.164v-4.206l-4.57-4.829v-7.581h-0.768v-0.444h-0.496l-0.398,0.444h-0.801l-0.785-0.831h-0.52
	v1.22h-0.588v7.599l-4.355,4.84v4.214h-4.922v-2.602h-1.686v-13.427h-2.438v-2.394h-3.092v2.185h-3.186v10.618h-15.275v-9.369
	h-1.875l-2.436-2.705l-1.875,2.081v13.011h-3.186l-1.969-2.186h-6.184V375h-1.029v-1.875h-3.939v-2.185h-4.59l-2.389,2.654v13.686
	h-2.203v-29.35h-17.242v16.55h-1.873v6.348h-7.777v-3.641h-3v-6.558l-1.498-1.667h-4.404v-2.704H2000h-3.424v1.249h-3v1.977h-4.217
	v-7.91h-1.404v-2.707h-3.75v-3.434h-9.184v11.553h-3.092v-4.164h-2.529v-3.433h-2.625v-2.187h-9.559v17.07h-2.25l-2.154-2.392
	v-19.257h-8.152v-22.273h-13.588v11.45h-9.277v13.32h-4.59v-4.058h-11.152V339.82l-2.108-2.341v-5.359h-9.603v7.906h-2.768v-12.221
	h-11.355v5.721l-2.492,2.5v12h-13.183v4.332h-5.428v-14.22h-10.969v-12.223h-16.063v23.776h-9.639v20.558l-2.549,2.555h-2.658
	V354.58h-11.301v2.334h-3.101v3.667h-2.991v4.444h-3.656v-12.333h-10.857v3.666h-4.432v2.889h-1.662v8.444h-4.984v-2.109h-3.545
	v-1.333h-14.957v2.886h-3.163l-0.476-23.433h-5.314V332.28h-10.076v5.347l-2.213,2.336v11.217h-11.701v4.048h-4.818v-13.29h-9.734
	v-11.424h-14.262v22.222h-8.555v19.215l-2.262,2.388h-2.357v-17.032h-10.031v2.182h-2.754v3.426h-2.654v4.154h-3.246V355.54h-9.637
	v3.426h-3.934v2.701h-1.475v7.893h-4.424v-1.973h-3.148v-1.246h-13.275v2.698h-4.621l-1.572,1.665v6.541h-3.148v3.633h-8.16v-6.334
	h-1.969v-16.511h-18.092v29.284h-2.314v-13.654l-2.504-2.649h-4.818v2.179h-4.13v1.871h-1.082v4.775h-6.49l-2.066,2.183h-3.344
	v-12.982l-1.963-2.077l-2.56,2.701h-1.966v9.346h-16.03v-10.593h-3.343v-2.18h-3.246v2.388h-2.556v13.397h-1.769v2.596h-5.164
	v-4.206l-4.57-4.828v-7.581h-0.767v-0.444h-0.496l-0.399,0.444h-0.801l-0.785-0.831h-0.519v1.22h-0.588v7.599l-4.356,4.84v4.215
	h-4.921v-2.602h-1.686v-13.428h-2.438v-2.393h-3.093v2.184h-3.186v10.618h-15.275v-9.369h-1.874l-2.436-2.705l-1.875,2.081v13.012
	h-3.186l-1.969-2.187h-6.185v-4.787h-1.029v-1.874h-3.938v-2.186h-4.591l-2.389,2.654v13.686h-2.202v-29.35h-17.242v16.55h-1.874
	v6.348h-7.777v-3.642h-3v-6.557l-1.497-1.668h-4.405v-2.704h-12.65v1.249h-2.999v1.977h-4.218v-7.91h-1.404v-2.707h-3.749v-3.434
	h-9.184v11.553h-3.092v-4.164h-2.53v-3.433h-2.624v-2.187h-9.559v17.069h-2.25l-2.154-2.392v-19.258h-8.152v-22.273h-13.588v11.45
	h-9.277v13.32h-4.591v-4.058h-11.152v-11.242l-2.108-2.341v-5.359h-9.603v7.906h-2.768v-12.221h-11.354v5.721l-2.493,2.5v12h-13.183
	v4.332h-5.428v-14.22h-10.969v-12.224h-16.064v23.776h-9.639v20.559l-2.548,2.555H1220v-18.224h-11.301v2.334h-3.101v3.667h-2.992
	v4.443h-3.656v-12.332h-10.857v3.666h-4.431v2.889h-1.663v8.443h-4.984v-2.109h-3.545v-1.332h-14.956v2.886h-5.207l-1.773,1.78
	v6.999h-3.544v3.89h-9.195v-6.778h-2.216v-17.667h-20.384v31.332h-2.604V372.55l-2.826-2.833h-5.428v2.331h-4.654v2h-1.219v5.113
	h-7.312l-2.327,2.333h-3.767v-13.891l-2.216-2.222l-2.88,2.889h-2.216v10h-18.058v-11.333h-3.767v-2.333h-3.655v2.555h-2.88v14.335
	h-1.995v2.776h-5.816v-4.5l-5.151-5.165v-8.113h-2.77l-0.887-0.888h-2.659l-1.44,1.445h-2.438v1.742
	c-4.281-66.975-3.363-84.167-3.363-84.167c3.709,0.142,6.278-4.056,6.278-4.056l0.096-3.198l0.333-0.38l0.237-6.489l-2.474-2.337
	l-0.143-2.243l-3.568-2.768l-0.047-2.576c-0.094-0.333-0.999-0.667-0.999-0.667l-0.286-21.898c3.092-2.719-0.428-5.105-0.428-5.105
	l-0.094-14.646l-0.428-0.669v-5.534l-0.365-0.333l-0.126-15.523c-0.635-2.161-1.015,0.129-1.015,0.129l-0.127,15.267l-0.379,0.508
	l-0.128,5.47l-0.506,0.892l-0.127,14.377c-3.552,2.035-0.634,4.961-0.634,4.961v22.009c-0.762,0-1.142,0.637-1.142,0.637v2.544
	l-3.806,3.054v2.162l-2.537,2.036l0.253,6.488l0.38,0.51v3.18c0.634,2.545,6.343,4.452,6.343,4.452
	c0.76,2.164,0.127,14.506,0,26.973c-0.079,7.695-2.138,37.432-3.702,59.078c-22.567-5.598-40.34,8.786-40.34,8.786v-5.776h-11.41
	v10.887h-1.218v-17.998h-3.846l0.311-22.866h-5.313V332.54h-10.076v5.347l-2.214,2.336v11.217h-11.7v4.048h-4.819v-13.291h-9.734
	v-11.424h-14.261v22.222h-8.556v19.214l-2.261,2.388h-2.358v-17.032h-10.031v2.181h-2.754v3.426h-2.653v4.154h-3.246V355.8h-9.637
	v3.426h-3.935v2.701h-1.474v7.892h-4.425v-1.972h-3.148v-1.246h-13.275v2.698h-4.62l-1.573,1.665v6.541h-3.148v3.633h-8.16v-6.333
	h-1.968v-16.511h-18.092v29.285h-2.314v-13.655l-2.504-2.649h-4.819v2.179h-4.131v1.871h-1.081v4.776h-6.49l-2.066,2.182h-3.344
	v-12.982l-1.963-2.077l-2.56,2.701h-1.966v9.347h-16.03v-10.593h-3.343v-2.18h-3.246v2.387h-2.556v13.398h-1.769v2.596h-5.164
	v-4.206l-4.57-4.829v-7.581h-0.767v-0.444h-0.496l-0.399,0.444h-0.801l-0.785-0.831h-0.519v1.22h-0.588v7.599l-4.356,4.84v4.214
	h-4.921v-2.602h-1.686v-13.427h-2.438v-2.394h-3.093v2.185h-3.186v10.618h-15.275v-9.369h-1.874l-2.436-2.705l-1.875,2.081v13.011
	h-3.186l-1.969-2.186h-6.185v-4.787h-1.029v-1.875h-3.938v-2.185h-4.591l-2.389,2.654v13.686h-2.202v-29.35h-17.242v16.55h-1.874
	v6.348h-7.777v-3.641h-3v-6.558l-1.497-1.667H618.1v-2.704h-12.65v1.249h-2.999v1.977h-4.218v-7.91h-1.404v-2.707h-3.749v-3.434
	h-3.465l-0.262-12.928h-5.313v-11.422h-10.076v5.347l-2.214,2.336v11.217h-11.7v2.64h-4.819v-11.882h-1.695v-10.391h-8.04v-1.033
	h-14.261v12.482h-0.565v9.739h-4.591v-0.477h-11.152v-11.241l-2.107-2.341v-5.359h-9.604v7.906h-2.768v-12.221h-11.354v5.721
	l-2.493,2.5v12h-13.182v4.332h-5.428v-14.22h-10.969v-12.223h-16.064v23.776h-9.639v7.146h-5.206v-2.256h-11.302v2.334h-3.1v3.667
	h-2.992v4.444h-3.656V353.42h-10.857v3.666h-4.431v2.889h-1.663v8.444h-4.984v-2.109h-3.545v-1.333h-14.956v2.886h-5.206
	l-1.773,1.78v7h-0.196l-1.447-1.528v-7.581h-0.767v-0.444h-0.496l-0.399,0.444h-0.801l-0.785-0.831h-0.519v1.22h-0.588v7.599
	l-4.356,4.84v0.171h-2.386v-6.778h-2.215v-17.667h-10.676l0.394,12.25h-0.439v10.618h-15.275v-9.369h-1.874l-2.436-2.705
	l-1.875,2.081v13.011h-3.186l-1.969-2.186h-6.185V375h-1.029v-1.875h-3.938v-2.185h-4.591l-2.389,2.654v13.686h-2.202v-29.35H267.78
	v16.55h-1.874v6.348h-7.777v-3.641h-3v-6.558l-1.497-1.667h-4.405v-2.704h-12.65v1.249h-2.999v1.977h-4.218v-7.91h-1.404v-2.707
	h-3.749v-3.434h-9.184v11.553h-3.092v-4.164h-2.53v-3.433h-2.624v-2.187h-9.559v17.07h-2.25l-2.154-2.392v-19.257h-8.152v-22.273
	h-13.588v11.45h-9.277v13.32h-4.591v-4.058h-11.152V339.82l-2.108-2.341v-5.359h-9.603v7.906h-2.768v-12.221h-11.354v5.721
	l-2.493,2.5v12h-13.183v4.332h-5.428v-14.22H88.147v-12.223H72.083v23.776h-9.639v20.558l-2.548,2.555h-2.658V354.58H45.938v2.334
	h-3.101v3.667h-2.992v4.444h-3.656v-12.333H25.332v3.666h-4.431v2.889h-1.663v8.444h-4.984v-2.109h-3.545v-1.333H-4.248v2.886
	h-5.207l-1.773,1.78v7h-3.544v3.889h-9.195v-6.778h-2.216v-17.667h-10.676l1.5,46.632l368.855,0.166l0.018,0.562L957.423,403
	l0.008-0.618l795.879,0.358L1753.296,402.003z"/>
</svg>
