<svg version="1.1" class="skills-big" id="Layer_1" xmlns="http://www.w3.org/2000/svg" xmlns:xlink="http://www.w3.org/1999/xlink" x="0px" y="0px"
	 width="80px" height="80px" viewBox="0 0 80 80" enable-background="new 0 0 80 80" xml:space="preserve">
<circle fill="#FFFFFF" stroke="#000000" stroke-miterlimit="10" cx="39.667" cy="39.999" r="37.5"/>
<circle fill="#FFFFFF" stroke="#000000" stroke-miterlimit="10" cx="39.667" cy="39.999" r="37.5"/>
<g id="AX7zUB.tif">
	<g>
		<g>
			<path fill="#FDFDFD" d="M33.097,67.85c-5.336,0-10.672-0.01-16.008,0.018c-0.552,0.002-0.664-0.113-0.663-0.664
				c0.018-18.014,0.018-36.026,0-54.039c0-0.551,0.111-0.663,0.663-0.663c15.237,0.019,30.474,0.019,45.71,0
				c0.553,0,0.664,0.111,0.664,0.663c-0.02,18.013-0.02,36.025,0,54.039c0,0.551-0.111,0.664-0.664,0.664
				c-9.777-0.021-19.555-0.018-29.332-0.018c0.616-1.295,1.663-2.289,2.425-3.482c0.9-1.021,1.892-1.967,2.675-3.09
				c0.056-0.057,0.113-0.115,0.17-0.174c0.186-0.068,0.313-0.195,0.377-0.383c0.059-0.057,0.117-0.117,0.177-0.176
				c0.062-0.061,0.125-0.121,0.188-0.182c0.062-0.062,0.123-0.125,0.186-0.186c0.586-0.266,0.968-0.762,1.385-1.217
				c2.146-1.73,4.264-3.506,6.641-4.922c1.152-0.686,2.221-1.537,3.543-1.908c1.367,1.58,3.1,2.795,4.398,4.445
				c0.08,0.102,0.271,0.115,0.41,0.172c0.014,0.264,0.131,0.34,0.324,0.145c0.396-0.396,0.654-0.881,0.816-1.414
				c1.432-2.049,2.494-4.271,3.143-6.688c0.48-0.107,0.418-0.555,0.518-0.875c0.209-0.666,0.289-1.381,0.559-2.018
				c0.668-1.566,0.793-3.221,0.936-4.881c0.066-1.295,0.568-2.569,0.201-3.889c0.027-1.362-0.016-2.721-0.219-4.071
				c0.02-0.158-0.012-0.298-0.141-0.404c-0.016-0.174-0.031-0.348-0.047-0.522c0.006-0.263,0.094-0.542-0.156-0.752
				c-0.047-0.865-0.148-1.754-0.732-2.411c-1.055-1.188-2.146-2.354-3.408-3.332c-1.08-0.837-2.088-1.793-3.414-2.264
				c-0.023-0.33-0.023-0.665-0.082-0.99c-0.09-0.512,0.176-1.107-0.336-1.525c0.121-0.783-0.094-1.511-0.365-2.229
				c0.027-0.055,0.08-0.114,0.072-0.162c-0.332-1.964-1.213-3.719-2.1-5.471c-0.178-0.352-0.391-0.19-0.582-0.023
				c-0.719,0.625-1.475,1.213-2.133,1.896c-2.496,2.585-4.277,5.58-5.047,9.127c-0.404,1.183-0.354,2.441-0.594,3.652
				c-0.295-0.061-0.234-0.445-0.492-0.541c-0.703-1.354-1.758-2.397-2.886-3.401c-1.385-1.232-3.126-1.739-4.742-2.505
				c-1.052-0.495-2.164-0.754-3.317-0.852c-0.134-0.009-0.267-0.018-0.401-0.027c-0.393-0.28-0.839-0.202-1.274-0.188
				c-0.128-0.007-0.256-0.014-0.383-0.021c-0.339-0.228-0.718-0.187-1.095-0.16c-2.112-0.197-4.211-0.483-6.277-0.978l-0.006,0.001
				c-0.093-0.146-0.234-0.167-0.391-0.148c-0.039-0.035-0.085-0.048-0.136-0.04c-0.1-0.148-0.246-0.182-0.412-0.171
				c-0.366-0.185-0.732-0.369-1.099-0.554c-0.306-0.326-0.529-0.335-0.524,0.179c0.008,0.816,0.099,1.625,0.328,2.413
				c0.318,2.084,1.003,4.049,1.932,5.935c0.288,0.59,0.429,1.269,1.004,1.688l-0.002-0.025c-0.056,0.202,0.038,0.336,0.198,0.441
				c0.26,0.406,0.521,0.812,0.78,1.218c-0.001,0.225,0.168,0.303,0.333,0.385l-0.005-0.004c0.142,0.395,0.394,0.701,0.743,0.929
				l-0.003-0.002c1.116,1.505,2.495,2.723,4.07,3.727c0.364,0.236,0.613,0.646,1.087,0.718c1.794,1.255,3.761,2.16,5.819,2.884
				c2.102,0.739,4.293,1.08,6.472,1.487c-2.227,0.713-4.339,1.652-6.18,3.128c-0.62,0.336-1.194,0.732-1.653,1.277
				c-0.563,0.387-1.089,0.812-1.463,1.395c-0.375,0.043-0.734,0.1-0.371-0.471c0.225-0.352,0.382-0.748,0.571-1.123
				c0.099-0.17,0.198-0.34,0.297-0.51c0.423-0.637,0.816-1.297,1.275-1.908c1.285-1.702,1.159-1.753-0.831-2.346
				c-3.783-1.128-7.667-1.027-11.554-0.848c-0.442,0.021-0.65,0.29-0.86,0.6c-3.873,5.711-5.442,11.985-4.565,18.844
				c0.049,0.381,0.07,0.797,0.418,1.092c3.042,2.594,6.426,4.633,10.07,6.254c0.087,0.131,0.198,0.221,0.364,0.223
				c0.582-0.1,0.345-0.572,0.344-0.869c-0.009-2.025,0.051-4.047,0.338-6.051c0.031-0.219-0.218-0.773,0.425-0.646
				c0.042,0.447,0.116,0.887,0.339,1.285c0.833,2.619,1.962,5.113,3.197,7.561c0.046,0.072,0.092,0.145,0.138,0.217l0.007,0.018
				c0.074,0.109,0.148,0.217,0.222,0.326C33.1,67.604,33.098,67.729,33.097,67.85z"/>
			<path fill-rule="evenodd" clip-rule="evenodd" fill="#5CADCE" d="M33.097,67.85c0.001-0.121,0.003-0.246,0.004-0.369
				c0.142-0.084,0.187-0.215,0.185-0.369l-0.005,0.004c0.064-0.064,0.128-0.129,0.192-0.193l-0.007,0.01
				c0.15-0.082,0.195-0.219,0.19-0.379l-0.005,0.006c0.064-0.062,0.127-0.127,0.191-0.189l-0.005,0.006
				c0.159-0.078,0.2-0.213,0.189-0.377l-0.005,0.006c0.063-0.062,0.126-0.127,0.19-0.189l-0.005,0.004
				c0.063-0.062,0.127-0.127,0.191-0.189l-0.007,0.006c0.064-0.064,0.129-0.129,0.193-0.193l-0.007,0.01
				c0.147-0.084,0.196-0.217,0.189-0.377l-0.004,0.004c0.063-0.062,0.126-0.127,0.19-0.189l-0.004,0.004
				c0.164-0.072,0.21-0.207,0.188-0.373l-0.002,0.004c0.287,0.027,0.427-0.168,0.561-0.371c0.066,0.07,0.131,0.143,0.197,0.215
				c-0.763,1.193-1.81,2.188-2.425,3.482C33.344,67.85,33.22,67.85,33.097,67.85z"/>
			<path fill-rule="evenodd" clip-rule="evenodd" fill="#138EC1" d="M27.729,65.418c-3.645-1.621-7.028-3.66-10.07-6.254
				c-0.348-0.295-0.369-0.711-0.418-1.092c-0.877-6.859,0.692-13.133,4.565-18.844c0.21-0.31,0.417-0.579,0.86-0.6
				c3.887-0.179,7.771-0.28,11.554,0.848c1.99,0.593,2.116,0.645,0.831,2.346c-0.459,0.611-0.853,1.271-1.275,1.908
				c-0.047-0.045-0.093-0.092-0.14-0.137c0.025-0.162,0.05-0.324,0.075-0.486c0.189-0.145,0.318-0.326,0.364-0.564
				c0.184-0.146,0.321-0.324,0.362-0.564c0.125-0.104,0.179-0.234,0.151-0.398c0.061-0.061,0.123-0.123,0.185-0.184
				c0.133-0.178,0.266-0.355,0.399-0.534c0.084-0.073,0.198-0.194,0.09-0.263c-0.135-0.085-0.131,0.107-0.183,0.185
				c-0.34,0.07-0.346,0.325-0.324,0.592c-0.062,0.062-0.123,0.123-0.185,0.186c-0.081,0.109-0.16,0.217-0.241,0.326
				c-0.279,0.078-0.316,0.322-0.378,0.549c-0.262,0.094-0.31,0.33-0.364,0.559c-0.104,0.078-0.209,0.156-0.314,0.232
				c-0.173-0.055-0.343-0.121-0.52-0.166c-1.003-0.25-2.016-0.723-3.009-0.688c-1.207,0.045-2.292,0.766-3.334,1.404
				c-0.173,0.107-0.156,0.318,0.044,0.453c-0.269,0.299-0.624,0.174-0.944,0.172c-1.279-0.008-2.559-0.008-3.836-0.062
				c-0.637-0.027-0.629,0.441-0.764,0.82c-0.133,0.377-0.184,0.727,0.355,0.816c0.035,0.346-0.134,0.535-0.424,0.721
				c-0.532,0.34-1.019,0.752-1.535,1.119c-0.239,0.17-0.434,0.375-0.389,0.666c0.051,0.332,0.272,0.533,0.644,0.494
				c-0.185,0.775-0.389,1.547-0.551,2.326c-0.359,1.73,0.134,2.824,1.691,3.676c1.102,0.604,2.232,1.156,3.35,1.73
				c-0.399,0.553-0.129,1.34,0.638,1.838c0.634,0.412,1.376,0.498,2.086,0.68c0.405,0.105,0.859,0.338,0.978-0.371
				c0.032-0.189,0.123-0.027,0.142,0.033c0.027,0.086,0.021,0.182,0.03,0.273C27.762,61.246,27.668,63.33,27.729,65.418z"/>
			<path fill-rule="evenodd" clip-rule="evenodd" fill="#D5EDF8" d="M62.338,41.018c-0.143,1.66-0.268,3.314-0.936,4.881
				c-0.27,0.637-0.35,1.352-0.559,2.018c-0.1,0.32-0.037,0.768-0.518,0.875c-0.541,0.084-0.459,0.568-0.574,0.914
				c-0.266,0.799-0.479,1.621-1.117,2.23c-0.035-0.32,0.125-0.586,0.24-0.867c0.412-1.008,0.51-1.365-0.719-1.561
				c-0.184-0.029-0.23-0.176-0.254-0.332c0.354-0.311,0.143-0.41-0.174-0.469l0.008-0.066c-0.926-1.482-2.178-2.635-3.623-3.594
				c-0.377-0.646-1.129-0.889-1.576-1.461c0.172-0.441,0.076-0.77-0.291-1.113c-1.02-0.963-2.01-1.958-2.979-2.973
				c-0.367-0.387-0.77-0.571-1.285-0.555c0.244-0.291,0.49-0.582,0.736-0.872c1.139-1.085,2.029-2.359,2.877-3.676
				c0.891-1.389,1.309-2.97,1.912-4.476c0.168,0.025,0.5-0.013,0.418,0.203c-0.277,0.725,0.289,1.001,0.654,1.369
				c2.033,2.052,4.08,4.089,6.123,6.131c0.152,0.152,0.295,0.32,0.465,0.446c0.338,0.249,0.607,0.195,0.604-0.268
				c-0.012-1.134,0.117-2.274-0.07-3.401c-0.271-1.624-0.568-3.242-0.854-4.863c0.342,0.143,0.33,0.467,0.426,0.757
				c0.727,2.223,0.863,4.535,1.061,6.837c-0.059,0.981-0.133,1.962-0.172,2.944C62.15,40.392,62.039,40.75,62.338,41.018z"/>
			<path fill-rule="evenodd" clip-rule="evenodd" fill="#67B7DA" d="M32.735,66.92c-1.234-2.447-2.364-4.941-3.197-7.561
				c0.721-0.979,1.411-1.984,2.175-2.93c0.379-0.471,0.68-0.963,0.793-1.535c0.458-2.322,1.255-4.537,2.014-6.77
				c0.408-1.197,1.26-2.391,0.221-3.686c0.458-0.545,1.033-0.941,1.653-1.277c0.153,0.896,0.609,1.191,1.505,0.861
				c0.569-0.209,1.187-0.295,1.787-0.414c2.186-0.434,4.375-0.857,6.561-1.285c0.393,1.145,0.027,2.367,0.361,3.52
				c-2.814-0.16-5.551,0.383-8.284,0.932c-0.317,0.062-0.577,0.229-0.693,0.547c-0.276,0.748-0.672,1.482-0.783,2.256
				c-0.173,1.215-0.74,2.193-1.465,3.113c-1.029,1.303-2.346,2.359-3.075,3.922c-0.869,1.865-1.024,2.947,0.284,4.348
				c0.208,0.225,0.356,0.506,0.578,0.711c0.774,0.721,1.067,1.891,2.165,2.305c-0.067,0.182-0.135,0.363-0.202,0.547l0.002-0.004
				c-0.164,0.074-0.199,0.213-0.188,0.373l0.004-0.004c-0.064,0.062-0.127,0.127-0.19,0.189l0.004-0.004
				c-0.171,0.072-0.199,0.215-0.189,0.377l0.007-0.01c-0.064,0.064-0.129,0.129-0.193,0.193l0.007-0.006
				c-0.063,0.062-0.127,0.127-0.191,0.189l0.005-0.004c-0.063,0.062-0.126,0.127-0.19,0.189l0.005-0.006
				c-0.16,0.076-0.196,0.217-0.189,0.377l0.005-0.006c-0.064,0.062-0.127,0.127-0.191,0.189l0.005-0.006
				c-0.166,0.076-0.195,0.219-0.19,0.379l0.007-0.01c-0.064,0.064-0.128,0.129-0.192,0.193l0.005-0.004
				c-0.136,0.014-0.271,0.027-0.407,0.043c0,0-0.007-0.018-0.007-0.02C32.827,67.064,32.781,66.992,32.735,66.92z"/>
			<path fill-rule="evenodd" clip-rule="evenodd" fill="#5CADCE" d="M34.742,44.439c1.039,1.295,0.188,2.488-0.221,3.686
				c-0.759,2.232-1.557,4.447-2.014,6.77c-0.113,0.572-0.414,1.064-0.793,1.535c-0.764,0.945-1.454,1.951-2.175,2.93
				c-0.223-0.398-0.297-0.838-0.339-1.283c-0.369-1.5,0.326-2.865,0.549-4.291c0.444-1.551,0.868-3.109,1.478-4.609
				c0.317-0.783,0.803-1.523,0.758-2.424c0.591-0.08,0.956-0.48,1.294-0.918C33.653,45.252,34.179,44.826,34.742,44.439z"/>
			<path fill-rule="evenodd" clip-rule="evenodd" fill="#558F13" d="M42.574,40.034c-2.178-0.407-4.37-0.748-6.472-1.487
				c-2.058-0.724-4.025-1.629-5.819-2.884c0.161-0.066,0.218-0.196,0.224-0.358c0.179,0.01,0.357,0.021,0.537,0.03
				c0.469,0.768,1.29,0.857,2.051,1.063l-0.001-0.001c0.553,0.907,1.553,0.848,2.403,1.111c0.062,0.062,0.124,0.124,0.185,0.186
				c0.705,0.67,1.653,0.562,2.5,0.792c-0.62-0.479-1.299-0.789-2.091-0.804c-0.148-0.204-0.365-0.194-0.581-0.189
				c-0.292-0.628-0.962-0.657-1.478-0.929c0.028-0.899-0.81-0.875-1.363-1.194c0.979,0.018,1.874-0.291,2.779-0.255
				c0.879,0.035,1.281-0.184,0.981-1.112c-0.124-0.231-0.347-0.19-0.551-0.198c-0.158-0.595-0.675-0.829-1.13-1.125
				c-0.167-0.318-0.412-0.558-0.727-0.728c0.351-0.874,1.232-0.446,1.822-0.737c0.216-0.107,0.657,0.15,0.66-0.256
				c0.001-0.315-0.344-0.482-0.687-0.481c-0.366,0.001-0.732-0.039-1.093,0.096c-0.271,0.101-0.563,0.167-0.831-0.123
				c0.26-0.218,0.513-0.15,0.747-0.166c0.214-0.014,0.491,0.012,0.541-0.239c0.053-0.266-0.259-0.399-0.421-0.386
				c-0.557,0.046-0.673-0.563-1.106-0.671c0.155-0.358,0.359-0.747,0.81-0.489c1.113,0.641,2.318,1.126,3.319,1.956
				c0.197,0.163,0.406,0.389,0.256,0.63c-0.323,0.519,0.16,0.758,0.341,1.031c-0.158,0.339-0.522,0.055-0.647,0.344
				c0.461,0.155,1.007-0.14,1.411,0.274c0.145,0.148,0.395,0.272,0.33,0.511c-0.074,0.279-0.357,0.158-0.555,0.184
				c-0.525,0.069-1.103-0.157-1.734,0.372c0.59,0,1.009-0.008,1.426,0.003c0.198,0.006,0.489-0.075,0.511,0.233
				c0.015,0.208-0.111,0.419-0.353,0.489c-0.55,0.16-1.102,0.314-1.667,0.475c0.037,0.124,0.049,0.218,0.091,0.295
				c0.48,0.883,0.481,0.875-0.57,0.924c-0.215,0.009-0.5-0.125-0.653,0.234c0.529,0.25,1.008-0.161,1.517-0.08
				c0.406,0.065,0.663,0.274,0.69,0.623c0.042,0.542-0.432,0.243-0.675,0.322c-0.106,0.034-0.223,0.032-0.423,0.058
				c0.576,0.527,1.768-0.005,1.78,1.184c-0.058,0.066-0.132,0.153-0.008,0.201c0.158,0.061,0.286-0.019,0.373-0.16
				c2.045,0.397,4.086,0.821,6.063,1.501C44.381,40.079,43.477,40.056,42.574,40.034z"/>
			<path fill-rule="evenodd" clip-rule="evenodd" fill="#7FC9E8" d="M51.234,52.131c-1.322,0.371-2.391,1.223-3.543,1.908
				c-2.377,1.416-4.494,3.191-6.641,4.922c-0.062-0.061-0.123-0.119-0.184-0.18c0.072-0.121,0.145-0.242,0.215-0.363
				c0.055-0.053,0.109-0.105,0.162-0.158c0.062-0.072,0.125-0.143,0.186-0.213v0.002c1.912-1.418,3.826-2.838,5.738-4.258v0.002
				c0.232-0.014,0.369-0.125,0.371-0.371h-0.004c0.467,0.004,0.852-0.15,1.113-0.557l-0.004,0.002
				c0.158-0.006,0.295-0.049,0.387-0.189c0.629-0.213,1.049-0.309,0.402-1.158c-0.568-0.746-0.955-0.777-1.637-0.369
				c-0.287,0.172-0.604,0.324-0.926,0.391c-0.619,0.129-0.896-0.076-0.787-0.793c0.104-0.691,0.734-0.891,1.055-1.367
				c0.055-0.074,0.109-0.146,0.162-0.219c0.039-0.047,0.059-0.1,0.057-0.16c0.33,0.072,0.443-0.191,0.598-0.389
				c0.484-0.037,0.18-0.559,0.438-0.75c0.316,0.652,0.5,0.717,0.973,0.281c0.586-0.541,0.963-1.238,1.312-1.945
				c0.184-0.002,0.369-0.004,0.553-0.006c0.912-0.41,1.695-0.375,2.207,0.631c0.053,0.104,0.193,0.162,0.25,0.264
				c0.434,0.783,1.279,1.305,1.424,2.27c-0.582,0.418-1.398,0.447-1.836,1.104l-0.002-0.002c-0.623-0.01-1.197,0.076-1.482,0.742
				l0.002-0.002c-0.158-0.006-0.301,0.021-0.373,0.188l0.002-0.002c-0.156-0.008-0.301,0.018-0.371,0.186h0.002
				c-0.158-0.01-0.299,0.018-0.385,0.17c-0.08,0.027-0.162,0.053-0.242,0.08c0.016,0.023,0.045,0.068,0.047,0.066
				c0.072-0.039,0.141-0.084,0.211-0.129c0.062,0,0.125,0.002,0.189,0.004c0.078,0.154,0.227,0.17,0.375,0.184
				C51.242,52.008,51.238,52.07,51.234,52.131z"/>
			<path fill-rule="evenodd" clip-rule="evenodd" fill="#558F13" d="M42.764,27.106c0.258,0.096,0.197,0.48,0.492,0.541
				c0.416,0.936,0.633,1.909,0.582,2.94c-0.045,0.891,0.803,1.336,1.086,2.072c0.043,0.11,0.322,0.17,0.496,0.181
				c0.701,0.044,0.154-1.081,0.768-0.934c0.525,0.126,0.887,0.435,1.285-0.232c0.277-0.465,0.764-0.805,1.158-1.2
				c-0.043,0.367-0.25,0.71-0.15,1.097c-0.125,0.553-0.25,1.106-0.375,1.66c-0.119,0.312-0.238,0.625-0.359,0.938
				c-0.15,0.05-0.158,0.117-0.021,0.199c-0.004,0.119-0.006,0.237-0.008,0.356c-0.492,0.436-0.854,1.076-1.646,1.046
				c-0.039-0.002-0.09,0.08-0.119,0.13c-0.156,0.256-0.119,0.765-0.637,0.563c-0.447-0.173-0.885-0.341-0.965-0.97
				c-0.107-0.872-0.307-1.736-0.531-2.587c-0.18-0.678-0.236-1.416-0.725-2.054c-0.098,0.145-0.174,0.21-0.186,0.286
				c-0.123,0.789-0.4,1.063-1.111,0.436c-0.184-0.162-0.512-0.564-0.775-0.264c-0.276,0.312,0.275,0.454,0.354,0.725
				c0.027,0.088,0.045,0.178,0.066,0.266l-0.031,0.032c-0.441-0.076-0.671-0.417-0.922-0.733c0.315-0.747-0.434-0.67-0.729-0.945
				c-0.249-0.424-0.735-0.5-1.104-0.748c-0.614-0.377-1.228-0.754-1.841-1.132c0.302-0.446,0.597-0.828,0.986-0.059
				c0.127,0.253,0.395,0.418,0.674,0.357c0.269-0.059,0.14-0.355,0.189-0.546c0.119-0.464,0.238-0.929,0.357-1.394
				c0.058,0.007,0.116,0.012,0.173,0.016c0.065,0.262-0.113,0.781,0.363,0.665c0.515-0.125,0.729,0.146,1.023,0.407
				c0.266,0.236,0.434,0.18,0.475-0.193c0.023-0.201-0.071-0.435,0.199-0.64c0.73,1.345,0.699-0.221,1.1-0.282
				C42.49,27.107,42.627,27.106,42.764,27.106z"/>
			<path fill-rule="evenodd" clip-rule="evenodd" fill="#B3E0F3" d="M51.234,52.131c0.004-0.061,0.008-0.123,0.014-0.186
				c1.143-0.496,2.285-0.998,3.357-1.641c1.1-0.377,2.197-0.754,3.297-1.129c0.023,0.156,0.07,0.303,0.254,0.332
				c1.229,0.195,1.131,0.553,0.719,1.561c-0.115,0.281-0.275,0.547-0.24,0.867l0.002-0.002c-0.223,0.133-0.184,0.354-0.188,0.559
				l0.004-0.004c-0.605,0.229-0.68,0.762-0.744,1.299l0.002-0.004c-0.15,0.08-0.184,0.221-0.186,0.375l0.002-0.004
				c-0.152,0.08-0.186,0.219-0.188,0.373l0.002-0.004c-0.152,0.08-0.186,0.221-0.188,0.375l0.002-0.004
				c-0.518,0.109-0.529,0.525-0.559,0.93l0.004-0.004c-0.373,0.02-0.373,0.289-0.373,0.559l0.004-0.004
				c-0.154,0.078-0.186,0.219-0.189,0.375v-0.002c-0.139-0.057-0.33-0.07-0.41-0.172C54.334,54.926,52.602,53.711,51.234,52.131z"/>
			<path fill-rule="evenodd" clip-rule="evenodd" fill="#97D14A" d="M31.818,20.348c1.153,0.098,2.265,0.357,3.317,0.852
				c-0.435,0.248-0.579,0.468,0.033,0.677c0.942,0.321,1.912,0.586,2.728,1.196c-0.507,0.281-0.832,0.964-1.66,0.595
				c0.091,0.247,0.115,0.368,0.176,0.466c0.216,0.347,0.186,0.66-0.183,0.844c-0.43,0.215-0.479-0.215-0.639-0.444
				c-0.154-0.221-0.162-0.573-0.605-0.665c0.19,0.587,0.354,1.095,0.519,1.604c-0.573,0.192-0.959-0.514-1.533-0.318
				c-0.294-0.058-0.338-0.335-0.451-0.539c-1.453-2.635-4.587-3.403-7.077-1.728c-0.609-0.372-1.106-0.995-0.715-1.578
				c0.244-0.363,0.132-0.564,0.144-0.847c1.874-0.057,3.715,0.271,5.563,0.489C32.144,21.037,32.02,20.756,31.818,20.348z
				 M34.11,21.392c0.051-0.027,0.101-0.052,0.15-0.078c-0.047-0.029-0.094-0.078-0.142-0.08c-0.049-0.002-0.099,0.043-0.149,0.068
				C34.015,21.332,34.062,21.361,34.11,21.392z"/>
			<path fill-rule="evenodd" clip-rule="evenodd" fill="#5CADCE" d="M42.574,40.034c0.902,0.022,1.807,0.045,2.711,0.067
				c0.193,0.028,0.385,0.057,0.578,0.085c0.129,0.713,0.258,1.425,0.387,2.138c-2.188,0.428-4.377,0.852-6.563,1.285
				c-0.6,0.119-1.217,0.205-1.787,0.414c-0.896,0.33-1.353,0.035-1.505-0.861C38.235,41.686,40.347,40.747,42.574,40.034z"/>
			<path fill-rule="evenodd" clip-rule="evenodd" fill="#6DA620" d="M48.631,30.474c-0.395,0.395-0.881,0.735-1.158,1.2
				c-0.398,0.667-0.76,0.359-1.285,0.232c-0.613-0.147-0.066,0.978-0.768,0.934c-0.174-0.011-0.453-0.071-0.496-0.181
				c-0.283-0.736-1.131-1.181-1.086-2.072c0.051-1.031-0.166-2.004-0.582-2.94c0.24-1.211,0.189-2.469,0.594-3.652
				c0.117-0.005,0.234-0.009,0.352-0.014c-0.271,1.122-0.193,2.264-0.18,3.398c0.02,1.386,1.34,2.328,2.664,1.922
				c0.273-0.083,0.527-0.178,0.805-0.056c0.24,0.106,0.459,0.058,0.531-0.186c0.156-0.536,0.619-0.521,1.02-0.632
				c-0.016,0.432-0.031,0.863-0.049,1.294C48.873,29.972,48.752,30.223,48.631,30.474z"/>
			<path fill-rule="evenodd" clip-rule="evenodd" fill="#97D14A" d="M31.044,35.334c-0.179-0.01-0.358-0.021-0.537-0.031
				c-0.294-0.363-0.716-0.545-1.102-0.78c-1.145-0.709-2.132-1.606-3.064-2.569c-0.339-0.351-0.677-0.711-1.215-0.737l0.003,0.002
				c0.032-0.533-0.197-0.859-0.743-0.929l0.005,0.004c0.014-0.236-0.088-0.372-0.333-0.385c-0.26-0.406-0.52-0.812-0.78-1.218
				c0.005-0.179-0.007-0.351-0.198-0.441l0.002,0.025c-0.134-0.683-0.498-1.228-1.004-1.688c-0.929-1.885-1.614-3.851-1.932-5.935
				c0.119-0.121,0.238-0.241,0.357-0.361c0.064,0.185,0.129,0.369,0.194,0.552c-0.002,0.673,0.331,1.244,0.562,1.845
				c-0.007,0.217,0.035,0.411,0.142,0.613c0.938,1.785,1.694,3.651,2.942,5.286c1.191,1.559,2.329,3.13,3.947,4.28
				c0.68,0.554,1.36,1.107,2.04,1.661c0.261,0.166,0.589,0.235,0.752,0.538C31.07,35.156,31.057,35.246,31.044,35.334z"/>
			<path fill-rule="evenodd" clip-rule="evenodd" fill="#78AF48" d="M44.201,23.982c-0.117,0.004-0.234,0.009-0.352,0.014
				c0.77-3.547,2.551-6.542,5.047-9.127c0.658-0.682,1.414-1.27,2.133-1.896c0.191-0.167,0.404-0.329,0.582,0.023
				c0.887,1.751,1.768,3.506,2.1,5.471c0.008,0.048-0.045,0.107-0.072,0.162c-0.309-0.155-0.035-0.747-0.557-0.745
				c-0.18-1.413-0.715-2.691-1.475-3.885c-0.123-0.063-0.246-0.125-0.369-0.188c-0.064-0.122-0.129-0.133-0.191,0l0,0
				c-0.375,0.012-0.572,0.262-0.744,0.548c-0.598,0.57-1.223,1.113-1.787,1.714c-1.17,1.247-2.111,2.655-2.824,4.213
				c-0.184,0.525-0.705,0.878-0.744,1.476C44.49,22.432,44.428,23.234,44.201,23.982z"/>
			<path fill-rule="evenodd" clip-rule="evenodd" fill="#9FD6EE" d="M62.334,37.131c-0.197-2.303-0.334-4.615-1.061-6.837
				c-0.096-0.29-0.084-0.615-0.426-0.757c-0.348-0.007-0.398-0.315-0.539-0.534c-0.338-0.78-0.906-1.332-1.672-1.687l0.004,0.006
				c-0.062-0.064-0.127-0.127-0.191-0.191l0.006,0.005c-0.084-0.157-0.229-0.19-0.389-0.19c-0.055-0.118-0.109-0.236-0.166-0.354
				c-0.078-0.154-0.217-0.197-0.377-0.2l0.008,0.006c-0.064-0.064-0.129-0.127-0.191-0.191l0.006,0.006
				c-0.064-0.063-0.127-0.127-0.191-0.191l0.006,0.005c-0.082-0.15-0.221-0.188-0.377-0.19l0.008,0.005
				c-0.008-0.245-0.152-0.356-0.377-0.393c-0.055-0.054-0.109-0.108-0.166-0.162c-0.125-0.228-0.309-0.364-0.574-0.375l0.006,0.005
				c-0.109-0.242-0.297-0.363-0.561-0.375l0.006,0.005c-0.143-0.316-0.449-0.404-0.729-0.533c0.01-0.214,0.018-0.428,0.025-0.642
				c1.326,0.471,2.334,1.427,3.414,2.265c1.262,0.978,2.354,2.144,3.408,3.332c0.584,0.657,0.686,1.546,0.732,2.411
				c0.012,0.259-0.088,0.541,0.156,0.752c0.016,0.174,0.031,0.348,0.047,0.522c-0.025,0.16-0.004,0.304,0.141,0.404
				c0.203,1.35,0.246,2.709,0.219,4.071C62.471,37.13,62.402,37.131,62.334,37.131z"/>
			<path fill-rule="evenodd" clip-rule="evenodd" fill="#6DA620" d="M20.698,20.844c-0.065-0.184-0.13-0.368-0.194-0.552
				c0.086-0.522-0.213-0.932-0.394-1.378c-0.133-0.329-0.357-0.709,0.233-0.852c0.366,0.185,0.732,0.369,1.099,0.554
				c0.092,0.166,0.239,0.199,0.412,0.171c0.051-0.008,0.097,0.005,0.137,0.04c0.095,0.14,0.229,0.181,0.39,0.148l0.006-0.001
				c-0.192,0.235-0.581,0.485,0.078,0.626c0.406,0.087,0.803,0.211,1.204,0.32c-0.426,0.626,0.006,1.646-0.935,2.035
				c-0.319,0.019-0.465-0.271-0.701-0.39C21.581,21.337,21.31,20.771,20.698,20.844z"/>
			<path fill-rule="evenodd" clip-rule="evenodd" fill="#78AF48" d="M23.669,19.92c-0.401-0.108-0.798-0.233-1.204-0.32
				c-0.659-0.142-0.27-0.392-0.078-0.626c2.066,0.495,4.165,0.781,6.277,0.978c-0.183,0.087-0.367,0.174-0.549,0.261
				c0.567-0.055,1.143,0.288,1.645-0.101c0.127,0.007,0.255,0.014,0.383,0.021c0.348,0.583,0.812,0.385,1.275,0.188
				c0.134,0.009,0.267,0.018,0.401,0.027c0.202,0.408,0.326,0.688-0.382,0.604c-1.849-0.219-3.69-0.546-5.563-0.489
				c-0.414-0.167-0.821-0.36-1.283-0.354C24.283,20.046,23.976,19.983,23.669,19.92z"/>
			<path fill-rule="evenodd" clip-rule="evenodd" fill="#78AF48" d="M37.897,23.073c-0.816-0.61-1.786-0.875-2.728-1.196
				c-0.612-0.208-0.468-0.429-0.033-0.677c1.616,0.766,3.357,1.273,4.742,2.505c1.128,1.004,2.183,2.047,2.886,3.401
				c-0.137,0-0.273,0-0.41,0.001c-0.406-0.627-0.844-1.228-1.48-1.648c-0.551-0.709-1.194-1.303-2.035-1.656
				C38.622,23.434,38.222,23.302,37.897,23.073z"/>
			<path fill-rule="evenodd" clip-rule="evenodd" fill="#138EC1" d="M29.749,53.785c-0.223,1.426-0.918,2.791-0.549,4.291
				c-0.643-0.129-0.394,0.426-0.425,0.645c-0.287,2.004-0.347,4.025-0.338,6.051c0.001,0.297,0.238,0.77-0.344,0.869
				c-0.064-2.174,0.038-4.344,0.203-6.512c-0.005-0.297-0.009-0.596-0.013-0.895c0.205-0.092,0.185-0.289,0.224-0.463
				c0.301-1.328,0.606-2.654,0.91-3.982C29.527,53.787,29.638,53.787,29.749,53.785z"/>
			<path fill-rule="evenodd" clip-rule="evenodd" fill="#80B933" d="M53.082,17.883c0.521-0.001,0.248,0.59,0.557,0.745
				c0.271,0.718,0.486,1.446,0.365,2.229c0.344,1.219,0.139,2.464,0.172,3.698c-0.182-0.003-0.359-0.007-0.541-0.01
				c-0.52-0.263-0.273-0.61-0.164-1.002c0.17-0.598,0.512-1.257-0.193-1.776C53.33,20.467,52.965,19.188,53.082,17.883z"/>
			<path fill-rule="evenodd" clip-rule="evenodd" fill="#78AF48" d="M25.126,31.217c0.539,0.025,0.876,0.386,1.215,0.737
				c0.932,0.963,1.92,1.86,3.064,2.569c-0.07,0.14-0.14,0.28-0.209,0.42C27.621,33.94,26.242,32.723,25.126,31.217z"/>
			<path fill-rule="evenodd" clip-rule="evenodd" fill="#B3E0F3" d="M58.635,51.936c0.639-0.609,0.852-1.432,1.117-2.23
				c0.115-0.346,0.033-0.83,0.574-0.914c-0.648,2.416-1.711,4.639-3.143,6.688l-0.033-0.031c0.002-0.184,0.004-0.369,0.006-0.553
				l-0.002,0.004c0.148-0.082,0.182-0.221,0.188-0.375l-0.002,0.004c0.15-0.08,0.184-0.221,0.188-0.373l-0.002,0.004
				c0.15-0.08,0.184-0.221,0.186-0.375l-0.002,0.004c0.465-0.309,0.607-0.801,0.744-1.299l-0.004,0.004
				c0.217-0.135,0.186-0.352,0.188-0.559L58.635,51.936z"/>
			<path fill-rule="evenodd" clip-rule="evenodd" fill="#5CADCE" d="M28.296,59.129c-0.165,2.168-0.268,4.338-0.203,6.512
				c-0.166-0.002-0.276-0.092-0.364-0.223c-0.061-2.088,0.033-4.172,0.195-6.254C28.048,59.152,28.172,59.141,28.296,59.129z"/>
			<path fill-rule="evenodd" clip-rule="evenodd" fill="#67B7DA" d="M35.893,64.367c-0.066-0.072-0.131-0.145-0.197-0.215
				c0.002-0.061,0.002-0.123,0-0.184h-0.006c0.073-0.062,0.146-0.125,0.219-0.188c0.05-0.055,0.101-0.107,0.152-0.162
				c0.208-0.137,0.379-0.299,0.374-0.576h-0.002c0.062-0.062,0.124-0.125,0.187-0.188l-0.002,0.002
				c0.078-0.061,0.155-0.121,0.233-0.184c0.17-0.174,0.339-0.35,0.509-0.523c0.134-0.102,0.207-0.23,0.186-0.402h0.002
				c0.435,0.02,0.569-0.439,0.91-0.568c0.034,0.037,0.072,0.07,0.114,0.098C37.784,62.4,36.793,63.346,35.893,64.367z"/>
			<path fill-rule="evenodd" clip-rule="evenodd" fill="#2DA8DC" d="M33.278,45.834c-0.338,0.438-0.703,0.838-1.294,0.918
				l-0.023-0.016c0.009-0.18,0.018-0.359,0.026-0.539l-0.001,0.002c0.268-0.162,0.329-0.441,0.404-0.713
				c0.129-0.102,0.174-0.234,0.148-0.395l0.006-0.008c0.47-0.301,0.615-0.789,0.735-1.289l0.004-0.004
				c0.056,0.008,0.111,0.012,0.167,0.01c0.009,0.146,0.018,0.293,0.027,0.439c-0.189,0.375-0.347,0.771-0.571,1.123
				C32.544,45.934,32.903,45.877,33.278,45.834z"/>
			<path fill-rule="evenodd" clip-rule="evenodd" fill="#B3E0F3" d="M62.334,37.131c0.068,0,0.137-0.001,0.205-0.002
				c0.367,1.319-0.135,2.593-0.201,3.889c-0.299-0.267-0.188-0.625-0.176-0.942C62.201,39.093,62.275,38.113,62.334,37.131z"/>
			<path fill-rule="evenodd" clip-rule="evenodd" fill="#78AF48" d="M20.343,18.062c-0.59,0.143-0.366,0.523-0.233,0.852
				c0.18,0.447,0.479,0.856,0.394,1.378c-0.119,0.12-0.238,0.241-0.357,0.361c-0.229-0.788-0.32-1.597-0.328-2.413
				C19.814,17.727,20.037,17.735,20.343,18.062z"/>
			<path fill-rule="evenodd" clip-rule="evenodd" fill="#78AF48" d="M54.174,24.556c-0.031-1.234,0.174-2.479-0.17-3.698
				c0.512,0.417,0.246,1.013,0.336,1.525c0.059,0.325,0.059,0.66,0.082,0.99c-0.008,0.213-0.016,0.427-0.025,0.641
				c0.002,0.112,0.006,0.225,0.01,0.337c-0.051,0.336-0.102,0.672-0.152,1.008C54.227,25.09,54.201,24.823,54.174,24.556z"/>
			<path fill-rule="evenodd" clip-rule="evenodd" fill="#6DA620" d="M29.196,34.944c0.069-0.14,0.139-0.28,0.209-0.42
				c0.385,0.235,0.807,0.417,1.102,0.78c-0.006,0.162-0.063,0.292-0.224,0.358C29.81,35.59,29.561,35.18,29.196,34.944z"/>
			<path fill-rule="evenodd" clip-rule="evenodd" fill="#67B7DA" d="M40.867,58.781c0.062,0.061,0.122,0.119,0.184,0.18
				c-0.417,0.455-0.799,0.951-1.385,1.217c-0.029-0.037-0.061-0.072-0.096-0.105c0.19-0.242,0.38-0.484,0.569-0.729
				c0.001-0.061,0.002-0.123,0.003-0.186l-0.006,0.004c0.062-0.062,0.124-0.125,0.187-0.188l0.002,0.004
				C40.505,58.914,40.686,58.848,40.867,58.781z"/>
			<path fill-rule="evenodd" clip-rule="evenodd" fill="#B3E0F3" d="M57.184,55.479c-0.162,0.533-0.42,1.018-0.816,1.414
				c-0.193,0.195-0.311,0.119-0.324-0.145v0.002c0.148-0.084,0.184-0.223,0.189-0.375l-0.004,0.004
				c0.244-0.107,0.363-0.295,0.373-0.559l-0.004,0.004c0.186-0.127,0.369-0.252,0.553-0.377L57.184,55.479z"/>
			<path fill-rule="evenodd" clip-rule="evenodd" fill="#78AF48" d="M22.079,26.588c0.507,0.46,0.871,1.005,1.004,1.688
				C22.508,27.856,22.367,27.178,22.079,26.588z"/>
			<path fill-rule="evenodd" clip-rule="evenodd" fill="#97D14A" d="M29.759,20.112c-0.502,0.389-1.078,0.046-1.645,0.101
				c0.183-0.087,0.366-0.174,0.549-0.261C29.041,19.925,29.42,19.884,29.759,20.112z"/>
			<path fill-rule="evenodd" clip-rule="evenodd" fill="#97D14A" d="M31.417,20.321c-0.463,0.197-0.927,0.395-1.275-0.188
				C30.578,20.119,31.024,20.041,31.417,20.321z"/>
			<path fill-rule="evenodd" clip-rule="evenodd" fill="#78AF48" d="M24.386,30.291c0.546,0.07,0.775,0.396,0.743,0.929
				C24.78,30.992,24.528,30.685,24.386,30.291z"/>
			<path fill-rule="evenodd" clip-rule="evenodd" fill="#9FD6EE" d="M32.88,67.154c0.136-0.016,0.271-0.029,0.407-0.043
				c0.001,0.154-0.043,0.285-0.185,0.369C33.028,67.371,32.954,67.264,32.88,67.154z"/>
			<path fill-rule="evenodd" clip-rule="evenodd" fill="#B3E0F3" d="M62.133,32.131c-0.244-0.211-0.145-0.493-0.156-0.752
				C62.227,31.589,62.139,31.868,62.133,32.131z"/>
			<path fill-rule="evenodd" clip-rule="evenodd" fill="#67B7DA" d="M39.116,60.723c-0.064,0.186-0.191,0.312-0.377,0.381
				c-0.029-0.039-0.061-0.074-0.097-0.107c0.125-0.123,0.248-0.246,0.372-0.369C39.045,60.662,39.08,60.693,39.116,60.723z"/>
			<path fill-rule="evenodd" clip-rule="evenodd" fill="#78AF48" d="M24.059,29.91c0.245,0.013,0.347,0.148,0.333,0.385
				C24.227,30.213,24.057,30.135,24.059,29.91z"/>
			<path fill-rule="evenodd" clip-rule="evenodd" fill="#138EC1" d="M33.479,44.24c-0.009-0.146-0.018-0.293-0.027-0.441
				c0.062-0.068,0.123-0.137,0.185-0.205c0.046,0.045,0.093,0.092,0.14,0.137C33.676,43.9,33.577,44.07,33.479,44.24z"/>
			<path fill-rule="evenodd" clip-rule="evenodd" fill="#78AF48" d="M21.854,18.786c-0.173,0.028-0.32-0.005-0.412-0.171
				C21.608,18.604,21.754,18.638,21.854,18.786z"/>
			<path fill-rule="evenodd" clip-rule="evenodd" fill="#78AF48" d="M22.381,18.975c-0.162,0.033-0.295-0.008-0.39-0.148
				C22.146,18.808,22.288,18.829,22.381,18.975z"/>
			<path fill-rule="evenodd" clip-rule="evenodd" fill="#B3E0F3" d="M62.32,33.058c-0.145-0.101-0.166-0.244-0.141-0.404
				C62.309,32.76,62.34,32.9,62.32,33.058z"/>
			<path fill-rule="evenodd" clip-rule="evenodd" fill="#78AF48" d="M23.081,28.25c0.19,0.091,0.203,0.262,0.198,0.441
				C23.118,28.587,23.024,28.452,23.081,28.25z"/>
			<path fill-rule="evenodd" clip-rule="evenodd" fill="#9FD6EE" d="M32.735,66.92c0.046,0.072,0.092,0.145,0.138,0.215
				C32.827,67.064,32.781,66.992,32.735,66.92z"/>
			<path fill-rule="evenodd" clip-rule="evenodd" fill="#67B7DA" d="M39.666,60.178c-0.062,0.061-0.124,0.123-0.186,0.186
				c-0.029-0.039-0.062-0.074-0.096-0.105c0.062-0.061,0.124-0.123,0.186-0.186C39.605,60.105,39.636,60.141,39.666,60.178z"/>
			<path fill-rule="evenodd" clip-rule="evenodd" fill="#67B7DA" d="M39.48,60.363c-0.062,0.061-0.125,0.121-0.188,0.182
				c-0.028-0.037-0.06-0.07-0.094-0.102c0.062-0.062,0.124-0.125,0.186-0.186C39.418,60.289,39.451,60.324,39.48,60.363z"/>
			<path fill-rule="evenodd" clip-rule="evenodd" fill="#67B7DA" d="M39.292,60.545c-0.06,0.059-0.118,0.119-0.177,0.176
				c-0.036-0.027-0.07-0.059-0.102-0.094c0.062-0.061,0.124-0.123,0.185-0.184C39.233,60.475,39.264,60.508,39.292,60.545z"/>
			<path fill-rule="evenodd" clip-rule="evenodd" fill="#67B7DA" d="M38.738,61.104c-0.057,0.059-0.114,0.117-0.17,0.174
				c-0.041-0.027-0.079-0.061-0.113-0.098c0.062-0.061,0.125-0.123,0.187-0.184C38.678,61.029,38.709,61.064,38.738,61.104z"/>
			<path fill-rule="evenodd" clip-rule="evenodd" fill="#9FD6EE" d="M35.695,63.969c0.002,0.061,0.002,0.123,0,0.184
				c-0.134,0.203-0.274,0.398-0.561,0.371c0.067-0.184,0.134-0.365,0.201-0.547C35.455,63.975,35.575,63.971,35.695,63.969z"/>
			<path fill-rule="evenodd" clip-rule="evenodd" fill="#9FD6EE" d="M33.466,66.932c-0.005-0.16,0.024-0.303,0.19-0.379
				C33.662,66.713,33.617,66.85,33.466,66.932z"/>
			<path fill-rule="evenodd" clip-rule="evenodd" fill="#9FD6EE" d="M33.837,66.375c-0.007-0.16,0.029-0.301,0.189-0.377
				C34.038,66.162,33.996,66.297,33.837,66.375z"/>
			<path fill-rule="evenodd" clip-rule="evenodd" fill="#9FD6EE" d="M34.577,65.451c-0.009-0.162,0.019-0.305,0.189-0.377
				C34.773,65.234,34.724,65.367,34.577,65.451z"/>
			<path fill-rule="evenodd" clip-rule="evenodd" fill="#9FD6EE" d="M34.948,64.893c-0.011-0.16,0.024-0.299,0.188-0.373
				C35.158,64.686,35.112,64.82,34.948,64.893z"/>
			<path fill-rule="evenodd" clip-rule="evenodd" fill="#9FD6EE" d="M34.762,65.078c0.063-0.062,0.126-0.127,0.19-0.189
				C34.888,64.951,34.825,65.016,34.762,65.078z"/>
			<path fill-rule="evenodd" clip-rule="evenodd" fill="#9FD6EE" d="M34.391,65.635c0.064-0.064,0.129-0.129,0.193-0.193
				C34.52,65.506,34.455,65.57,34.391,65.635z"/>
			<path fill-rule="evenodd" clip-rule="evenodd" fill="#9FD6EE" d="M34.207,65.818c0.063-0.062,0.127-0.127,0.191-0.189
				C34.334,65.691,34.27,65.756,34.207,65.818z"/>
			<path fill-rule="evenodd" clip-rule="evenodd" fill="#9FD6EE" d="M34.021,66.004c0.063-0.062,0.126-0.127,0.19-0.189
				C34.148,65.877,34.085,65.941,34.021,66.004z"/>
			<path fill-rule="evenodd" clip-rule="evenodd" fill="#9FD6EE" d="M33.651,66.559c0.064-0.062,0.127-0.127,0.191-0.189
				C33.778,66.432,33.715,66.496,33.651,66.559z"/>
			<path fill-rule="evenodd" clip-rule="evenodd" fill="#9FD6EE" d="M33.281,67.115c0.064-0.064,0.128-0.129,0.192-0.193
				C33.409,66.986,33.345,67.051,33.281,67.115z"/>
			<path fill-rule="evenodd" clip-rule="evenodd" fill="#FDFDFD" d="M24.05,56.711c-1.118-0.574-2.249-1.127-3.35-1.73
				c-1.557-0.852-2.05-1.945-1.691-3.676c0.162-0.779,0.366-1.551,0.551-2.326c0.753-1.277,1.798-1.732,3.277-1.342
				c0.915,0.242,1.886,0.264,2.83,0.398c0.431,0.062,0.586-0.074,0.631-0.529c0.078-0.799-0.182-1.211-1.017-1.275
				c-1.338-0.102-2.69,0.014-4.018-0.252c-0.539-0.09-0.488-0.439-0.355-0.816c0.134-0.379,0.126-0.848,0.764-0.82
				c1.277,0.055,2.557,0.055,3.836,0.062c0.32,0.002,0.675,0.127,0.942-0.172c0,0,0.031-0.029,0.031-0.029
				c-0.02,0.4,0.3,0.271,0.503,0.324c2.071,0.975,2.408,1.809,1.636,4.041c-0.547,0.916-0.864,1.918-1.117,2.947
				c-0.426,1.266-0.705,2.57-0.979,3.875c-0.138,0.654-0.079,1.609-0.48,1.883c-0.527,0.357-1.229-0.416-1.903-0.555
				C24.112,56.713,24.081,56.713,24.05,56.711z M21.907,49.479c-0.707-0.002-1.046,0.289-1.186,0.777
				c-0.135,0.473-0.193,0.967-0.301,1.447c-0.143,0.641,0.124,1.064,0.662,1.379c0.931,0.547,1.922,0.951,2.929,1.33
				c0.46,0.174,0.588,0.033,0.668-0.395c0.195-1.061,0.419-2.115,0.644-3.17c0.068-0.322-0.002-0.557-0.341-0.639
				C23.906,49.947,22.827,49.697,21.907,49.479z"/>
			<path fill-rule="evenodd" clip-rule="evenodd" fill="#2DA8DC" d="M28.62,48.568c0.773-2.232,0.437-3.066-1.635-4.041
				c-0.036-0.312-0.227-0.385-0.503-0.324c0,0-0.032,0.029-0.031,0.029c-0.198-0.135-0.215-0.346-0.042-0.453
				c1.042-0.639,2.127-1.359,3.334-1.404c0.993-0.035,2.006,0.438,3.009,0.688c0.176,0.045,0.346,0.111,0.52,0.166
				c0.005,0.188,0.009,0.375,0.013,0.562l-0.004,0.004c-0.58,0.238-0.705,0.736-0.735,1.289l-0.006,0.008
				c-0.062,0.043-0.124,0.088-0.187,0.133c-0.353,0.238-0.42,0.584-0.366,0.975l0.001-0.002c-0.372,0.121-0.406,0.494-0.572,0.77
				c-0.358,0.592-0.444,1.316-0.903,1.859C29.881,48.74,29.25,48.654,28.62,48.568z"/>
			<path fill-rule="evenodd" clip-rule="evenodd" fill="#2DA8DC" d="M24.05,56.711c0.031,0.002,0.062,0.002,0.091,0.008
				c0.674,0.139,1.376,0.912,1.903,0.555c0.401-0.273,0.342-1.229,0.48-1.883c0.274-1.305,0.553-2.609,0.979-3.875
				c0.409,0.787,1.183,0.705,1.887,0.787c-0.419,1.969-1.144,3.879-1.107,5.932c0.004,0.299,0.008,0.598,0.013,0.895
				c-0.124,0.012-0.248,0.023-0.372,0.035c-0.008-0.092-0.003-0.188-0.03-0.273c-0.019-0.061-0.11-0.223-0.142-0.033
				c-0.119,0.709-0.573,0.477-0.978,0.371c-0.709-0.182-1.452-0.268-2.086-0.68C23.921,58.051,23.651,57.264,24.05,56.711z"/>
			<path fill-rule="evenodd" clip-rule="evenodd" fill="#2DA8DC" d="M21.263,45.979c1.328,0.266,2.68,0.15,4.018,0.252
				c0.835,0.064,1.095,0.477,1.017,1.275c-0.044,0.455-0.2,0.592-0.631,0.529c-0.944-0.135-1.916-0.156-2.83-0.398
				c-1.479-0.391-2.524,0.064-3.277,1.342c-0.372,0.039-0.593-0.162-0.644-0.494c-0.045-0.291,0.15-0.496,0.389-0.666
				c0.516-0.367,1.002-0.779,1.535-1.119C21.129,46.514,21.298,46.324,21.263,45.979z"/>
			<path fill-rule="evenodd" clip-rule="evenodd" fill="#67B7DA" d="M33.284,43.791c-0.004-0.188-0.008-0.375-0.013-0.562
				c0.104-0.076,0.209-0.154,0.314-0.232c0.043,0.035,0.085,0.072,0.126,0.111c-0.025,0.162-0.051,0.324-0.076,0.486
				c-0.062,0.068-0.123,0.137-0.185,0.205C33.395,43.803,33.34,43.799,33.284,43.791z"/>
			<path fill-rule="evenodd" clip-rule="evenodd" fill="#67B7DA" d="M34.075,42.545c-0.047,0.236-0.175,0.418-0.365,0.562
				c-0.04-0.039-0.082-0.076-0.125-0.111c0.055-0.229,0.102-0.465,0.364-0.559C33.993,42.473,34.035,42.508,34.075,42.545z"/>
			<path fill-rule="evenodd" clip-rule="evenodd" fill="#67B7DA" d="M33.949,42.438c0.062-0.227,0.099-0.471,0.379-0.549
				c0.037,0.029,0.073,0.061,0.108,0.092c-0.041,0.238-0.178,0.416-0.362,0.562C34.035,42.508,33.993,42.473,33.949,42.438z"/>
			<path fill-rule="evenodd" clip-rule="evenodd" fill="#67B7DA" d="M34.753,41.377c-0.021-0.268-0.016-0.522,0.325-0.592
				c0.032,0.025,0.063,0.053,0.094,0.079c-0.133,0.177-0.267,0.355-0.4,0.531C34.771,41.395,34.753,41.377,34.753,41.377z"/>
			<path fill-rule="evenodd" clip-rule="evenodd" fill="#67B7DA" d="M35.078,40.785c0.052-0.077,0.048-0.27,0.183-0.185
				c0.108,0.068-0.006,0.189-0.09,0.263C35.141,40.837,35.109,40.81,35.078,40.785z"/>
			<path fill-rule="evenodd" clip-rule="evenodd" fill="#67B7DA" d="M34.588,41.582c0.027,0.162-0.027,0.293-0.152,0.396
				c-0.035-0.029-0.071-0.061-0.108-0.09c0.08-0.109,0.159-0.217,0.24-0.326L34.588,41.582z"/>
			<path fill-rule="evenodd" clip-rule="evenodd" fill="#67B7DA" d="M34.568,41.562c0.062-0.062,0.124-0.123,0.185-0.186
				c0,0,0.017,0.018,0.018,0.018c-0.061,0.062-0.123,0.125-0.184,0.186C34.588,41.582,34.568,41.562,34.568,41.562z"/>
			<path fill-rule="evenodd" clip-rule="evenodd" fill="#B3E0F3" d="M54.254,25.358c0.051-0.336,0.102-0.672,0.152-1.008
				c0.217,0.145,0.455,0.22,0.719,0.196l-0.006-0.005c0.02,0.374,0.289,0.376,0.561,0.375l-0.006-0.005
				c0.023,0.381,0.299,0.377,0.574,0.375c0.057,0.054,0.111,0.108,0.166,0.163c0.004,0.248,0.127,0.38,0.377,0.393l-0.008-0.005
				c0.082,0.152,0.221,0.187,0.377,0.19l-0.006-0.005c0.064,0.064,0.127,0.127,0.191,0.191l-0.006-0.006
				c0.062,0.063,0.127,0.127,0.191,0.191c0,0-0.008-0.006-0.008-0.006c0.08,0.154,0.223,0.187,0.377,0.2
				c0.057,0.118,0.111,0.237,0.166,0.354c0.09,0.145,0.23,0.189,0.389,0.19l-0.006-0.005c0.064,0.064,0.129,0.127,0.191,0.191
				l-0.004-0.006c0.334,0.784,0.91,1.328,1.672,1.687c0.141,0.218,0.191,0.527,0.539,0.534c0.285,1.621,0.582,3.239,0.854,4.863
				c0.188,1.127,0.059,2.267,0.07,3.401c0.004,0.463-0.266,0.516-0.604,0.268c-0.17-0.126-0.312-0.293-0.465-0.446
				c-2.043-2.042-4.09-4.08-6.123-6.131c-0.365-0.367-0.932-0.644-0.654-1.369c0.082-0.216-0.25-0.177-0.418-0.203
				c-0.135-0.231,0.094-0.362,0.148-0.542c0.406-1.07,0.539-2.187,0.559-3.322c0.104-0.083,0.104-0.171,0.012-0.263
				C54.236,25.648,54.244,25.503,54.254,25.358z"/>
			<path fill-rule="evenodd" clip-rule="evenodd" fill="#558F13" d="M53.656,29.378c-0.055,0.18-0.283,0.311-0.148,0.542
				c-0.604,1.506-1.021,3.087-1.912,4.476c-0.848,1.317-1.738,2.591-2.877,3.677c-0.809-0.125-0.525-1.072-1.123-1.519
				c-0.361,1.184-0.695,2.281-1.029,3.377c-0.104-0.005-0.205-0.011-0.309-0.016c0.449-1.354,0.689-2.772,1.275-4.083
				c0.609-0.76,0.723-1.692,0.91-2.6c0.129-0.489,0.258-0.979,0.387-1.467c0.633-0.012,0.105,0.944,0.773,0.919
				c0.48-0.018,0.543,0.21,0.406,0.645c-0.137,0.433,0.043,0.413,0.426,0.276c1.689-0.604,1.848-2.075,2.084-3.517
				c0.125-0.183,0.25-0.366,0.377-0.549c0.158-0.018,0.285-0.062,0.361-0.232C53.471,28.826,53.566,29.096,53.656,29.378z"/>
			<path fill-rule="evenodd" clip-rule="evenodd" fill="#5CADCE" d="M51.23,46.193c-0.184,0.002-0.369,0.004-0.553,0.006
				c-1.053-0.645-1.475-1.984-2.648-2.508c-0.229,0.281-0.012,0.619-0.266,0.818c-0.133-0.025-0.213-0.105-0.217-0.244
				c-0.031-1.225-0.238-2.428-0.422-3.632c0.336,0.14,0.676,0.274,1.008,0.421c1.557,0.691,2.891,1.766,4.404,2.531
				c0.447,0.572,1.199,0.814,1.576,1.461C53.107,45.314,52.01,45.354,51.23,46.193z"/>
			<path fill-rule="evenodd" clip-rule="evenodd" fill="#67B7DA" d="M51.23,46.193c0.779-0.84,1.877-0.879,2.883-1.146
				c1.445,0.959,2.697,2.111,3.623,3.592c-0.938,0.016-1.73,0.547-2.625,0.719c-0.145-0.965-0.99-1.486-1.424-2.27
				c-0.057-0.102-0.197-0.16-0.25-0.264C52.926,45.818,52.143,45.783,51.23,46.193z"/>
			<path fill-rule="evenodd" clip-rule="evenodd" fill="#B3E0F3" d="M52.537,43.586c-1.514-0.766-2.848-1.84-4.404-2.531
				c-0.332-0.147-0.672-0.282-1.008-0.421c-0.051-0.186-0.104-0.371-0.152-0.558c0.16-0.07,0.176-0.213,0.178-0.361
				c0.217-0.322,0.506-0.567,0.832-0.771c0.516-0.015,0.918,0.168,1.285,0.556c0.969,1.015,1.959,2.01,2.979,2.973
				C52.613,42.816,52.709,43.145,52.537,43.586z"/>
			<path fill-rule="evenodd" clip-rule="evenodd" fill="#406F00" d="M46.973,40.076c0.049,0.187,0.102,0.372,0.152,0.558
				c0.184,1.205,0.391,2.408,0.422,3.632c0.004,0.139,0.084,0.219,0.217,0.244c0.166,1.363,0.268,2.729,0.191,4.104
				c-0.154,0.197-0.268,0.461-0.598,0.389l-0.014-0.037c0.07-1.783,0.018-3.562-0.24-5.332c-0.395-1.203-0.354-2.469-0.539-3.702
				c0.336-1.097,0.67-2.194,1.031-3.377c0.598,0.447,0.314,1.395,1.123,1.519c-0.246,0.29-0.492,0.581-0.736,0.872
				c-0.326,0.203-0.615,0.448-0.83,0.77C46.982,39.781,46.904,39.892,46.973,40.076z"/>
			<path fill-rule="evenodd" clip-rule="evenodd" fill="#9FD6EE" d="M55.111,49.357c0.895-0.172,1.688-0.703,2.625-0.719
				c0,0.002-0.008,0.068-0.008,0.068c-1.115,0.461-2.23,0.922-3.344,1.385c-0.369,0.123-0.74,0.246-1.109,0.371
				C53.713,49.805,54.529,49.775,55.111,49.357z"/>
			<path fill-rule="evenodd" clip-rule="evenodd" fill="#5CADCE" d="M54.385,50.092c1.113-0.463,2.229-0.924,3.344-1.385
				c0.316,0.059,0.527,0.158,0.174,0.469c-1.1,0.375-2.197,0.752-3.297,1.129C54.531,50.232,54.457,50.162,54.385,50.092z"/>
			<path fill-rule="evenodd" clip-rule="evenodd" fill="#7FC9E8" d="M35.695,63.969c-0.12,0.002-0.24,0.006-0.36,0.008
				c-1.097-0.414-1.39-1.584-2.164-2.305c-0.222-0.205-0.37-0.486-0.578-0.711c-1.308-1.4-1.153-2.482-0.284-4.348
				c0.729-1.562,2.046-2.619,3.075-3.922c0.725-0.92,1.292-1.898,1.465-3.113c0.111-0.773,0.507-1.508,0.783-2.256
				c0.117-0.318,0.376-0.484,0.693-0.547c2.733-0.549,5.469-1.092,8.284-0.934c0,0.189,0.002,0.379,0.004,0.568
				c-0.77-0.008-1.539-0.037-2.307-0.023c-2.602,0.053-4.523,1.344-6.199,3.242c-1.196,1.352-1.615,2.963-2.064,4.609
				c-0.135,0.494-0.113,0.865,0.173,1.285c0.831,1.219,1.746,2.371,2.743,3.447c0.425,0.457,0.386,0.697-0.019,1.117
				c-0.5,0.518-1.197,0.887-1.395,1.66h-0.002c-0.178,0.08-0.195,0.236-0.186,0.402c-0.169,0.174-0.339,0.35-0.509,0.523
				c-0.078,0.062-0.155,0.123-0.232,0.184l0.002-0.002c-0.062,0.062-0.125,0.125-0.187,0.188h0.002
				c-0.395,0.018-0.381,0.301-0.374,0.576c-0.051,0.055-0.102,0.107-0.152,0.162c-0.073,0.062-0.146,0.125-0.218,0.188H35.695z"/>
			<path fill-rule="evenodd" clip-rule="evenodd" fill="#78AF48" d="M46.613,46.41c-0.002-0.189-0.004-0.379-0.004-0.568
				c-0.334-1.15,0.031-2.373-0.361-3.518c-0.127-0.713-0.256-1.425-0.385-2.138c0.133-0.09,0.264-0.181,0.395-0.271
				c0.104,0.005,0.205,0.011,0.309,0.016c0.184,1.233,0.143,2.499,0.537,3.7c-0.494,0.324-0.254,0.822-0.295,1.254
				c-0.066,1.43,0.105,2.863-0.086,4.289C46.494,48.262,46.744,47.328,46.613,46.41z"/>
			<path fill-rule="evenodd" clip-rule="evenodd" fill="#2DA8DC" d="M29.749,53.785c-0.11,0.002-0.221,0.002-0.332,0.004
				c0.62-2.434,1.375-4.818,2.545-7.053l0.023,0.016c0.045,0.9-0.441,1.641-0.758,2.424C30.616,50.676,30.193,52.234,29.749,53.785z
				"/>
			<path fill-rule="evenodd" clip-rule="evenodd" fill="#406F00" d="M46.258,39.916c-0.131,0.09-0.262,0.181-0.395,0.271
				c-0.193-0.028-0.385-0.057-0.578-0.085c-1.977-0.68-4.018-1.104-6.063-1.5c-0.122-0.014-0.243-0.028-0.365-0.042
				c-0.013-1.188-1.204-0.657-1.78-1.184c0.2-0.026,0.317-0.024,0.423-0.058c0.243-0.079,0.716,0.22,0.675-0.322
				c-0.027-0.348-0.284-0.557-0.69-0.623c-0.509-0.082-0.988,0.33-1.517,0.08c0.153-0.359,0.438-0.225,0.653-0.234
				c1.052-0.049,1.051-0.041,0.57-0.924c-0.042-0.077-0.054-0.172-0.091-0.295c0.565-0.161,1.117-0.315,1.667-0.475
				c0.241-0.07,0.367-0.281,0.353-0.489c-0.021-0.308-0.312-0.227-0.511-0.233c-0.417-0.012-0.836-0.003-1.426-0.003
				c0.632-0.529,1.209-0.303,1.734-0.372c0.198-0.026,0.481,0.095,0.555-0.184c0.064-0.239-0.186-0.363-0.33-0.511
				c-0.404-0.414-0.95-0.12-1.411-0.274c0.125-0.29,0.489-0.005,0.647-0.344c-0.181-0.273-0.664-0.512-0.341-1.031
				c0.149-0.241-0.06-0.467-0.256-0.63c-1.001-0.829-2.207-1.315-3.319-1.956c-0.45-0.258-0.654,0.131-0.81,0.489
				c-0.06,0.007-0.119,0.012-0.18,0.015c-0.196-0.29-0.374-0.117-0.514,0.043c-1.168,1.326-2.638,1.127-4.158,0.909
				c-0.838-0.12-1.305-0.919-2.132-0.986c-0.57-0.628-0.915-1.371-1.117-2.187c0.103-0.003,0.206-0.005,0.308-0.008
				c0.819,2.448,4.828,3.747,6.87,1.842c0.403-0.266,0.666-0.621,0.718-1.113c0.068-0.182,0.135-0.363,0.203-0.545
				c0.114,0.003,0.227,0.007,0.341,0.011c0.011,0.18,0.022,0.36,0.034,0.54c-0.036,0.261-0.003,0.434,0.296,0.576
				c1.381,0.658,2.743,1.358,4.111,2.043c0.348,0.286,0.614,0.697,1.12,0.746c0.262,0.307,0.52,0.621,0.937,0.729
				c0.251,0.316,0.481,0.657,0.924,0.732c0.033,0.212,0.088,0.417,0.34,0.464c0.104,0.02,0.176-0.049,0.154-0.156
				c-0.049-0.25-0.25-0.307-0.465-0.341c-0.021-0.088-0.039-0.178-0.066-0.266c-0.078-0.271-0.629-0.413-0.354-0.725
				c0.264-0.3,0.592,0.102,0.775,0.264c0.711,0.627,0.988,0.354,1.111-0.436c0.012-0.076,0.088-0.141,0.186-0.286
				c0.488,0.638,0.545,1.375,0.725,2.054c0.225,0.851,0.424,1.716,0.531,2.587c0.08,0.629,0.518,0.797,0.965,0.97
				c0.518,0.202,0.48-0.307,0.637-0.563c0.029-0.051,0.08-0.132,0.119-0.13c0.793,0.03,1.154-0.611,1.646-1.046
				c-0.061,0.37-0.121,0.74-0.184,1.109C46.947,37.144,46.707,38.562,46.258,39.916z"/>
			<path fill-rule="evenodd" clip-rule="evenodd" fill="#6DA620" d="M31.083,35.067c-0.163-0.303-0.492-0.373-0.753-0.538
				c0.086-0.524,0.507-0.311,0.805-0.361c0.178-0.03,0.406-0.003,0.421-0.249c0.019-0.319-0.249-0.297-0.455-0.301
				c-0.504-0.009-1.008-0.003-1.512-0.003c-0.006-0.07-0.011-0.14-0.017-0.21c1.725-0.242,3.451-0.485,5.175-0.727
				c0.456,0.296,0.973,0.531,1.13,1.125c0.127,0.223,0.354,0.169,0.551,0.198c0.3,0.928-0.102,1.146-0.981,1.112
				c-0.905-0.036-1.8,0.273-2.779,0.255c0.553,0.319,1.391,0.295,1.363,1.194c-0.313-0.055-0.626-0.111-0.939-0.167l0.001,0.001
				C32.611,35.672,31.877,35.323,31.083,35.067z"/>
			<path fill-rule="evenodd" clip-rule="evenodd" fill="#80B933" d="M34.748,32.678c-1.725,0.242-3.45,0.485-5.175,0.727
				c0.006,0.07,0.011,0.141,0.017,0.21c0.504,0,1.008-0.006,1.512,0.003c0.207,0.003,0.474-0.018,0.455,0.301
				c-0.015,0.245-0.243,0.219-0.421,0.249c-0.298,0.05-0.719-0.164-0.805,0.361c-0.679-0.553-1.359-1.106-2.04-1.661
				c0.021-0.158,0.064-0.305,0.249-0.342c0.338-0.067,0.877,0.035,0.789-0.511c-0.074-0.447-0.574-0.171-0.874-0.255
				c-0.069-0.02-0.198,0.013-0.116-0.248c0.932-0.159,1.916-0.326,2.9-0.493c0.099,0.133,0.236,0.176,0.397,0.188
				c0.432,0.033,0.821-0.296,1.26-0.154c0.228,0.073,0.521,0.131,0.525,0.433c0.003,0.3-0.318,0.206-0.479,0.31
				c-0.304,0.197-0.788,0.003-1.085,0.566c0.812-0.154,1.489-0.283,2.166-0.411C34.336,32.12,34.581,32.36,34.748,32.678z"/>
			<path fill-rule="evenodd" clip-rule="evenodd" fill="#6DA620" d="M34.021,31.95c-0.677,0.128-1.354,0.257-2.166,0.411
				c0.298-0.563,0.781-0.37,1.085-0.566c0.161-0.104,0.482-0.01,0.479-0.31c-0.004-0.302-0.297-0.359-0.525-0.433
				c-0.439-0.142-0.828,0.187-1.26,0.154c-0.161-0.012-0.298-0.055-0.397-0.188c0,0,0.003-0.003,0.003-0.003
				c0.488-0.065,1.012-0.046,1.301-0.568c0.017-0.352,0.248-0.56,0.527-0.698c0.327-0.162,0.425-0.416,0.403-0.75
				c0.061-0.002,0.12-0.007,0.18-0.015c0.433,0.108,0.55,0.717,1.106,0.671c0.163-0.013,0.475,0.12,0.421,0.386
				c-0.05,0.251-0.327,0.226-0.541,0.239c-0.234,0.016-0.486-0.052-0.747,0.166c0.267,0.29,0.56,0.224,0.831,0.123
				c0.361-0.134,0.727-0.095,1.093-0.096c0.343-0.001,0.688,0.166,0.687,0.481c-0.003,0.407-0.444,0.149-0.66,0.256
				C35.253,31.504,34.372,31.076,34.021,31.95z"/>
			<path fill-rule="evenodd" clip-rule="evenodd" fill="#8BC63F" d="M31.083,35.067c0.794,0.256,1.527,0.605,2.012,1.331
				c-0.761-0.206-1.582-0.296-2.051-1.063C31.057,35.246,31.07,35.156,31.083,35.067z"/>
			<path fill-rule="evenodd" clip-rule="evenodd" fill="#6DA620" d="M36.092,37.681c0.792,0.016,1.471,0.325,2.091,0.804
				c-0.847-0.229-1.796-0.122-2.5-0.792C35.819,37.689,35.955,37.685,36.092,37.681z"/>
			<path fill-rule="evenodd" clip-rule="evenodd" fill="#80B933" d="M33.094,36.396c0.313,0.056,0.626,0.112,0.939,0.167
				c0.516,0.272,1.186,0.3,1.478,0.929l-0.014,0.016C34.647,37.244,33.647,37.303,33.094,36.396z"/>
			<path fill-rule="evenodd" clip-rule="evenodd" fill="#406F00" d="M36.43,34.001c-0.197-0.029-0.424,0.024-0.551-0.198
				C36.083,33.812,36.306,33.77,36.43,34.001z"/>
			<path fill-rule="evenodd" clip-rule="evenodd" fill="#80B933" d="M36.092,37.681c-0.137,0.004-0.273,0.008-0.41,0.012
				c-0.062-0.062-0.124-0.125-0.185-0.186l0.014-0.016C35.727,37.487,35.944,37.478,36.092,37.681z"/>
			<path fill-rule="evenodd" clip-rule="evenodd" fill="#6DA620" d="M38.857,38.559c0.122,0.014,0.243,0.028,0.365,0.042
				c-0.087,0.141-0.215,0.22-0.373,0.16C38.725,38.712,38.8,38.625,38.857,38.559z"/>
			<path fill-rule="evenodd" clip-rule="evenodd" fill="#9FD6EE" d="M46.613,46.41c0.131,0.918-0.119,1.852,0.109,2.764
				c0.01,0.039,0.035,0.061,0.076,0.062c0.113,0.047,0.225,0.096,0.34,0.145c-0.32,0.477-0.951,0.676-1.055,1.367
				c-0.109,0.717,0.168,0.922,0.787,0.793c0.322-0.066,0.639-0.219,0.926-0.391c0.682-0.408,1.068-0.377,1.637,0.369
				c0.646,0.85,0.227,0.945-0.402,1.158c-0.16,0-0.307,0.027-0.387,0.189l0.004-0.002c-0.43,0.068-0.809,0.238-1.113,0.557h0.004
				c-0.248,0-0.373,0.121-0.371,0.371v-0.002c-0.365,0.053-0.539-0.189-0.736-0.439c-1.1-1.391-2.213-2.77-3.324-4.15
				c-0.619-0.775-3.407-0.406-3.797,0.502c-0.012,0.029-0.032,0.055-0.036,0.084c-0.078,0.74-0.39,1.414-0.574,2.123
				c-0.131,0.506-0.045,0.969,0.312,1.453c0.655,0.889,1.354,1.736,2.062,2.578c0.529,0.633,0.926,1.289,0.355,2.107v-0.002
				c-0.061,0.07-0.123,0.141-0.186,0.213c-0.053,0.053-0.107,0.105-0.162,0.158c-0.409-0.023-0.747,0.049-0.757,0.561l-0.002-0.004
				c-0.062,0.062-0.124,0.125-0.187,0.188l0.006-0.004c-0.147,0.061-0.128,0.123-0.003,0.186c-0.189,0.244-0.379,0.486-0.569,0.729
				c-0.062,0.062-0.123,0.125-0.186,0.186c-0.062,0.061-0.124,0.123-0.186,0.186c-0.062,0.061-0.123,0.123-0.185,0.184
				c-0.124,0.123-0.248,0.246-0.372,0.369c-0.062,0.061-0.124,0.123-0.187,0.184c-0.341,0.129-0.476,0.588-0.91,0.568
				c0.198-0.773,0.895-1.143,1.395-1.66c0.405-0.42,0.444-0.66,0.019-1.117c-0.997-1.076-1.912-2.229-2.743-3.447
				c-0.287-0.42-0.308-0.791-0.173-1.285c0.45-1.646,0.868-3.258,2.064-4.609c1.676-1.898,3.598-3.189,6.199-3.242
				C45.074,46.373,45.844,46.402,46.613,46.41z"/>
			<path fill-rule="evenodd" clip-rule="evenodd" fill="#B3E0F3" d="M41.43,58.049c0.57-0.818,0.174-1.475-0.355-2.107
				c-0.708-0.842-1.407-1.689-2.062-2.578c-0.357-0.484-0.443-0.947-0.312-1.453c0.184-0.709,0.496-1.383,0.574-2.123
				c0.004-0.029,0.024-0.055,0.036-0.084c0.391-0.908,3.178-1.277,3.797-0.502c1.111,1.381,2.225,2.76,3.324,4.15
				c0.197,0.25,0.371,0.492,0.736,0.439C45.256,55.211,43.342,56.631,41.43,58.049z"/>
			<path fill-rule="evenodd" clip-rule="evenodd" fill="#67B7DA" d="M47.955,48.613c0.076-1.375-0.025-2.74-0.191-4.104
				c0.254-0.199,0.037-0.537,0.266-0.818c1.174,0.523,1.596,1.863,2.648,2.508c-0.35,0.707-0.727,1.404-1.312,1.945
				c-0.473,0.436-0.656,0.371-0.973-0.281C48.135,48.055,48.439,48.576,47.955,48.613z"/>
			<path fill-rule="evenodd" clip-rule="evenodd" fill="#67B7DA" d="M54.385,50.092c0.072,0.07,0.146,0.141,0.221,0.213
				c-1.072,0.643-2.215,1.145-3.357,1.641c-0.148-0.014-0.297-0.029-0.375-0.184c0.059-0.064,0.119-0.129,0.18-0.191h-0.002
				c0.156,0,0.293-0.035,0.371-0.186l-0.002,0.002c0.154-0.006,0.295-0.035,0.373-0.188l-0.002,0.002
				c0.545-0.15,1.049-0.375,1.482-0.742l0.002,0.002C53.645,50.338,54.016,50.215,54.385,50.092z"/>
			<path fill-rule="evenodd" clip-rule="evenodd" fill="#558F13" d="M46.723,49.174c0.191-1.426,0.02-2.859,0.086-4.289
				c0.354,1.082,0.061,2.195,0.164,3.289c0.027,0.301-0.172,0.727,0.371,0.791l0.014,0.037c0.002,0.061-0.018,0.113-0.055,0.16
				c-0.168,0.025-0.336,0.051-0.504,0.074C46.758,49.234,46.732,49.213,46.723,49.174z"/>
			<path fill-rule="evenodd" clip-rule="evenodd" fill="#9FD6EE" d="M53.273,50.459c-0.434,0.367-0.938,0.592-1.482,0.742
				C52.076,50.535,52.65,50.449,53.273,50.459z"/>
			<path fill-rule="evenodd" clip-rule="evenodd" fill="#B3E0F3" d="M40.325,58.979c0.011-0.512,0.349-0.584,0.757-0.561
				c-0.07,0.121-0.143,0.242-0.215,0.363C40.686,58.848,40.505,58.914,40.325,58.979z"/>
			<path fill-rule="evenodd" clip-rule="evenodd" fill="#B3E0F3" d="M47.535,53.422c0.305-0.318,0.684-0.488,1.113-0.557
				C48.387,53.271,48.002,53.426,47.535,53.422z"/>
			<path fill-rule="evenodd" clip-rule="evenodd" fill="#B3E0F3" d="M47.168,53.793c-0.002-0.25,0.123-0.371,0.371-0.371
				C47.537,53.668,47.4,53.779,47.168,53.793z"/>
			<path fill-rule="evenodd" clip-rule="evenodd" fill="#78AF48" d="M46.799,49.236c0.168-0.023,0.336-0.049,0.504-0.074
				c-0.055,0.072-0.109,0.145-0.164,0.219C47.023,49.332,46.912,49.283,46.799,49.236z"/>
			<path fill-rule="evenodd" clip-rule="evenodd" fill="#B3E0F3" d="M48.645,52.867c0.08-0.162,0.227-0.189,0.387-0.189
				C48.939,52.818,48.803,52.861,48.645,52.867z"/>
			<path fill-rule="evenodd" clip-rule="evenodd" fill="#9FD6EE" d="M51.793,51.199c-0.078,0.152-0.219,0.182-0.373,0.188
				C51.492,51.221,51.635,51.193,51.793,51.199z"/>
			<path fill-rule="evenodd" clip-rule="evenodd" fill="#9FD6EE" d="M51.422,51.385c-0.078,0.15-0.215,0.186-0.371,0.186
				C51.121,51.402,51.266,51.377,51.422,51.385z"/>
			<path fill-rule="evenodd" clip-rule="evenodd" fill="#9FD6EE" d="M51.053,51.57c-0.061,0.062-0.121,0.127-0.18,0.191
				c-0.064-0.002-0.127-0.004-0.189-0.004l-0.016-0.018C50.754,51.588,50.895,51.561,51.053,51.57z"/>
			<path fill-rule="evenodd" clip-rule="evenodd" fill="#9FD6EE" d="M50.684,51.758c-0.07,0.045-0.139,0.09-0.211,0.129
				c-0.002,0.002-0.031-0.043-0.047-0.066c0.08-0.027,0.162-0.053,0.242-0.08L50.684,51.758z"/>
			<path fill-rule="evenodd" clip-rule="evenodd" fill="#B3E0F3" d="M41.244,58.26c0.062-0.072,0.125-0.143,0.186-0.213
				C41.369,58.117,41.307,58.188,41.244,58.26z"/>
			<path fill-rule="evenodd" clip-rule="evenodd" fill="#6DA620" d="M39.02,27.135c-0.119,0.464-0.238,0.929-0.357,1.394
				c-0.049,0.191,0.08,0.487-0.189,0.546c-0.279,0.061-0.546-0.104-0.674-0.357c-0.39-0.77-0.684-0.388-0.986,0.059
				c-0.751-0.529-1.709-0.663-2.419-1.27c0.353-0.157,0.292-0.62,0.584-0.891c0.072,0.148,0.117,0.221,0.145,0.301
				c0.1,0.287,0.05,0.782,0.526,0.646c0.403-0.114,0.447-0.497,0.292-0.912c-0.092-0.245-0.05-0.54-0.068-0.812
				c0.432,0.125,0.864,0.249,1.296,0.372c0.276,0.003,0.417,0.197,0.591,0.376c0.209,0.215,0.556,0.44,0.797,0.218
				C39.375,26.047,38.874,27.024,39.02,27.135z"/>
			<path fill-rule="evenodd" clip-rule="evenodd" fill="#80B933" d="M39.02,27.135c-0.146-0.111,0.355-1.088-0.463-0.331
				c-0.241,0.222-0.587-0.002-0.797-0.218c-0.175-0.179-0.315-0.373-0.591-0.376c0.127-0.494-0.277-0.899-0.303-1.481
				c0.388,0.194,0.544,0.753,0.976,0.467c0.518-0.344-0.137-0.694-0.001-1.191c0.418,0.369,0.674-0.022,1-0.202
				c0.84,0.353,1.484,0.947,2.034,1.656c-0.337,0.344-0.748,0.433-1.281,0.232c0.177,0.655,0.33,1.211-0.398,1.459
				C39.135,27.147,39.078,27.142,39.02,27.135z"/>
			<path fill-rule="evenodd" clip-rule="evenodd" fill="#6DA620" d="M39.193,27.15c0.729-0.248,0.575-0.804,0.398-1.459
				c0.533,0.2,0.944,0.112,1.281-0.232c0.637,0.42,1.075,1.021,1.481,1.648c-0.4,0.061-0.369,1.626-1.1,0.282
				c-0.27,0.205-0.176,0.438-0.199,0.64c-0.041,0.373-0.209,0.429-0.475,0.193c-0.294-0.261-0.509-0.532-1.023-0.407
				C39.08,27.932,39.258,27.413,39.193,27.15z"/>
			<path fill-rule="evenodd" clip-rule="evenodd" fill="#8BC63F" d="M34.394,27.506c0.71,0.606,1.668,0.74,2.419,1.27
				c0.614,0.377,1.228,0.754,1.841,1.132c-0.074,0.072-0.149,0.145-0.223,0.217c-1.368-0.685-2.73-1.385-4.111-2.043
				c-0.299-0.142-0.333-0.315-0.296-0.576C34.147,27.506,34.271,27.506,34.394,27.506z"/>
			<path fill-rule="evenodd" clip-rule="evenodd" fill="#6DA620" d="M47.533,35.833c0.062-0.37,0.123-0.74,0.184-1.109
				c0.002-0.119,0.004-0.237,0.008-0.356c0.006-0.067,0.014-0.133,0.021-0.199c0.121-0.312,0.24-0.625,0.359-0.938
				c0.113,0.001,0.225,0.001,0.338,0.002C48.256,34.141,48.143,35.073,47.533,35.833z"/>
			<path fill-rule="evenodd" clip-rule="evenodd" fill="#8BC63F" d="M48.631,30.474c0.121-0.251,0.242-0.502,0.363-0.752
				c0.062,0,0.127,0,0.189,0c0.145,0.67-0.475,1.186-0.371,1.848c-0.111,0-0.221,0-0.332,0
				C48.381,31.184,48.588,30.841,48.631,30.474z"/>
			<path fill-rule="evenodd" clip-rule="evenodd" fill="#80B933" d="M48.48,31.571c0.111,0,0.221,0,0.332,0
				c0.006,0.064,0.012,0.13,0.018,0.195c-0.129,0.489-0.258,0.979-0.387,1.467c-0.113-0.001-0.225-0.001-0.338-0.002
				C48.23,32.677,48.355,32.124,48.48,31.571z"/>
			<path fill-rule="evenodd" clip-rule="evenodd" fill="#80B933" d="M38.432,30.125c0.074-0.072,0.149-0.145,0.223-0.217
				c0.369,0.248,0.854,0.323,1.104,0.748c-0.069,0.072-0.139,0.144-0.207,0.216C39.045,30.821,38.78,30.411,38.432,30.125z"/>
			<path fill-rule="evenodd" clip-rule="evenodd" fill="#6DA620" d="M39.551,30.871c0.068-0.072,0.138-0.144,0.207-0.216
				c0.296,0.274,1.045,0.198,0.729,0.945C40.071,31.491,39.813,31.178,39.551,30.871z"/>
			<path fill-rule="evenodd" clip-rule="evenodd" fill="#406F00" d="M47.746,34.168c-0.008,0.066-0.016,0.132-0.021,0.199
				C47.588,34.285,47.596,34.219,47.746,34.168z"/>
			<path fill-rule="evenodd" clip-rule="evenodd" fill="#D5EDF8" d="M58.453,52.488c-0.137,0.498-0.279,0.99-0.744,1.299
				C57.773,53.25,57.848,52.717,58.453,52.488z"/>
			<path fill-rule="evenodd" clip-rule="evenodd" fill="#D5EDF8" d="M57.15,55.447c-0.184,0.125-0.367,0.25-0.553,0.377
				c0.029-0.404,0.041-0.82,0.559-0.93C57.154,55.078,57.152,55.264,57.15,55.447z"/>
			<path fill-rule="evenodd" clip-rule="evenodd" fill="#D5EDF8" d="M56.602,55.82c-0.01,0.264-0.129,0.451-0.373,0.559
				C56.229,56.109,56.229,55.84,56.602,55.82z"/>
			<path fill-rule="evenodd" clip-rule="evenodd" fill="#D5EDF8" d="M58.637,51.934c-0.002,0.207,0.029,0.424-0.188,0.559
				C58.453,52.287,58.414,52.066,58.637,51.934z"/>
			<path fill-rule="evenodd" clip-rule="evenodd" fill="#D5EDF8" d="M57.711,53.783c-0.002,0.154-0.035,0.295-0.186,0.375
				C57.527,54.004,57.561,53.863,57.711,53.783z"/>
			<path fill-rule="evenodd" clip-rule="evenodd" fill="#D5EDF8" d="M57.527,54.154c-0.004,0.152-0.037,0.293-0.188,0.373
				C57.342,54.373,57.375,54.234,57.527,54.154z"/>
			<path fill-rule="evenodd" clip-rule="evenodd" fill="#D5EDF8" d="M57.342,54.523c-0.006,0.154-0.039,0.293-0.188,0.375
				C57.156,54.744,57.189,54.604,57.342,54.523z"/>
			<path fill-rule="evenodd" clip-rule="evenodd" fill="#D5EDF8" d="M56.232,56.375c-0.006,0.152-0.041,0.291-0.189,0.375
				C56.047,56.594,56.078,56.453,56.232,56.375z"/>
			<path fill-rule="evenodd" clip-rule="evenodd" fill="#558F13" d="M25.859,26.771c-0.103,0.003-0.206,0.005-0.309,0.008
				c-0.233-0.469-0.232-0.979-0.261-1.483c0.013-0.374,0.026-0.747,0.039-1.12c0.06-0.062,0.121-0.122,0.181-0.183
				c0.312-0.368,0.623-0.737,0.935-1.105c2.49-1.676,5.624-0.908,7.077,1.728c0.112,0.204,0.156,0.481,0.451,0.539
				c0.006,0.604,0.012,1.207,0.018,1.811c-0.113-0.004-0.227-0.007-0.34-0.011l-0.027,0.017c0.495-2.825-2.952-4.911-5.145-4.272
				c-0.823-0.037-1.423,0.385-1.967,0.94c-0.258,0.264-0.555,0.496-0.254,0.907c-1.039,0.506-0.524,1.308-0.387,2.038
				C25.866,26.646,25.862,26.708,25.859,26.771z"/>
			<path fill-rule="evenodd" clip-rule="evenodd" fill="#8BC63F" d="M38.839,23.803c-0.325,0.18-0.581,0.571-1,0.202
				c-0.136,0.497,0.519,0.847,0.001,1.191c-0.432,0.287-0.588-0.272-0.976-0.467c0.026,0.582,0.431,0.988,0.303,1.481
				c-0.432-0.124-0.864-0.248-1.296-0.372c-0.068-0.177-0.194-0.294-0.368-0.365c-0.165-0.508-0.329-1.017-0.519-1.604
				c0.443,0.092,0.451,0.444,0.605,0.665c0.159,0.229,0.209,0.659,0.639,0.444c0.369-0.184,0.399-0.497,0.183-0.844
				c-0.061-0.099-0.084-0.22-0.176-0.466c0.829,0.37,1.153-0.313,1.66-0.595C38.222,23.302,38.622,23.434,38.839,23.803z"/>
			<path fill-rule="evenodd" clip-rule="evenodd" fill="#8BC63F" d="M26.444,22.888c-0.312,0.368-0.623,0.737-0.935,1.105
				c-0.251-0.366-0.839-0.386-0.931-0.913c0.464-0.022,0.762-0.182,0.368-0.646c-0.605-0.715-0.806-1.462-0.357-2.325
				c0.462-0.006,0.869,0.187,1.283,0.354c-0.012,0.283,0.1,0.483-0.144,0.847C25.337,21.893,25.834,22.516,26.444,22.888z"/>
			<path fill-rule="evenodd" clip-rule="evenodd" fill="#80B933" d="M35.504,25.473c0.173,0.071,0.3,0.188,0.368,0.365
				c0.019,0.272-0.024,0.568,0.068,0.812c0.155,0.415,0.111,0.798-0.292,0.912c-0.476,0.135-0.426-0.36-0.526-0.646
				c-0.027-0.08-0.072-0.153-0.145-0.301c-0.292,0.271-0.231,0.734-0.584,0.891c-0.124,0-0.247,0-0.37-0.001
				c-0.011-0.18-0.022-0.36-0.034-0.54c-0.006-0.604-0.012-1.208-0.019-1.811C34.545,24.959,34.931,25.665,35.504,25.473z"/>
			<path fill-rule="evenodd" clip-rule="evenodd" fill="#78AF48" d="M34.11,21.392c-0.048-0.03-0.095-0.06-0.141-0.09
				c0.05-0.024,0.101-0.07,0.149-0.068c0.048,0.002,0.095,0.051,0.142,0.08C34.21,21.339,34.161,21.365,34.11,21.392z"/>
			<path fill-rule="evenodd" clip-rule="evenodd" fill="#80B933" d="M44.201,23.982c0.227-0.748,0.289-1.55,0.746-2.22
				c0.309,0.306-0.035,0.568-0.066,0.849c-0.127,1.177-0.756,2.246-0.205,3.569c0.346,0.827,1.109,0.864,1.5,1.438
				c0.459-0.363,0.34-0.923,0.477-1.396c0.006-0.019,0.045-0.028,0.127-0.078c0.246,0.233,0.51,0.482,0.771,0.731
				c0.186,0.178,0.381,0.333,0.65,0.179c0.217-0.124,0.227-0.317,0.215-0.556c-0.033-0.673,0.232-1.46,0.551-1.835
				c0.881-1.044,0.912-2.276,1.074-3.447c0.107-0.771,0.559-1.594,0.086-2.406c0-0.309-0.002-0.617-0.002-0.925
				c0.404-0.037,0.338-0.349,0.379-0.617c0.174-1.154,0.361-2.306,0.543-3.458l0,0c0.064,0,0.129,0,0.191,0
				c0.123,0.063,0.246,0.125,0.369,0.188c-0.186,0.247-0.01,0.493,0.004,0.739c-0.289,0.289-0.061,0.332,0.176,0.372
				c-0.002,0.184-0.002,0.367-0.004,0.55c-0.184,0.003-0.369,0.005-0.555,0.008c-0.051,0.074-0.143,0.145-0.148,0.223
				c-0.191,2.316-0.615,4.599-0.973,6.891c-0.295,1.893-0.51,3.803-1.066,5.646c-0.4,0.111-0.863,0.097-1.02,0.632
				c-0.072,0.244-0.291,0.292-0.531,0.186c-0.277-0.122-0.531-0.027-0.805,0.056c-1.324,0.406-2.645-0.536-2.664-1.922
				C44.008,26.246,43.93,25.104,44.201,23.982z"/>
			<path fill-rule="evenodd" clip-rule="evenodd" fill="#97D14A" d="M49.041,28.428c0.557-1.843,0.771-3.754,1.066-5.646
				c0.357-2.292,0.781-4.575,0.973-6.891c0.006-0.078,0.098-0.148,0.148-0.223c0.021,1.933-0.256,3.84-0.521,5.746
				c-0.25,1.784-0.516,3.565-0.773,5.347c-0.295,0.456-0.166,1.013-0.355,1.494c-0.131,0.489-0.264,0.979-0.395,1.468
				c-0.062,0-0.127,0-0.189,0C49.01,29.291,49.025,28.859,49.041,28.428z"/>
			<path fill-rule="evenodd" clip-rule="evenodd" fill="#8BC63F" d="M25.29,25.296c0.029,0.504,0.028,1.014,0.261,1.483
				c0.203,0.816,0.548,1.559,1.117,2.187c1.166,1.522,2.692,2.085,4.569,1.722c0.001,0.109,0.002,0.218,0.004,0.327
				c0,0-0.003,0.003-0.003,0.003c-0.984,0.167-1.968,0.334-2.9,0.493c-0.082,0.261,0.047,0.228,0.116,0.248
				c0.3,0.084,0.8-0.192,0.874,0.255c0.089,0.546-0.45,0.444-0.789,0.511c-0.185,0.037-0.227,0.184-0.249,0.342
				c-1.618-1.149-2.756-2.721-3.947-4.28c-1.249-1.635-2.005-3.501-2.942-5.286c-0.106-0.202-0.149-0.396-0.142-0.613
				c0.96-0.307,0.962-0.308,1.807,0.617c0.204,0.223,0.36,0.51,0.601,0.675C24.247,24.377,24.477,25.198,25.29,25.296z"/>
			<path fill-rule="evenodd" clip-rule="evenodd" fill="#80B933" d="M25.29,25.296c-0.812-0.098-1.043-0.919-1.622-1.314
				c-0.241-0.165-0.397-0.452-0.601-0.675c-0.845-0.925-0.847-0.924-1.807-0.617c-0.231-0.602-0.564-1.172-0.562-1.845
				c0.611-0.074,0.883,0.493,1.335,0.721c0.236,0.119,0.381,0.408,0.701,0.39l-0.001,0c0,0.248,0.128,0.368,0.372,0.372
				l-0.002-0.002c0.078,0.533,0.403,0.759,0.922,0.747c0.16,0.691,0.745,0.882,1.303,1.105
				C25.315,24.549,25.302,24.922,25.29,25.296z"/>
			<path fill-rule="evenodd" clip-rule="evenodd" fill="#97D14A" d="M50.125,17.885c0,0.309,0.002,0.617,0.002,0.925
				c-0.125-0.062-0.248-0.125-0.373-0.187c-0.031-0.292-0.105-0.553-0.496-0.7c0.023,0.413,0.125,0.655,0.496,0.7
				c-0.018,0.309,0.051,0.598,0.137,0.896c0.119,0.416-0.02,0.725-0.508,0.771c-0.031-0.292-0.104-0.553-0.551-0.721
				c0.117,0.407,0.16,0.689,0.551,0.72c0.061,0.33,0.156,0.658,0.174,0.99c0.029,0.575-0.17,0.926-0.879,0.563
				c0.082,0.316,0.127,0.524,0.191,0.725c0.105,0.333,0.443,0.625,0.145,1.02c-0.395,0.521-0.506-0.457-0.859-0.172
				c0.012,0.074,0.018,0.134,0.027,0.193c0.061,0.365,0.627,0.71,0.256,1.042c-0.326,0.293-0.729-0.033-1.047-0.307
				c-0.252-0.218-0.369-0.055-0.412,0.218c-0.049,0.301-0.131,0.597-0.184,0.897c-0.049,0.269-0.131,0.379-0.428,0.224
				c-1.309-0.683-1.465-1.046-1.023-2.473c0.191-0.615,0.334-1.247,0.566-1.845c0.172-0.44,0.104-0.77-0.219-1.078
				c0.713-1.558,1.654-2.967,2.824-4.213c0.564-0.601,1.189-1.145,1.787-1.714c0.283,0.471,0,0.946-0.219,1.23
				C49.451,16.413,49.754,17.129,50.125,17.885z M47.852,22.766c-0.021,0.051-0.074,0.114-0.059,0.151
				c0.016,0.038,0.096,0.049,0.146,0.071c0.021-0.051,0.072-0.114,0.059-0.15C47.982,22.8,47.902,22.788,47.852,22.766z"/>
			<path fill-rule="evenodd" clip-rule="evenodd" fill="#8BC63F" d="M45.691,20.287c0.322,0.309,0.391,0.638,0.219,1.078
				c-0.232,0.598-0.375,1.23-0.566,1.845c-0.441,1.427-0.285,1.791,1.023,2.473c0.297,0.155,0.379,0.045,0.428-0.224
				c0.053-0.3,0.135-0.596,0.184-0.897c0.043-0.273,0.16-0.436,0.412-0.218c0.318,0.274,0.721,0.6,1.047,0.307
				c0.371-0.333-0.195-0.677-0.256-1.042c-0.01-0.059-0.016-0.119-0.027-0.193c0.354-0.285,0.465,0.692,0.859,0.172
				c0.299-0.394-0.039-0.687-0.145-1.02c-0.064-0.201-0.109-0.409-0.191-0.725c0.709,0.363,0.908,0.012,0.879-0.563
				c-0.018-0.332-0.113-0.66-0.174-0.99v0c0.488-0.046,0.627-0.354,0.508-0.771c-0.086-0.298-0.154-0.587-0.137-0.896l0,0
				c0.125,0.062,0.248,0.125,0.373,0.187c0.473,0.812,0.021,1.635-0.086,2.406c-0.162,1.171-0.193,2.403-1.074,3.447
				c-0.318,0.375-0.584,1.162-0.551,1.835c0.012,0.238,0.002,0.432-0.215,0.556c-0.27,0.154-0.465-0.001-0.65-0.179
				c-0.262-0.25-0.525-0.498-0.771-0.731c-0.082,0.049-0.121,0.059-0.127,0.078c-0.137,0.473-0.018,1.032-0.477,1.396
				c-0.391-0.573-1.154-0.611-1.5-1.438c-0.551-1.323,0.078-2.392,0.205-3.569c0.031-0.281,0.375-0.542,0.066-0.849
				C44.986,21.165,45.508,20.812,45.691,20.287z"/>
			<path fill-rule="evenodd" clip-rule="evenodd" fill="#97D14A" d="M51.611,14.737c-0.014-0.246-0.189-0.492-0.004-0.739
				c0.76,1.193,1.295,2.472,1.475,3.885c-0.117,1.304,0.248,2.584,0.195,3.885c-0.461,0.19-0.471,0.877-1.062,0.969
				c0-1.044,0.016-2.069-0.004-3.094c-0.025-1.339-0.121-2.673-0.428-3.983c0.002-0.183,0.002-0.367,0.004-0.55
				C51.787,14.958,51.758,14.82,51.611,14.737z"/>
			<path fill-rule="evenodd" clip-rule="evenodd" fill="#8BC63F" d="M50.125,17.885c-0.371-0.756-0.674-1.472-0.041-2.296
				c0.219-0.284,0.502-0.76,0.219-1.23c0.172-0.287,0.369-0.536,0.744-0.548c-0.182,1.152-0.369,2.304-0.543,3.458
				C50.463,17.537,50.529,17.849,50.125,17.885z"/>
			<path fill-rule="evenodd" clip-rule="evenodd" fill="#8BC63F" d="M51.238,13.81c-0.062,0-0.127,0-0.191,0
				C51.109,13.677,51.174,13.688,51.238,13.81z"/>
			<path fill-rule="evenodd" clip-rule="evenodd" fill="#D5EDF8" d="M60.309,29.003c-0.762-0.359-1.338-0.903-1.672-1.687
				C59.402,27.671,59.971,28.223,60.309,29.003z"/>
			<path fill-rule="evenodd" clip-rule="evenodd" fill="#D5EDF8" d="M55.125,24.546c-0.264,0.023-0.502-0.051-0.719-0.196
				c-0.004-0.112-0.008-0.225-0.01-0.337C54.676,24.142,54.982,24.23,55.125,24.546z"/>
			<path fill-rule="evenodd" clip-rule="evenodd" fill="#D5EDF8" d="M56.248,25.286c-0.275,0.002-0.551,0.006-0.574-0.375
				C55.939,24.922,56.123,25.058,56.248,25.286z"/>
			<path fill-rule="evenodd" clip-rule="evenodd" fill="#D5EDF8" d="M55.68,24.916c-0.271,0.001-0.541-0.001-0.561-0.375
				C55.383,24.553,55.57,24.674,55.68,24.916z"/>
			<path fill-rule="evenodd" clip-rule="evenodd" fill="#D5EDF8" d="M56.791,25.841c-0.25-0.012-0.373-0.145-0.377-0.393
				C56.639,25.485,56.783,25.596,56.791,25.841z"/>
			<path fill-rule="evenodd" clip-rule="evenodd" fill="#D5EDF8" d="M58.455,27.136c-0.158-0.001-0.299-0.046-0.389-0.19
				C58.227,26.946,58.371,26.979,58.455,27.136z"/>
			<path fill-rule="evenodd" clip-rule="evenodd" fill="#D5EDF8" d="M57.9,26.591c-0.154-0.013-0.297-0.046-0.377-0.2
				C57.684,26.395,57.822,26.437,57.9,26.591z"/>
			<path fill-rule="evenodd" clip-rule="evenodd" fill="#D5EDF8" d="M57.16,26.026c-0.156-0.003-0.295-0.038-0.377-0.19
				C56.939,25.838,57.078,25.876,57.16,26.026z"/>
			<path fill-rule="evenodd" clip-rule="evenodd" fill="#D5EDF8" d="M57.346,26.212c-0.064-0.063-0.127-0.127-0.191-0.191
				C57.219,26.085,57.281,26.149,57.346,26.212z"/>
			<path fill-rule="evenodd" clip-rule="evenodd" fill="#D5EDF8" d="M57.531,26.397c-0.064-0.064-0.129-0.127-0.191-0.191
				C57.402,26.27,57.467,26.333,57.531,26.397z"/>
			<path fill-rule="evenodd" clip-rule="evenodd" fill="#D5EDF8" d="M58.641,27.323c-0.062-0.064-0.127-0.127-0.191-0.191
				C58.514,27.195,58.578,27.259,58.641,27.323z"/>
			<path fill-rule="evenodd" clip-rule="evenodd" fill="#80B933" d="M24.589,20.109c-0.449,0.862-0.249,1.61,0.357,2.325
				c0.394,0.464,0.096,0.624-0.368,0.646c0,0-0.002-0.01-0.002-0.01c-0.186-0.387-0.536-0.501-0.922-0.554l0.001-0.001
				c-0.069-0.062-0.139-0.123-0.208-0.185c-0.115-0.001-0.23-0.003-0.345-0.005l0.002,0.002c-0.07-0.178-0.193-0.303-0.372-0.372
				l0.001,0c0.941-0.39,0.509-1.409,0.935-2.035C23.976,19.983,24.283,20.046,24.589,20.109z"/>
			<path fill-rule="evenodd" clip-rule="evenodd" fill="#7FC9E8" d="M31.961,46.736c-1.17,2.234-1.925,4.619-2.545,7.053
				c-0.303,1.328-0.608,2.654-0.909,3.982c-0.04,0.174-0.02,0.371-0.224,0.463c-0.036-2.053,0.688-3.963,1.107-5.932
				c0.437-1.137,0.846-2.285,1.121-3.477c0.459-0.543,0.545-1.268,0.903-1.859c0.166-0.275,0.201-0.648,0.572-0.77
				C31.979,46.377,31.97,46.557,31.961,46.736z"/>
			<path fill-rule="evenodd" clip-rule="evenodd" fill="#8BC63F" d="M51.783,15.66c0.307,1.311,0.402,2.645,0.428,3.983
				c0.02,1.024,0.004,2.049,0.004,3.094c0.592-0.092,0.602-0.778,1.062-0.969c0.705,0.519,0.363,1.178,0.193,1.776
				c-0.109,0.392-0.355,0.739,0.164,1.002c0,0.184-0.002,0.367-0.002,0.551c-0.236,0.043-0.461,0.092-0.172,0.375
				c-0.006,0.123-0.012,0.245-0.02,0.367c-0.453,0.23-1.066,0.293-0.619,1.12c0.281,0.518-0.623,1.795-1.215,1.924
				c-0.416,0.09-0.609-0.326-0.967-0.402c-0.512-0.109-0.07-0.586-0.258-0.85c-0.189-0.267,0.123-0.795-0.449-0.871
				c0.258-1.782,0.523-3.563,0.773-5.347c0.266-1.906,0.543-3.813,0.521-5.746C51.414,15.665,51.6,15.663,51.783,15.66z"/>
			<path fill-rule="evenodd" clip-rule="evenodd" fill="#6DA620" d="M53.441,25.839c0.008-0.123,0.014-0.245,0.02-0.367
				c0.146-0.085,0.176-0.222,0.172-0.375c0-0.184,0.002-0.368,0.002-0.551c0.182,0.003,0.359,0.006,0.541,0.01
				c0.025,0.268,0.051,0.534,0.078,0.802c-0.01,0.146-0.018,0.291-0.027,0.436c-0.004,0.088-0.008,0.175-0.012,0.263
				c-0.02,1.136-0.152,2.252-0.559,3.322c-0.09-0.282-0.186-0.552-0.398-0.07c-0.076,0.17-0.203,0.214-0.361,0.232
				c0.148-0.747,0.242-1.5,0.445-2.241C53.467,26.845,53.797,26.348,53.441,25.839z"/>
			<path fill-rule="evenodd" clip-rule="evenodd" fill="#9FD6EE" d="M36.06,63.619c-0.007-0.275-0.021-0.559,0.374-0.576
				C36.439,63.32,36.269,63.482,36.06,63.619z"/>
			<path fill-rule="evenodd" clip-rule="evenodd" fill="#9FD6EE" d="M37.357,62.15c-0.009-0.166,0.007-0.322,0.186-0.402
				C37.564,61.92,37.492,62.049,37.357,62.15z"/>
			<path fill-rule="evenodd" clip-rule="evenodd" fill="#9FD6EE" d="M35.689,63.969c0.072-0.062,0.146-0.125,0.218-0.188
				C35.835,63.844,35.763,63.906,35.689,63.969z"/>
			<path fill-rule="evenodd" clip-rule="evenodd" fill="#9FD6EE" d="M36.432,63.043c0.062-0.062,0.124-0.125,0.187-0.188
				C36.556,62.918,36.494,62.98,36.432,63.043z"/>
			<path fill-rule="evenodd" clip-rule="evenodd" fill="#9FD6EE" d="M36.616,62.857c0.078-0.061,0.154-0.121,0.232-0.184
				C36.771,62.736,36.693,62.797,36.616,62.857z"/>
			<path fill-rule="evenodd" clip-rule="evenodd" fill="#67B7DA" d="M32.544,45.084c0.03-0.553,0.156-1.051,0.735-1.289
				C33.159,44.295,33.015,44.783,32.544,45.084z"/>
			<path fill-rule="evenodd" clip-rule="evenodd" fill="#7FC9E8" d="M31.986,46.199c-0.054-0.391,0.013-0.736,0.366-0.975
				c0.013,0.088,0.025,0.176,0.038,0.262C32.315,45.758,32.254,46.037,31.986,46.199z"/>
			<path fill-rule="evenodd" clip-rule="evenodd" fill="#67B7DA" d="M32.39,45.486c-0.013-0.086-0.025-0.174-0.038-0.262
				c0.062-0.045,0.125-0.09,0.187-0.133C32.564,45.252,32.519,45.385,32.39,45.486z"/>
			<path fill-rule="evenodd" clip-rule="evenodd" fill="#B3E0F3" d="M40.136,59.162c0.062-0.062,0.124-0.125,0.187-0.188
				C40.26,59.037,40.199,59.1,40.136,59.162z"/>
			<path fill-rule="evenodd" clip-rule="evenodd" fill="#B3E0F3" d="M40.139,59.344c-0.125-0.062-0.145-0.125,0.003-0.186
				C40.141,59.221,40.14,59.283,40.139,59.344z"/>
			<path fill-rule="evenodd" clip-rule="evenodd" fill="#2DA8DC" d="M21.907,49.479c0.919,0.219,1.999,0.469,3.075,0.73
				c0.338,0.082,0.409,0.316,0.341,0.639c-0.224,1.055-0.448,2.109-0.644,3.17c-0.08,0.428-0.208,0.568-0.668,0.395
				c-1.007-0.379-1.998-0.783-2.929-1.33c-0.539-0.314-0.805-0.738-0.662-1.379c0.107-0.48,0.166-0.975,0.301-1.447
				C20.861,49.768,21.201,49.477,21.907,49.479z"/>
			<path fill-rule="evenodd" clip-rule="evenodd" fill="#67B7DA" d="M30.512,48.826c-0.275,1.191-0.684,2.34-1.121,3.477
				c-0.705-0.082-1.478,0-1.887-0.787c0.253-1.029,0.57-2.031,1.117-2.947C29.25,48.654,29.881,48.74,30.512,48.826z"/>
			<path fill-rule="evenodd" clip-rule="evenodd" fill="#138EC1" d="M26.482,44.203c0.276-0.061,0.467,0.012,0.503,0.324
				C26.782,44.475,26.462,44.604,26.482,44.203z"/>
			<path fill-rule="evenodd" clip-rule="evenodd" fill="#78AF48" d="M54.215,26.056c0.004-0.087,0.008-0.175,0.012-0.263
				C54.318,25.885,54.318,25.973,54.215,26.056z"/>
			<path fill-rule="evenodd" clip-rule="evenodd" fill="#6DA620" d="M49.184,29.723c0.131-0.489,0.264-0.979,0.395-1.468
				c0.256-0.003,0.561,0.01,0.523,0.345c-0.102,0.916,0.492,0.768,1.053,0.632c-0.014,0.498-0.34,1.024,0.031,1.282
				c0.322,0.223,0.695-0.252,1.064-0.367c0.088-0.027,0.18-0.039,0.27-0.058c-0.236,1.442-0.395,2.914-2.084,3.517
				c-0.383,0.137-0.562,0.157-0.426-0.276c0.137-0.435,0.074-0.663-0.406-0.645c-0.668,0.025-0.141-0.931-0.773-0.919
				c-0.006-0.065-0.012-0.13-0.018-0.195C48.709,30.909,49.328,30.393,49.184,29.723z"/>
			<path fill-rule="evenodd" clip-rule="evenodd" fill="#80B933" d="M52.52,30.089c-0.09,0.019-0.182,0.031-0.27,0.058
				c-0.369,0.115-0.742,0.59-1.064,0.367c-0.371-0.257-0.045-0.784-0.031-1.282C50.594,29.367,50,29.515,50.102,28.6
				c0.037-0.334-0.268-0.348-0.523-0.345c0.189-0.481,0.061-1.039,0.355-1.494c0.572,0.075,0.26,0.604,0.449,0.871
				c0.188,0.264-0.254,0.741,0.258,0.85c0.357,0.076,0.551,0.492,0.967,0.402c0.592-0.129,1.496-1.406,1.215-1.924
				c-0.447-0.827,0.166-0.89,0.619-1.12c0.355,0.509,0.025,1.005-0.1,1.459c-0.203,0.741-0.297,1.495-0.445,2.241
				C52.77,29.723,52.645,29.906,52.52,30.089z"/>
			<path fill-rule="evenodd" clip-rule="evenodd" fill="#D5EDF8" d="M46.973,40.076c-0.068-0.184,0.01-0.295,0.18-0.361
				C47.148,39.863,47.133,40.005,46.973,40.076z"/>
			<path fill-rule="evenodd" clip-rule="evenodd" fill="#80B933" d="M47.344,48.965c-0.543-0.064-0.344-0.49-0.371-0.791
				c-0.104-1.094,0.189-2.207-0.164-3.289c0.041-0.432-0.199-0.93,0.295-1.254C47.361,45.402,47.414,47.182,47.344,48.965z"/>
			<path fill-rule="evenodd" clip-rule="evenodd" fill="#97D14A" d="M25.859,26.771c0.003-0.062,0.006-0.125,0.009-0.188
				c0.112-0.733,0.524-1.353,0.767-2.036c0.735-0.603,1.694-0.602,2.21,0.002c-0.272,0.329-0.292,0.578,0.172,0.766
				c0.597,0.24,1.208,0.471,1.756,0.802c1.198,0.725,1.554,0.575,1.756-0.835c0.066,0.001,0.133,0.002,0.2,0.003
				c0.174,0.627,0.336,1.261,0.892,1.686l0.027-0.017c-0.067,0.182-0.135,0.363-0.202,0.545c-0.579-0.114-1.09-0.499-1.923-0.432
				c0.856,0.346,0.472,0.726,0.144,1.14c0.46,0.029,0.817,0.094,1.061,0.405C30.687,30.517,26.678,29.219,25.859,26.771z
				 M28.47,26.209h-0.018c-0.274-0.018-0.548-0.049-0.822-0.048c-0.333,0.002-0.807-0.584-0.962,0.021
				c-0.162,0.631,0.548,0.616,0.948,0.739c0.274,0.084,0.612,0.122,0.866-0.136c0.733-0.071,1.403-0.034,1.552,0.901
				c-0.022,0.204-0.417,0.192-0.285,0.504c0.354,0.036,0.753,0.186,1.013-0.146c0.203-0.258-0.089-0.424-0.271-0.578
				c-0.003-0.238-0.005-0.477-0.008-0.715c-0.123-0.79-0.905-0.663-1.361-0.989C28.448,25.282,28.455,25.723,28.47,26.209z"/>
			<path fill-rule="evenodd" clip-rule="evenodd" fill="#558F13" d="M31.237,30.688c-1.877,0.363-3.404-0.2-4.569-1.722
				c0.828,0.066,1.294,0.865,2.132,0.985c1.521,0.218,2.99,0.417,4.158-0.909c0.14-0.16,0.318-0.333,0.514-0.043
				c0.022,0.334-0.076,0.587-0.403,0.75c-0.279,0.138-0.51,0.346-0.527,0.699C32.089,30.426,31.656,30.521,31.237,30.688z"/>
			<path fill-rule="evenodd" clip-rule="evenodd" fill="#80B933" d="M32.729,28.612c-0.243-0.311-0.601-0.376-1.061-0.405
				c0.328-0.414,0.712-0.794-0.144-1.14c0.833-0.066,1.344,0.318,1.923,0.432C33.395,27.991,33.132,28.347,32.729,28.612z"/>
			<path fill-rule="evenodd" clip-rule="evenodd" fill="#558F13" d="M41.441,32.3c0.215,0.034,0.416,0.091,0.465,0.341
				c0.021,0.106-0.051,0.176-0.154,0.156c-0.252-0.047-0.307-0.252-0.34-0.464C41.41,32.333,41.441,32.3,41.441,32.3z"/>
			<path fill-rule="evenodd" clip-rule="evenodd" fill="#80B933" d="M31.237,30.688c0.419-0.167,0.852-0.262,1.305-0.24
				c-0.289,0.521-0.813,0.501-1.301,0.567C31.24,30.906,31.239,30.797,31.237,30.688z"/>
			<path fill-rule="evenodd" clip-rule="evenodd" fill="#6DA620" d="M33.622,26.971c-0.556-0.425-0.718-1.059-0.892-1.686
				c0-0.265-0.116-0.454-0.365-0.556l-0.004-0.008c0.004-0.156-0.034-0.29-0.18-0.372c-0.062-0.061-0.125-0.122-0.188-0.183
				c-0.062-0.061-0.124-0.122-0.187-0.183c-0.062-0.062-0.123-0.123-0.184-0.184c-0.069-0.047-0.138-0.094-0.209-0.138
				c-0.002-0.001-0.032,0.045-0.05,0.069c0.082,0.027,0.164,0.054,0.246,0.082c0.062,0.062,0.123,0.123,0.184,0.184
				c0.061,0.062,0.122,0.125,0.183,0.187c0.061,0.062,0.121,0.126,0.182,0.188c0.003,0.121,0.006,0.241,0.009,0.361
				c-0.211,0.237-0.53,0.484-0.778,0.302c-0.73-0.535-1.675,0.124-2.362-0.491c0.091-0.122,0.161-0.27,0.275-0.361
				c0.616-0.495,0.404-0.759-0.242-0.9c-0.329-0.071-0.578-0.202-0.583-0.585C30.67,22.061,34.117,24.146,33.622,26.971z"/>
			<path fill-rule="evenodd" clip-rule="evenodd" fill="#78AF48" d="M28.477,22.699c0.005,0.383,0.254,0.514,0.583,0.585
				c0.646,0.141,0.858,0.405,0.242,0.9c-0.114,0.092-0.184,0.24-0.275,0.361c-0.061,0-0.122,0.002-0.182,0.005
				c-0.516-0.604-1.475-0.605-2.21-0.002c-0.126,0-0.253-0.001-0.38-0.002c-0.3-0.411-0.004-0.643,0.254-0.907
				C27.054,23.083,27.654,22.662,28.477,22.699z"/>
			<path fill-rule="evenodd" clip-rule="evenodd" fill="#6DA620" d="M26.255,24.545c0.126,0,0.253,0.001,0.38,0.002
				c-0.243,0.683-0.655,1.303-0.767,2.036C25.731,25.853,25.217,25.051,26.255,24.545z"/>
			<path fill-rule="evenodd" clip-rule="evenodd" fill="#6DA620" d="M25.328,24.176c-0.558-0.224-1.143-0.414-1.303-1.105
				l0.013-0.017c0.18,0.005,0.359,0.01,0.539,0.016c0,0,0.002,0.01,0.002,0.01c0.092,0.527,0.68,0.547,0.931,0.913
				C25.449,24.054,25.388,24.114,25.328,24.176z"/>
			<path fill-rule="evenodd" clip-rule="evenodd" fill="#8BC63F" d="M51.611,14.737c0.146,0.083,0.176,0.22,0.176,0.372
				C51.551,15.069,51.322,15.026,51.611,14.737z"/>
			<path fill-rule="evenodd" clip-rule="evenodd" fill="#6DA620" d="M23.103,22.324c0.115,0.002,0.23,0.004,0.346,0.005
				c0.069,0.062,0.138,0.124,0.208,0.185l-0.001,0.001c0.128,0.179,0.256,0.359,0.383,0.539l-0.013,0.017
				C23.506,23.083,23.18,22.856,23.103,22.324z"/>
			<path fill-rule="evenodd" clip-rule="evenodd" fill="#6DA620" d="M22.733,21.955c0.179,0.069,0.302,0.193,0.372,0.372
				C22.861,22.322,22.733,22.203,22.733,21.955z"/>
			<path fill-rule="evenodd" clip-rule="evenodd" fill="#8BC63F" d="M49.383,20.289c-0.391-0.031-0.434-0.313-0.551-0.72
				C49.279,19.737,49.352,19.998,49.383,20.289L49.383,20.289z"/>
			<path fill-rule="evenodd" clip-rule="evenodd" fill="#8BC63F" d="M49.754,18.624c-0.371-0.045-0.473-0.287-0.496-0.7
				C49.648,18.07,49.723,18.331,49.754,18.624L49.754,18.624z"/>
			<path fill-rule="evenodd" clip-rule="evenodd" fill="#8BC63F" d="M47.852,22.766c0.051,0.022,0.131,0.034,0.146,0.072
				c0.014,0.036-0.037,0.099-0.059,0.15c-0.051-0.022-0.131-0.034-0.146-0.071C47.777,22.879,47.83,22.817,47.852,22.766z"/>
			<path fill-rule="evenodd" clip-rule="evenodd" fill="#8BC63F" d="M24.038,23.054c-0.127-0.18-0.255-0.359-0.383-0.539
				c0.386,0.053,0.736,0.167,0.922,0.554C24.396,23.064,24.217,23.059,24.038,23.054z"/>
			<path fill-rule="evenodd" clip-rule="evenodd" fill="#8BC63F" d="M23.656,22.514c-0.069-0.062-0.138-0.123-0.208-0.185
				C23.517,22.391,23.586,22.453,23.656,22.514z"/>
			<path fill-rule="evenodd" clip-rule="evenodd" fill="#80B933" d="M53.633,25.097c0.004,0.153-0.025,0.29-0.172,0.375
				C53.172,25.189,53.396,25.14,53.633,25.097z"/>
			<path fill-rule="evenodd" clip-rule="evenodd" fill="#80B933" d="M28.845,24.55c0.061-0.003,0.122-0.004,0.182-0.005
				c0.687,0.614,1.632-0.044,2.362,0.491c0.249,0.182,0.567-0.065,0.778-0.302c0.064-0.004,0.129-0.008,0.193-0.012l0.004,0.008
				c-0.005,0.202-0.04,0.413,0.165,0.553c-0.202,1.41-0.558,1.56-1.756,0.835c-0.548-0.331-1.159-0.562-1.756-0.802
				C28.554,25.128,28.573,24.879,28.845,24.55z"/>
			<path fill-rule="evenodd" clip-rule="evenodd" fill="#8BC63F" d="M28.481,26.784c-0.253,0.258-0.591,0.221-0.866,0.136
				c-0.4-0.123-1.11-0.108-0.948-0.739c0.156-0.604,0.63-0.019,0.962-0.021c0.274-0.001,0.548,0.03,0.822,0.048
				C28.597,26.394,28.567,26.587,28.481,26.784z"/>
			<path fill-rule="evenodd" clip-rule="evenodd" fill="#80B933" d="M28.481,26.784c0.085-0.197,0.116-0.39-0.03-0.575h0.018
				c0.81-0.333,1.319,0.446,2.012,0.542c0.003,0.239,0.005,0.477,0.008,0.715c-0.152,0.073-0.304,0.146-0.457,0.219
				C29.885,26.75,29.214,26.713,28.481,26.784z"/>
			<path fill-rule="evenodd" clip-rule="evenodd" fill="#6DA620" d="M30.482,26.751c-0.693-0.096-1.203-0.875-2.012-0.542
				c-0.015-0.486-0.022-0.927,0.651-0.447C29.577,26.088,30.359,25.961,30.482,26.751z"/>
			<path fill-rule="evenodd" clip-rule="evenodd" fill="#D5EDF8" d="M30.034,27.686c0.152-0.073,0.304-0.146,0.457-0.219
				c0.182,0.154,0.474,0.32,0.271,0.578c-0.26,0.332-0.659,0.182-1.013,0.146C29.617,27.878,30.011,27.889,30.034,27.686z"/>
			<path fill-rule="evenodd" clip-rule="evenodd" fill="#78AF48" d="M32.53,25.282c-0.205-0.14-0.169-0.351-0.165-0.553
				c0.249,0.102,0.364,0.291,0.365,0.556C32.663,25.284,32.596,25.283,32.53,25.282z"/>
			<path fill-rule="evenodd" clip-rule="evenodd" fill="#78AF48" d="M32.361,24.722c-0.064,0.004-0.129,0.008-0.193,0.012
				c-0.003-0.121-0.006-0.241-0.009-0.361c0,0,0.022-0.022,0.022-0.022C32.328,24.432,32.366,24.566,32.361,24.722z"/>
			<path fill-rule="evenodd" clip-rule="evenodd" fill="#78AF48" d="M31.61,23.813c-0.082-0.027-0.164-0.054-0.246-0.082
				c0.018-0.024,0.048-0.07,0.05-0.069c0.071,0.043,0.14,0.091,0.208,0.138L31.61,23.813z"/>
			<path fill-rule="evenodd" clip-rule="evenodd" fill="#78AF48" d="M31.994,24.167c0.062,0.061,0.125,0.122,0.188,0.183
				c0,0-0.022,0.022-0.022,0.022c-0.061-0.062-0.122-0.126-0.182-0.188L31.994,24.167z"/>
			<path fill-rule="evenodd" clip-rule="evenodd" fill="#78AF48" d="M31.807,23.984c0.062,0.061,0.125,0.122,0.187,0.183
				l-0.017,0.017c-0.061-0.062-0.123-0.124-0.183-0.187L31.807,23.984z"/>
			<path fill-rule="evenodd" clip-rule="evenodd" fill="#78AF48" d="M31.794,23.997c-0.061-0.062-0.122-0.123-0.184-0.184
				l0.013-0.013c0.062,0.061,0.123,0.122,0.184,0.184L31.794,23.997z"/>
		</g>
	</g>
</g>
</svg>
