<svg version="1.1" class="skills-big" id="Layer_1" xmlns="http://www.w3.org/2000/svg" xmlns:xlink="http://www.w3.org/1999/xlink" x="0px" y="0px"
	 width="80px" height="80px" viewBox="0 0 80 80" enable-background="new 0 0 80 80" xml:space="preserve">
<circle fill="#FFFFFF" stroke="#000000" stroke-miterlimit="10" cx="39.667" cy="39.999" r="37.5"/>
<circle fill="#FFFFFF" stroke="#000000" stroke-miterlimit="10" cx="39.667" cy="39.999" r="37.5"/>
<g id="LMkL3y.tif">
	<g>
		<g>
			<path fill="#FCFCFC" d="M40.064,65.793c-8.069,0-16.138-0.021-24.207,0.026c-0.993,0.006-1.218-0.225-1.216-1.217
				c0.036-16.005,0.036-32.01,0-48.016c-0.002-0.992,0.224-1.218,1.216-1.216c16.138,0.036,32.275,0.036,48.413,0
				c0.992-0.002,1.219,0.224,1.217,1.216c-0.036,16.005-0.036,32.011,0,48.016c0.002,0.992-0.224,1.223-1.217,1.217
				C56.202,65.772,48.133,65.793,40.064,65.793z M58.294,30.079c-0.023-0.133-0.047-0.266-0.071-0.398
				c-0.098-0.269-0.195-0.537-0.294-0.805c-0.535-1.552-0.459-3.267-1.259-4.749c-0.117-1.031-0.36-2.013-1.077-2.815
				c-1.568-2.88-4.265-3.211-7.132-3.156c-0.292-0.515-0.869-0.739-1.323-0.717c-3.029,0.147-6.102,0.215-8.601,2.338
				c-0.215,0.123-0.417,0.31-0.649,0.359c-2.917,0.623-5.838,1.226-8.759,1.834c-1.058-0.106-1.678,0.506-2.174,1.322
				c-1.324-1.485-2.637-0.618-3.952,0.018c-1.85,0.74-3.016,2.075-3.488,4.012c-0.052,0.397-0.104,0.794-0.157,1.191
				c-2.771,2.491-3.525,4.977-2.09,8.112c1.646,3.596,3.534,7.083,5.317,10.617c0.52,2.234,1.039,4.469,1.559,6.703l0.001-0.002
				c-0.076,0.814,0.128,1.576,0.44,2.318c-0.1,2.36,1.051,4.182,2.936,5.284c4.282,2.504,8.616,4.222,13.341,0.573
				c1.891-1.46,4.172-2.536,6.602-3.085c3.472-0.783,6.951-1.541,10.398-2.422c2.437-0.622,4.013-2.173,4.384-4.765
				c0.392-0.86,0.835-1.707,0.753-2.7c0.049-0.382,0.097-0.763,0.144-1.143c1.896-2.91,0.316-7.329-2.396-9.314
				c0.188-1.034-0.347-1.845-0.826-2.672C59.571,33.985,59.013,32.01,58.294,30.079z"/>
			<path fill-rule="evenodd" clip-rule="evenodd" fill="#24AB51" d="M63.145,48.003c-0.048,0.381-0.096,0.762-0.145,1.144
				c-0.429,0.591-0.945,0.986-1.709,0.826c-0.067-0.518,0.553-0.315,0.6-0.733c-0.771-0.236-1.457-0.139-2.037,0.438
				c0.656,0.809,2.142,0.825,2.052,2.281c-0.396,0.391-0.79,0.781-1.185,1.172c-0.161-0.537-0.217-1.143-0.512-1.592
				c-0.292-0.445-5.387-0.302-5.491,0.148c-0.527,2.263-2.314,1.088-3.542,1.407c-0.036-0.805-0.615-0.797-1.19-0.794
				c-0.056-0.03-0.11-0.061-0.165-0.091c0.055,0.03,0.109,0.062,0.164,0.092c-0.061,0.535-0.27,0.868-0.887,0.654
				c-0.436-0.151-0.342-1.555-1.092-0.635c-0.319,0.392,0.662,0.843,1.135,1.236c0.987,0.823,1.425-0.044,2.035-0.463
				c-0.242,1.304,0.914,1.526,1.621,2.096c-0.269,0.092-0.536,0.186-0.804,0.279c-0.334,0.012-0.645,0.073-0.826,0.398
				c-0.26,0.019-0.52,0.035-0.779,0.054c-0.342-1.028-0.968-1.675-2.08-1.132c-0.965,0.47-2.03,0.517-2.987,0.888
				c-1.397,0.543-2.193,0.628-1.774-1.271c0.084-0.384-0.376-0.464-0.704-0.518c-0.055-0.031-0.109-0.062-0.163-0.092
				c0.055,0.03,0.109,0.061,0.164,0.09c-0.739,0.315-0.604,1.507-1.584,1.58c-0.003-0.13-0.004-0.259-0.004-0.389
				c0.297-0.177,0.425-0.427,0.32-0.769c-0.012-0.039-0.074-0.064-0.113-0.096c-0.07,0.154-0.14,0.311-0.21,0.465
				c-0.391-0.145-1.097,0.658-1.187-0.394c0.03-0.056,0.06-0.111,0.09-0.167c-0.03,0.055-0.061,0.11-0.091,0.166
				c-0.26-0.002-0.521-0.004-0.782-0.006c-0.18-0.312-0.476-0.384-0.804-0.39c-0.301-0.147-0.602-0.294-0.903-0.441
				c0.12-0.525,0.432-0.916,0.857-1.228c0.185,0.401,0.586,0.47,0.942,0.584c0.212,0.068,0.39,0.716,0.668,0.084
				c0.101-0.228,0.109-0.496,0.16-0.747c-0.758-0.012-0.813-1.099-1.61-1.052c-0.137-0.133-0.275-0.266-0.413-0.398
				c-0.999-2.275-3.08-1.477-4.804-1.691c0.943-0.695,1.478-1.868,2.664-2.279c0.144-0.136,0.288-0.271,0.432-0.406L36.435,46.3
				c0.433,0.001,0.887,0.188,1.295-0.145c-0.4-0.345-0.857-0.147-1.288-0.163l-0.011,0.001c0.567-0.567,1.321-0.669,2.056-0.82
				c0.689,0.857,3.525,0.156,1.659,2.821c1.502-0.247,2.713-0.446,3.924-0.645c0.127,0.06,0.254,0.118,0.38,0.176
				c0.011,1.059,0.257,1.95,1.51,2.125c1.071,1.051,2.381,1.412,3.756,0.916c1.49-0.537,3.135-0.872,4.18-2.263
				c1.189-0.224,2.294-1.18,3.63-0.173c0-0.885,0-1.531,0-2.178c0.131,0,0.262-0.002,0.393-0.003
				c1.317,0.775,1.317,0.775,2.251-0.337c-0.801-0.266-1.488,0.275-2.249,0.334c-0.066-0.17-0.133-0.341-0.199-0.511
				c-0.066,0.172-0.131,0.344-0.196,0.517c-0.637,0.325-1.284,0.569-2.173,0.201c1.63-0.62,1.378-1.562,0.585-2.588
				c0.004-0.132,0.004-0.264,0.001-0.395l-0.002,0.002c0.53,0,1.061,0,1.591,0.001l-0.001-0.001c0.57,0.552,0.612,1.994,1.992,1.184
				c0.907-0.351,1.505-0.95,1.578-1.969c0.122-0.005,0.244-0.01,0.366-0.016c0.108,0.13,0.218,0.259,0.326,0.389
				C62.24,44.509,62.692,46.256,63.145,48.003z M60.415,46.595c-0.008-0.041-0.003-0.102-0.028-0.119
				c-0.037-0.026-0.096-0.023-0.146-0.032c0.014,0.068,0.026,0.137,0.04,0.205C60.326,46.631,60.371,46.613,60.415,46.595z"/>
			<path fill-rule="evenodd" clip-rule="evenodd" fill="#22A44E" d="M40.065,54.286c0.09,1.052,0.796,0.249,1.187,0.394
				c0.001,0.134,0.002,0.267,0.003,0.399c0,0.13,0.001,0.259,0.004,0.389c-0.274,0.295-1.56,0.279-0.218,1.059
				c0.484,0.281,1.424,0.413,1.403,1.347c-0.109,0.062-0.227,0.087-0.353,0.074c-0.526-0.719-0.715-0.333-0.84,0.257
				c-0.265,0.006-0.528,0.013-0.793,0.019c-0.033-0.46-0.199-1.072-0.644-0.974c-0.597,0.132-0.386,0.896-0.548,1.38
				c-3.113,0.919-6.236,1.78-9.527,1.701c-0.273-0.024-0.547-0.048-0.82-0.072l0.018,0.016c-0.125-1.054-0.848-0.234-1.256-0.401
				c-0.678-1.508-1.834-2.605-3.096-3.611c-0.312-0.742-0.517-1.504-0.44-2.319c0.279-0.093,0.654-0.073,0.637-0.52
				c-0.001-0.046-0.083-0.127-0.129-0.127c-0.446-0.006-0.418,0.37-0.509,0.649c-0.52-2.234-1.039-4.469-1.559-6.704
				c0.299-0.223,0.335-0.533,0.291-0.87c0.767,0.512,1.618,0.821,2.646,0.895c-0.68,0.729-1.206,1.294-1.731,1.859
				c-0.029,0.056-0.059,0.112-0.088,0.169c0.031-0.055,0.063-0.108,0.094-0.163c0.661-0.004,1.357,0.125,1.977-0.039
				c1.649-0.437,3.031-0.233,4.047,1.261c-0.562,0.967-1.722,1.768-0.867,3.128c1.068,1.519,2.309,2.31,4.332,1.705
				c1.503-0.449,2.897-1.066,4.289-1.736c0.301,0.147,0.603,0.294,0.903,0.441c0.081,0.517,0.177,1,0.804,0.39
				c0.261,0.002,0.521,0.004,0.782,0.006L40.065,54.286z M26.158,54.646c-0.033-0.521-0.254-0.758-0.761-0.536
				c-0.173,0.075-0.318,0.211-0.477,0.319c0.297,0.218,0.567,0.5,0.897,0.637C26.278,55.255,26.08,54.805,26.158,54.646z
				 M27.27,55.887c-0.029-0.054-0.058-0.106-0.087-0.16c-0.038,0.047-0.103,0.091-0.106,0.14c-0.004,0.051,0.051,0.105,0.08,0.158
				C27.193,55.979,27.231,55.933,27.27,55.887z"/>
			<path fill-rule="evenodd" clip-rule="evenodd" fill="#4BE193" d="M29.129,21.969c2.92-0.608,5.841-1.211,8.759-1.834
				c0.231-0.049,0.434-0.236,0.649-0.36c1.672,0.161,3.253-0.49,4.9-0.552c0.528,0.829,1.306,1.404,2.071,1.977
				c0.39,0.291,1.195,0.377,0.671,1.055c-0.235,0.303-0.905,0.918-1.402-0.014c-0.396-0.745-0.827-0.244-1.216,0.08
				c1.039,0.581-0.334,1.315,0.123,1.933c-0.713,0.413-1.426,0.826-2.14,1.24c-2.071,0.781-4.033-1.601-6.161-0.206
				c-0.319,0.209-0.964,0.106-1.291-0.268c-0.723-0.827-1.783-0.844-2.61-1.333c-0.511,1.048,0.462,0.995,0.911,1.336
				c-1.405,1-1.887-0.699-2.893-0.845c-0.945-0.136-2.117-0.561-0.198-1.354C29.905,22.574,29.427,22.213,29.129,21.969z
				 M40.57,24.714c-0.114-0.057-0.216-0.149-0.315-0.146c-0.099,0.003-0.196,0.102-0.293,0.158c0.1,0.053,0.2,0.148,0.3,0.147
				C40.36,24.873,40.458,24.776,40.57,24.714z"/>
			<path fill-rule="evenodd" clip-rule="evenodd" fill="#44C977" d="M55.593,21.311c0.717,0.802,0.96,1.784,1.077,2.815
				c-1.996-0.033-0.61,1.705-1.244,2.434c-0.31,0.356-0.114,1.519-0.833,1.154c-1.001-0.508-1.365-0.482-1.428,0.63
				c-0.065,1.148-0.908,0.89-1.592,0.941c0.274-0.218,0.549-0.436,0.986-0.783c-0.646,0.102-1.466-0.321-0.987,0.784
				c0.134,1.201-2.156,1.518-1.113,3.05c-1.328,0.351-0.354,1.244-0.444,1.885c-0.106,0.075-0.224,0.107-0.354,0.094
				c-0.187-0.928-1.295-0.412-1.659-1.061c0.029-0.056,0.06-0.111,0.09-0.167c-0.031,0.055-0.062,0.11-0.092,0.165
				c-0.71,0-1.317,0.03-1.073,1.07c0.226,0.959-0.393,0.715-0.91,0.518c-0.001-0.131-0.001-0.264,0-0.396
				c0.285-0.182,0.421-0.428,0.31-0.767c-0.016-0.045-0.099-0.067-0.15-0.1c-0.054,0.289-0.106,0.578-0.159,0.867
				c-0.295,0.027-0.591,0.054-0.886,0.082c0,0.078,0,0.156,0,0.234c0.296,0.027,0.591,0.054,0.886,0.08
				c-0.321,0.427-0.901,0.694-0.841,1.358c-0.271-0.257-0.543-0.514-0.813-0.771c-0.021-0.305-0.173-0.49-0.482-0.533l-0.129,0.028
				c-0.775-0.533-0.429-1.35-0.52-2.057c0.659-0.313,0.905,0.437,1.329,0.604c0.589-0.565-0.45-1.391,0.221-1.65
				c1.407-0.543,0.413-1.402,0.441-2.123c1.468-0.728,3.483-0.672,3.979-2.787c0.254-0.88-0.139-1.564-0.671-2.206
				c0.373-0.057,0.887-0.301,1.096-0.142c1.41,1.07,1.116-0.08,1.147-0.83l0.008-0.008c0.254-0.034,0.68-0.245,0.585-0.328
				c-0.618-0.542-0.591-1.09-0.106-1.631c0.665-0.743,1.178,0.082,1.696,0.286C54.07,22.49,55.03,22.697,55.593,21.311z
				 M54.185,26.61c0.208-0.451,0.286-0.837-0.218-1.158C53.715,25.911,53.917,26.246,54.185,26.61z"/>
			<path fill-rule="evenodd" clip-rule="evenodd" fill="#45D687" d="M29.129,21.969c0.298,0.244,0.776,0.605,0.173,0.854
				c-1.919,0.793-0.747,1.218,0.198,1.354c1.006,0.146,1.488,1.845,2.893,0.845c-0.449-0.341-1.422-0.288-0.911-1.336
				c0.827,0.489,1.887,0.506,2.61,1.333c0.327,0.374,0.972,0.477,1.291,0.268c2.128-1.395,4.09,0.987,6.161,0.205
				c-0.307,0.579-0.869,1.06-0.695,1.821c-0.139,0.822,0.74,1.239,0.79,1.985l0.025-0.026c-1.328,0.031-2.426,0.782-3.569,1.284
				c-1.057,0.463,0.019,0.563,0.312,0.759c0.046,0.253,0.092,0.507,0.138,0.761c-0.096,0.119-0.192,0.237-0.288,0.356
				c-0.172,0.046-0.345,0.092-0.517,0.137c-0.245-0.764-0.967-1.058-1.563-1.34c-1.087-0.515-2.239-0.878-2.895-1.998
				c-0.004-0.122-0.013-0.242-0.026-0.363c0.469-1.233-0.619-1.738-1.168-2.495c-0.23-0.797-0.631-0.806-1.154-0.25
				c-1.773-0.091-3.51,0.049-5.143,0.831c0.398-0.812-0.908-1.615-0.015-2.43c0.774-0.048,1.177-0.45,1.178-1.235
				C27.451,22.475,28.071,21.863,29.129,21.969z M35.77,28.877c-0.275,0.072-0.631-0.041-0.551,0.382
				c0.016,0.087,0.223,0.226,0.292,0.201c0.227-0.083,0.431-0.229,0.644-0.351C36.016,29.026,35.876,28.942,35.77,28.877z"/>
			<path fill-rule="evenodd" clip-rule="evenodd" fill="#4DD786" d="M55.593,21.311c-0.562,1.386-1.522,1.179-2.636,0.741
				c-0.519-0.204-1.031-1.029-1.696-0.286c-0.484,0.541-0.512,1.09,0.106,1.631c0.095,0.083-0.331,0.294-0.585,0.329
				c-0.059-0.03-0.117-0.06-0.176-0.089c0.056,0.032,0.111,0.064,0.168,0.097c-0.031,0.75,0.263,1.9-1.147,0.83
				c-0.209-0.159-0.723,0.085-1.095,0.142c-1.554-0.816-3.21-0.545-4.849-0.452c-0.457-0.618,0.916-1.352-0.123-1.933
				c0.389-0.323,0.819-0.824,1.216-0.08c0.497,0.932,1.167,0.317,1.402,0.014c0.524-0.678-0.281-0.765-0.671-1.055
				c-0.766-0.572-1.543-1.148-2.069-1.976c1.675-0.356,3.349-0.712,5.022-1.069C51.328,18.1,54.024,18.431,55.593,21.311z
				 M48.863,23.037c-0.057,0.017-0.123,0.021-0.166,0.056c-0.015,0.012,0.023,0.093,0.037,0.143
				c0.057-0.017,0.122-0.022,0.166-0.057C48.916,23.168,48.878,23.086,48.863,23.037z"/>
			<path fill-rule="evenodd" clip-rule="evenodd" fill="#A8A8A8" d="M24.586,56.261c1.262,1.006,2.417,2.104,3.096,3.611
				c0.349,0.354,0.732,0.596,1.256,0.401l-0.018-0.016c-0.103,0.613,0.335,0.741,0.776,0.868c0.485,0.417,0.741,1.13,1.516,1.171
				c2.024,1.579,4.212,1.705,6.453,0.593c2.329-1.156,4.68-2.285,6.796-3.824c1.36-0.14,2.258-1.292,3.534-1.617
				c0.135,0.027,0.27,0.056,0.404,0.084c1.006,0.279,1.931,0.113,2.775-0.5c0.235-0.033,0.471-0.066,0.706-0.1
				c1.223-0.211,2.476-0.317,3.659-0.662c1.136-0.331,2.508-0.27,3.227-1.521c0.067-0.104,0.116-0.217,0.147-0.337
				c0.668-0.335,1.43-0.538,1.807-1.282c0.395-0.391,0.789-0.781,1.185-1.173c0.107-0.056,0.222-0.093,0.342-0.111
				c-0.371,2.592-1.947,4.143-4.384,4.765c-3.447,0.881-6.927,1.639-10.398,2.422c-2.43,0.549-4.711,1.625-6.602,3.085
				c-4.725,3.648-9.059,1.931-13.341-0.573C25.637,60.442,24.486,58.621,24.586,56.261z"/>
			<path fill-rule="evenodd" clip-rule="evenodd" fill="#373C39" d="M22.875,46.37c0.045,0.337,0.009,0.647-0.29,0.87
				c-1.783-3.533-3.67-7.02-5.316-10.616c-1.436-3.135-0.681-5.622,2.09-8.113c0.042,1.501,0.321,2.959,0.81,4.377
				c0.058,1.483,0.338,2.922,0.857,4.314c0.277,1.59,0.555,3.179,0.833,4.769c0.096,0.187,0.192,0.373,0.289,0.56
				c-0.054,0.082-0.06,0.168-0.018,0.257c0.052,0.527,0.104,1.054,0.157,1.58c-0.024,0.129-0.018,0.257,0.02,0.383
				c0.072,0.143,0.145,0.287,0.218,0.431C22.641,45.578,22.758,45.975,22.875,46.37z"/>
			<path fill-rule="evenodd" clip-rule="evenodd" fill="#32B15C" d="M57.525,43.175c-0.53-0.001-1.061-0.001-1.591-0.001
				c-0.273-0.917,0.646-0.831,1.072-1.186c-0.711-0.906-2.808-0.847-1.859-2.778c0.305-0.067,0.835-0.075,0.87-0.211
				c0.094-0.362-0.306-0.495-0.603-0.623c0.059-0.347,0.118-0.693,0.177-1.04c0.48-0.924,0.435-1.744-0.477-2.391
				c0.223-1.184,1.154-0.798,1.837-0.754c1.279,0.083,2.045,1.105,2.969,1.826c0.479,0.827,1.014,1.638,0.826,2.672
				c-0.023,0.172-0.046,0.344-0.069,0.516c-0.435-0.271-0.726-1.216-1.382-0.519c-0.538,0.572,0.282,0.635,0.561,0.89
				c0.954,0.871-0.321,1.135-0.601,1.607c1.228,0.383,1.337-0.634,1.809-1.172c0.15,0.646,0.302,1.293,0.452,1.939
				c-0.019,0.141-0.037,0.281-0.056,0.422c-0.122,0.006-0.244,0.011-0.366,0.015c-1.861,0.986-1.861,0.986-1.578,1.97
				C58.137,45.168,58.095,43.726,57.525,43.175c0.437-0.327,0.874-0.654,1.405-1.052C57.77,41.805,57.485,42.309,57.525,43.175z"/>
			<path fill-rule="evenodd" clip-rule="evenodd" fill="#43C06F" d="M50.015,34.222c0.09-0.643-0.884-1.536,0.444-1.887
				c-1.043-1.532,1.247-1.849,1.113-3.05l0.001-0.001c0.684-0.051,1.526,0.207,1.592-0.941c0.062-1.112,0.427-1.138,1.428-0.63
				c0.719,0.365,0.523-0.798,0.833-1.154c0.634-0.729-0.752-2.467,1.244-2.434c0.8,1.482,0.724,3.197,1.259,4.749
				c-1.327,0.387-3.026,1.416-2.581,2.442c0.633,1.459-0.252,1.961-0.652,2.843C53.134,34.052,51.572,33.982,50.015,34.222z"/>
			<path fill-rule="evenodd" clip-rule="evenodd" fill="#44C977" d="M25.777,24.526c-0.894,0.815,0.413,1.618,0.015,2.43
				c-1.518,1.099-2.544,2.379-1.61,4.379c-0.47,0.895,0.287,1.143,0.801,1.52c-1.119,0.755-1.894-1.078-3.114-0.171
				c0.52-1.514,0.389-3.207-0.538-3.643c-0.941-0.443-1.386-0.958-1.815-1.72c0.472-1.938,1.638-3.272,3.487-4.012
				C24.012,23.521,25.173,23.387,25.777,24.526z M21.62,28.207c0.056-0.113,0.146-0.215,0.143-0.313
				c-0.003-0.099-0.101-0.195-0.156-0.292c-0.051,0.1-0.145,0.199-0.144,0.298C21.464,27.999,21.559,28.096,21.62,28.207z
				 M22.903,28.902c-0.029-0.054-0.057-0.107-0.086-0.16c-0.038,0.046-0.102,0.09-0.106,0.14c-0.004,0.05,0.05,0.106,0.079,0.159
				C22.828,28.995,22.866,28.948,22.903,28.902z"/>
			<path fill-rule="evenodd" clip-rule="evenodd" fill="#43C06F" d="M19.515,27.321c0.43,0.762,0.874,1.277,1.815,1.72
				c0.926,0.436,1.057,2.129,0.538,3.643c1.221-0.907,1.996,0.926,3.114,0.171c0.001,0.133,0.002,0.267,0.003,0.4l1.193,1.971
				c-0.051,0.495-0.362,1.453-0.612,1.089c-0.833-1.21-2.317-0.331-3.322-1.416c-0.58-0.625-1.058-1.711-2.076-2.01
				c-0.489-1.418-0.767-2.876-0.81-4.377C19.411,28.115,19.463,27.718,19.515,27.321z"/>
			<path fill-rule="evenodd" clip-rule="evenodd" fill="#3EB86C" d="M54.695,34.16c0.4-0.882,1.285-1.384,0.652-2.843
				c-0.445-1.026,1.254-2.055,2.581-2.442c0.099,0.269,0.196,0.537,0.294,0.805c-0.145,0.081-0.289,0.161-0.434,0.241
				c0.169,0.052,0.337,0.105,0.505,0.157c0.719,1.931,1.277,3.907,1.627,5.939c-0.924-0.721-1.689-1.743-2.969-1.826
				c-0.683-0.044-1.614-0.43-1.837,0.753C54.784,34.786,54.673,34.508,54.695,34.16z"/>
			<path fill-rule="evenodd" clip-rule="evenodd" fill="#373C39" d="M61.517,41.951c-0.15-0.646-0.302-1.293-0.452-1.94
				c0.006-0.333-0.055-0.634-0.387-0.806c0.023-0.172,0.046-0.344,0.069-0.516c2.713,1.986,4.292,6.404,2.397,9.314
				c-0.452-1.748-0.904-3.495-1.356-5.242C61.828,42.448,61.781,42.163,61.517,41.951z"/>
			<path fill-rule="evenodd" clip-rule="evenodd" fill="#373C39" d="M48.461,18.155c-1.674,0.356-3.348,0.713-5.022,1.069
				c-1.648,0.062-3.229,0.712-4.902,0.551c2.5-2.122,5.572-2.19,8.601-2.337C47.592,17.416,48.169,17.64,48.461,18.155z"/>
			<path fill-rule="evenodd" clip-rule="evenodd" fill="#4BE193" d="M25.777,24.526c-0.604-1.139-1.765-1.004-2.774-1.217
				c1.315-0.636,2.628-1.503,3.952-0.018C26.954,24.076,26.551,24.478,25.777,24.526z"/>
			<path fill-rule="evenodd" clip-rule="evenodd" fill="#1C9F49" d="M62.247,51.847c-0.12,0.019-0.234,0.056-0.342,0.111
				c0.09-1.455-1.396-1.472-2.052-2.28c0.58-0.577,1.267-0.675,2.037-0.438c-0.047,0.418-0.667,0.216-0.6,0.733
				c0.764,0.16,1.28-0.235,1.709-0.826C63.082,50.14,62.639,50.986,62.247,51.847z"/>
			<path fill-rule="evenodd" clip-rule="evenodd" fill="#43C06F" d="M58.294,30.079c-0.168-0.052-0.336-0.105-0.505-0.157
				c0.145-0.081,0.289-0.161,0.434-0.241C58.247,29.813,58.271,29.946,58.294,30.079z"/>
			<path fill-rule="evenodd" clip-rule="evenodd" fill="#2F3330" d="M37.74,32.57c0.172-0.046,0.345-0.092,0.518-0.138
				c0.188-0.043,0.543,0.047,0.288-0.355c-0.046-0.254-0.092-0.508-0.138-0.762c1.181,0.164,2.115-0.622,3.198-0.834
				c0.015,0.261,0.029,0.521,0.044,0.782c-0.033,0.12-0.066,0.24-0.1,0.359c-0.05,0.4-0.1,0.799-0.149,1.199
				c-0.513,0.217,0.596,1.2-0.427,1.062c-1.717-0.231-2.261,0.102-2.858,2.108c-0.458,0.559,0.14,0.352,0.323,0.446
				c0.057,0.084,0.08,0.176,0.069,0.277c0.129,0.662,0.258,1.324,0.387,1.986c-0.641,0.543-1.538,0.941-1.163,2.058
				c0.121,0.658,0.241,1.316,0.362,1.974c0.683,1.284,1.79,2.09,3.109,2.573c0.965,0.354,0.788-0.219,0.502-0.774
				c0.161-0.311,0.321-0.621,0.481-0.932c0.359,0.128,0.719,0.255,1.078,0.382c0.045,0.067,0.05,0.138,0.013,0.21
				c-0.026,0.384-0.021,0.754,0.394,0.955l-0.007-0.016c-0.02,0.347,0.047,0.65,0.406,0.806l0.042-0.054
				c-0.015,0.489-0.028,0.978-0.043,1.466c-1.211,0.199-2.422,0.398-3.924,0.646c1.867-2.665-0.969-1.964-1.659-2.821
				c-0.616-1.071-1.757-1.728-2.257-2.904c-0.151-0.356-0.273-0.997-0.906-0.774c-0.418,0.147-0.402,0.626-0.419,1.018
				c-0.024,0.521,0.092,1.093-0.084,1.554c-0.64,1.679,0.118,2.085,1.611,1.928c0,0,0.011-0.001,0.012-0.001
				c-0.008,0.103-0.011,0.205-0.008,0.308c0,0,0.037,0.015,0.036,0.015c-0.144,0.136-0.288,0.271-0.432,0.406
				c-1.186,0.411-1.721,1.584-2.664,2.28c-0.103,0.238-0.203,0.482-0.458,0.115c-0.086-0.141-0.172-0.281-0.258-0.422
				c-0.021-0.132-0.069-0.252-0.145-0.361c-0.26-0.4-0.52-0.8-0.779-1.199c-0.412-1.124,1.076-1.683,0.821-2.76
				c0.81-1.584,0.453-2.544-1.439-2.653c-1.152-0.066-2.051-0.697-2.973-1.285c-0.119-0.282-0.238-0.563-0.357-0.844
				c0.424-1.48,1.24-2.613,2.742-3.171c0.729-0.271,0.844-0.899,0.809-1.583c-0.97-1.107-1.198-2.972-3.146-3.081
				c-0.421-0.001-0.841-0.001-1.262-0.002c-0.382-0.025-0.764-0.05-1.146-0.076c-0.271-0.159-0.543-0.317-0.815-0.477
				c-0.703-1.349,0.047-2.254,1.024-2.973c2.015-1.482,5.39-1.149,7.263,0.639c0.013,0.121,0.021,0.242,0.026,0.363
				c-0.711,0.704-1.423,1.408-2.134,2.112c-0.332,0.617,0.119,0.658,0.534,0.726c0.076,0.049,0.103,0.118,0.081,0.206
				c-0.158,1.761,1.127,2.608,2.359,3.238c1.384,0.708,2.45,0,2.747-1.499l-0.013,0.022c0.139-0.14,0.278-0.281,0.418-0.421
				l-0.021,0.024c0.137-0.168,0.273-0.336,0.41-0.504C37.689,32.948,37.715,32.759,37.74,32.57z"/>
			<path fill-rule="evenodd" clip-rule="evenodd" fill="#2F3330" d="M53.895,48.304c-1.045,1.391-2.689,1.726-4.18,2.263
				c-1.375,0.496-2.685,0.135-3.756-0.917c0.481-1.047,0.222-1.876-0.732-2.501c2.037-2.641,6.079-3.196,9.119-0.793
				C54.489,47.072,54.085,47.663,53.895,48.304z"/>
			<path fill-rule="evenodd" clip-rule="evenodd" fill="#2F3330" d="M37.575,53.448c-1.392,0.67-2.786,1.287-4.289,1.736
				c-2.023,0.604-3.263-0.187-4.332-1.705c0.497-1.818,1.773-2.733,3.528-3.221c1.974-0.549,3.822-0.01,5.697,0.433
				c0.138,0.133,0.275,0.266,0.412,0.398c-0.053,0.377-0.106,0.754-0.159,1.131C38.006,52.532,37.694,52.923,37.575,53.448z"/>
			<path fill-rule="evenodd" clip-rule="evenodd" fill="#1C9F49" d="M60.721,53.131c-0.377,0.744-1.139,0.947-1.808,1.282
				c-0.347-0.377-0.725-0.031-1.067-0.062c-1.768-0.159-3.228,1.44-5.049,0.84c-0.707-0.57-1.863-0.793-1.621-2.097l0,0
				c1.228-0.319,3.015,0.855,3.542-1.407c0.104-0.45,5.199-0.594,5.491-0.148C60.504,51.988,60.56,52.594,60.721,53.131z"/>
			<path fill-rule="evenodd" clip-rule="evenodd" fill="#22A44E" d="M53.895,48.304c0.19-0.641,0.595-1.231,0.451-1.949
				c0.156-1.062-0.579-1.477-1.338-1.923c-1.344-0.789-2.805-0.422-4.221-0.507c0.005-0.118,0.008-0.236,0.009-0.354l-0.001,0.002
				c0.32-0.052,0.348-0.621,0.939-0.312c1.652,0.864,3.292,0.119,4.634-0.687c1.006-0.604-0.91-1.433-0.416-2.372
				c0.027-0.052,0.005-0.13,0.006-0.195c0.162-0.264,0.324-0.528,0.485-0.792c0.231-0.004,0.464-0.008,0.696-0.013l0.008,0.008
				c-0.948,1.932,1.148,1.872,1.859,2.778c-0.426,0.354-1.346,0.269-1.072,1.186l0.002-0.002c-0.292,0.027-0.583,0.055-0.875,0.083
				c0,0.077,0,0.155,0,0.232c0.292,0.026,0.583,0.053,0.874,0.079c0.793,1.026,1.045,1.968-0.585,2.588
				c0.889,0.368,1.536,0.124,2.173-0.201h0.001c0,0.646,0,1.293,0,2.178C56.188,47.124,55.084,48.08,53.895,48.304z"/>
			<path fill-rule="evenodd" clip-rule="evenodd" fill="#1C9F49" d="M42.444,57.873c0.021-0.934-0.919-1.065-1.403-1.347
				c-1.342-0.779-0.056-0.764,0.218-1.059c0.98-0.073,0.845-1.265,1.584-1.58l-0.001,0.002c0.328,0.054,0.788,0.134,0.704,0.518
				c-0.419,1.898,0.377,1.813,1.774,1.271c0.957-0.371,2.022-0.418,2.987-0.888c1.112-0.543,1.738,0.104,2.08,1.131
				c-0.787,0.382-1.786,0.275-2.408,1.041C46.135,57.266,44.289,57.569,42.444,57.873z"/>
			<path fill-rule="evenodd" clip-rule="evenodd" fill="#1C2B20" d="M48.787,43.924c1.416,0.086,2.877-0.281,4.221,0.508
				c0.759,0.446,1.494,0.861,1.338,1.923c-3.04-2.402-7.082-1.847-9.119,0.794c-0.259,0.125-0.519,0.251-0.777,0.377
				c-0.126-0.058-0.253-0.116-0.38-0.176c0.015-0.489,0.028-0.978,0.043-1.466c1.735,0.055,2.722-1.569,4.282-1.909
				C48.525,43.958,48.656,43.941,48.787,43.924z"/>
			<path fill-rule="evenodd" clip-rule="evenodd" fill="#1C2B20" d="M38.179,50.691c-1.875-0.442-3.724-0.981-5.697-0.433
				c-1.755,0.487-3.031,1.402-3.528,3.221c-0.855-1.36,0.305-2.161,0.867-3.129c0.502-0.121,0.94-0.342,1.226-0.796
				c0.623-0.146,1.247-0.292,1.87-0.438c0.255,0.367,0.355,0.123,0.458-0.115C35.099,49.215,37.181,48.416,38.179,50.691z"/>
			<path fill-rule="evenodd" clip-rule="evenodd" fill="#32B15C" d="M36.431,45.993c-1.493,0.157-2.251-0.249-1.611-1.928
				c0.176-0.461,0.06-1.033,0.084-1.554c0.018-0.392,0.001-0.87,0.419-1.018c0.633-0.223,0.754,0.418,0.906,0.774
				c0.5,1.177,1.642,1.833,2.257,2.904C37.752,45.324,36.998,45.426,36.431,45.993z"/>
			<path fill-rule="evenodd" clip-rule="evenodd" fill="#373C39" d="M47.979,56.962c0.622-0.766,1.621-0.659,2.408-1.041
				c0.26-0.018,0.52-0.034,0.779-0.053c0.349,0.02,0.681,0.004,0.826-0.398c0.268-0.094,0.535-0.188,0.804-0.279
				c1.821,0.602,3.281-0.998,5.049-0.839c0.343,0.03,0.721-0.315,1.067,0.062c-0.03,0.12-0.079,0.232-0.146,0.337
				c-1.443,0.367-2.88,0.763-4.332,1.092c-0.926,0.21-1.965,0.106-2.554,1.091c-0.235,0.033-0.471,0.066-0.706,0.1
				c-1.088-0.735-1.929-0.103-2.775,0.5c-0.135-0.028-0.27-0.057-0.404-0.084C47.99,57.286,47.985,57.124,47.979,56.962z"/>
			<path fill-rule="evenodd" clip-rule="evenodd" fill="#373C39" d="M44.449,47.525c0.259-0.126,0.519-0.252,0.777-0.377
				c0.954,0.625,1.214,1.454,0.732,2.501C44.706,49.476,44.46,48.584,44.449,47.525z"/>
			<path fill-rule="evenodd" clip-rule="evenodd" fill="#1C9F49" d="M51.176,53.095c-0.61,0.419-1.048,1.286-2.035,0.463
				c-0.473-0.394-1.454-0.845-1.135-1.236c0.75-0.92,0.656,0.483,1.092,0.635c0.617,0.214,0.826-0.119,0.887-0.654l0.001-0.001
				C50.561,52.298,51.14,52.29,51.176,53.095L51.176,53.095z"/>
			<path fill-rule="evenodd" clip-rule="evenodd" fill="#1C9F49" d="M38.432,52.221c0.053-0.377,0.106-0.754,0.159-1.131
				c0.797-0.047,0.853,1.04,1.61,1.052c-0.051,0.251-0.059,0.52-0.16,0.747c-0.278,0.632-0.456-0.016-0.668-0.084
				C39.018,52.69,38.617,52.622,38.432,52.221z"/>
			<path fill-rule="evenodd" clip-rule="evenodd" fill="#1C9F49" d="M59.517,44.357c-0.283-0.983-0.283-0.983,1.578-1.97
				C61.021,43.407,60.424,44.007,59.517,44.357z"/>
			<path fill-rule="evenodd" clip-rule="evenodd" fill="#1C9F49" d="M57.919,45.947c0.761-0.059,1.448-0.6,2.249-0.334
				c-0.934,1.112-0.934,1.112-2.251,0.337L57.919,45.947z"/>
			<path fill-rule="evenodd" clip-rule="evenodd" fill="#32B15C" d="M36.435,46.3c-0.003-0.103,0-0.205,0.008-0.308
				c0.43,0.016,0.887-0.182,1.287,0.163C37.321,46.487,36.868,46.301,36.435,46.3z"/>
			<path fill-rule="evenodd" clip-rule="evenodd" fill="#1C9F49" d="M39.282,54.279c-0.626,0.61-0.723,0.127-0.804-0.39
				C38.806,53.896,39.102,53.968,39.282,54.279z"/>
			<path fill-rule="evenodd" clip-rule="evenodd" fill="#1C9F49" d="M41.255,55.079c-0.001-0.133-0.002-0.266-0.003-0.399
				c0.07-0.154,0.14-0.311,0.21-0.465c0.039,0.031,0.102,0.057,0.113,0.096C41.68,54.652,41.552,54.902,41.255,55.079z"/>
			<path fill-rule="evenodd" clip-rule="evenodd" fill="#32B15C" d="M55.936,43.566c-0.291-0.026-0.582-0.053-0.874-0.079
				c0-0.077,0-0.155,0-0.232c0.292-0.028,0.583-0.056,0.875-0.083C55.939,43.303,55.939,43.435,55.936,43.566z"/>
			<path fill-rule="evenodd" clip-rule="evenodd" fill="#1C9F49" d="M51.993,55.47c-0.146,0.402-0.478,0.418-0.826,0.398
				C51.349,55.543,51.659,55.481,51.993,55.47z"/>
			<path fill-rule="evenodd" clip-rule="evenodd" fill="#1C9F49" d="M61.517,41.951c0.265,0.212,0.312,0.497,0.271,0.811
				c-0.109-0.13-0.219-0.259-0.327-0.389C61.479,42.232,61.498,42.092,61.517,41.951z"/>
			<path fill-rule="evenodd" clip-rule="evenodd" fill="#32B15C" d="M57.917,45.95c-0.131,0.001-0.262,0.003-0.393,0.003h-0.001
				c0.065-0.173,0.13-0.345,0.196-0.517c0.066,0.17,0.133,0.341,0.199,0.511L57.917,45.95z"/>
			<path fill-rule="evenodd" clip-rule="evenodd" fill="#1C9F49" d="M60.415,46.595c-0.044,0.019-0.089,0.036-0.134,0.054
				c-0.014-0.068-0.026-0.137-0.04-0.205c0.05,0.009,0.108,0.006,0.146,0.032C60.412,46.493,60.407,46.554,60.415,46.595z"/>
			<path fill-rule="evenodd" clip-rule="evenodd" fill="#32B15C" d="M36.039,46.721c0.144-0.136,0.288-0.271,0.432-0.406
				C36.327,46.45,36.183,46.585,36.039,46.721z"/>
			<path fill-rule="evenodd" clip-rule="evenodd" fill="#22A44E" d="M40.063,54.285c0.031-0.056,0.061-0.111,0.091-0.166
				c-0.03,0.056-0.06,0.111-0.09,0.167L40.063,54.285z"/>
			<path fill-rule="evenodd" clip-rule="evenodd" fill="#1C9F49" d="M42.843,53.888c-0.055-0.029-0.109-0.06-0.164-0.09
				c0.054,0.03,0.108,0.061,0.163,0.092L42.843,53.888z"/>
			<path fill-rule="evenodd" clip-rule="evenodd" fill="#1C9F49" d="M49.984,52.302c-0.055-0.03-0.109-0.062-0.164-0.092
				C49.875,52.24,49.93,52.271,49.984,52.302L49.984,52.302z"/>
			<path fill-rule="evenodd" clip-rule="evenodd" fill="#24AB51" d="M31.048,49.555c-0.287,0.454-0.726,0.675-1.228,0.796
				c-1.016-1.493-2.397-1.696-4.047-1.26c-0.619,0.164-1.315,0.035-1.977,0.039l-0.006-0.006c0.525-0.565,1.051-1.13,1.731-1.859
				c-1.028-0.073-1.879-0.383-2.646-0.895c-0.118-0.396-0.235-0.792-0.351-1.188c0.172-0.055,0.496-0.144,0.492-0.159
				c-0.096-0.429-0.464-0.189-0.711-0.271c-0.038-0.126-0.044-0.254-0.02-0.383c0.491-0.038,0.708-0.323,0.714-0.797
				c0.528-0.001,1.057-0.002,1.585-0.003c0.168,0.314,0.458,0.39,0.783,0.397c1.002,0.73,1.992,1.478,3.013,2.181
				c0.289,0.198,0.778,0.436,0.979-0.019c1.092-2.47,1.072-2.479,3.196-1.755c0.255,1.077-1.232,1.636-0.821,2.76
				c-0.01,0.575-0.027,1.154,0.779,1.199c0.076,0.109,0.124,0.229,0.144,0.361c-0.706,0.012-1.412,0.023-2.117,0.035
				c-0.074-0.641-0.387-0.924-1.015-0.624c-0.128,0.062-0.176,0.293-0.26,0.445c0.425,0.061,0.85,0.12,1.274,0.18
				C30.245,49.291,30.421,49.562,31.048,49.555z M26.324,46.188c-0.403-0.253-0.702-0.551-1.051-0.631
				c-0.423-0.096-0.264,0.329-0.251,0.525c0.022,0.359,0.197,0.638,0.625,0.485C25.871,46.487,26.069,46.334,26.324,46.188z
				 M23.703,44.36c0.142,0.752,0.186,1.043,0.263,1.323c0.009,0.033,0.283,0.041,0.287,0.022
				C24.346,45.34,24.255,45.013,23.703,44.36z"/>
			<path fill-rule="evenodd" clip-rule="evenodd" fill="#1C2B20" d="M47.979,56.962c0.006,0.162,0.011,0.324,0.016,0.486
				c-1.276,0.325-2.174,1.478-3.534,1.617c-0.418-0.183-0.795-0.333-1.311-0.2c-2.272,0.588-4.539,1.319-6.854,1.576
				c-1.912,0.212-3.527,0.858-5.084,1.855c-0.775-0.041-1.031-0.754-1.516-1.171c0.015-0.266,0.029-0.531,0.044-0.796
				c3.291,0.079,6.415-0.782,9.527-1.701c0.436-0.023,0.921,0.101,1.192-0.406c0.265-0.006,0.528-0.013,0.793-0.018
				c0.28-0.086,0.56-0.172,0.84-0.258c0.126,0.013,0.243-0.012,0.353-0.074C44.289,57.569,46.135,57.266,47.979,56.962z"/>
			<path fill-rule="evenodd" clip-rule="evenodd" fill="#1C9F49" d="M40.459,58.223c-0.271,0.507-0.756,0.383-1.192,0.406
				c0.162-0.483-0.049-1.248,0.548-1.38C40.26,57.15,40.426,57.763,40.459,58.223z"/>
			<path fill-rule="evenodd" clip-rule="evenodd" fill="#1C9F49" d="M26.158,54.646c-0.078,0.159,0.121,0.609-0.34,0.42
				c-0.331-0.137-0.601-0.419-0.897-0.637c0.158-0.108,0.304-0.244,0.477-0.319C25.903,53.888,26.125,54.124,26.158,54.646z"/>
			<path fill-rule="evenodd" clip-rule="evenodd" fill="#1C9F49" d="M24.144,53.944c0.091-0.279,0.063-0.655,0.509-0.649
				c0.046,0,0.128,0.081,0.129,0.127c0.017,0.446-0.358,0.427-0.637,0.52C24.146,53.942,24.144,53.944,24.144,53.944z"/>
			<path fill-rule="evenodd" clip-rule="evenodd" fill="#1C9F49" d="M42.092,57.947c-0.28,0.086-0.56,0.172-0.84,0.258
				C41.377,57.614,41.565,57.229,42.092,57.947z"/>
			<path fill-rule="evenodd" clip-rule="evenodd" fill="#373C39" d="M28.938,60.273c-0.523,0.194-0.907-0.048-1.256-0.401
				C28.09,60.039,28.813,59.22,28.938,60.273z"/>
			<path fill-rule="evenodd" clip-rule="evenodd" fill="#373C39" d="M29.74,60.33c-0.015,0.265-0.029,0.53-0.044,0.796
				c-0.44-0.127-0.879-0.255-0.776-0.868C29.193,60.282,29.466,60.306,29.74,60.33z"/>
			<path fill-rule="evenodd" clip-rule="evenodd" fill="#1C9F49" d="M27.27,55.887c-0.038,0.046-0.076,0.092-0.114,0.138
				c-0.029-0.053-0.084-0.107-0.08-0.158c0.004-0.049,0.069-0.093,0.106-0.14C27.211,55.78,27.24,55.833,27.27,55.887z"/>
			<path fill-rule="evenodd" clip-rule="evenodd" fill="#24AB51" d="M23.797,49.13c-0.031,0.055-0.063,0.108-0.094,0.163
				c0.029-0.057,0.059-0.113,0.088-0.169L23.797,49.13z"/>
			<path fill-rule="evenodd" clip-rule="evenodd" fill="#1C2B20" d="M43.684,24.252c1.639-0.093,3.295-0.364,4.849,0.452
				c0.531,0.642,0.924,1.326,0.67,2.206c-0.562-0.555-1.166-0.982-1.948-1.265c-2.554-0.923-4.447,0.444-6.405,1.667
				c-0.174-0.762,0.389-1.243,0.695-1.821C42.258,25.079,42.971,24.666,43.684,24.252z"/>
			<path fill-rule="evenodd" clip-rule="evenodd" fill="#45D687" d="M40.57,24.714c-0.111,0.062-0.209,0.159-0.308,0.16
				c-0.1,0.001-0.2-0.094-0.3-0.147c0.097-0.057,0.194-0.155,0.293-0.158C40.354,24.565,40.456,24.657,40.57,24.714z"/>
			<path fill-rule="evenodd" clip-rule="evenodd" fill="#1C2B20" d="M38.895,38.701c-0.129-0.662-0.258-1.324-0.387-1.985
				c0.98,0.038,1.972-0.004,2.938,0.131c1.538,0.216,2.37-0.283,2.305-1.924l0.129-0.028c0.161,0.177,0.322,0.355,0.482,0.533
				c0.271,0.257,0.542,0.514,0.813,0.77c0.143,0.11,0.286,0.22,0.43,0.331l0.137,0.084l0.154-0.043l0.05-0.052
				c0.103,0.143,0.194,0.393,0.311,0.405c0.3,0.032,0.435-0.207,0.477-0.487c0.753-1.015,1.799-1.625,2.928-2.121
				c0.13,0.013,0.247-0.02,0.354-0.094c1.558-0.239,3.119-0.169,4.681-0.061c-0.022,0.349,0.089,0.626,0.42,0.786
				c0.911,0.647,0.957,1.467,0.477,2.391c-0.057-0.321-0.002-0.742-0.187-0.945c-2.208-2.431-7.5-1.183-8.594,2.005
				c-0.385,0.056-0.77,0.111-1.153,0.167c-0.905-1.489-1.688-1.249-2.387,0.169c-0.812-0.042-1.624-0.085-2.436-0.127
				c-0.277-0.236-0.535-0.213-0.774,0.058C39.672,38.675,39.283,38.688,38.895,38.701z"/>
			<path fill-rule="evenodd" clip-rule="evenodd" fill="#2F3330" d="M40.849,27.313c1.958-1.223,3.852-2.591,6.405-1.667
				c0.782,0.283,1.386,0.71,1.948,1.265c-0.496,2.114-2.512,2.059-3.979,2.787c-1.194-0.133-2.389-0.266-3.584-0.399
				C41.589,28.552,40.71,28.135,40.849,27.313z"/>
			<path fill-rule="evenodd" clip-rule="evenodd" fill="#3EB86C" d="M43.751,34.923c0.065,1.642-0.767,2.14-2.305,1.924
				c-0.967-0.136-1.958-0.093-2.938-0.131c0.011-0.102-0.012-0.194-0.069-0.278c-0.108-0.148-0.215-0.297-0.323-0.445
				c0.597-2.006,1.141-2.34,2.858-2.108c1.022,0.138-0.086-0.845,0.427-1.062c0.092,0,0.185,0.007,0.275,0.024
				c0.25,0.445,0.507,0.402,0.771,0.013c0.262,0.002,0.523,0.005,0.785,0.008C43.322,33.573,42.976,34.39,43.751,34.923z"/>
			<path fill-rule="evenodd" clip-rule="evenodd" fill="#45D687" d="M41.676,32.846c-0.091-0.017-0.184-0.024-0.275-0.024
				c0.05-0.4,0.1-0.799,0.148-1.199c0.078-0.107,0.112-0.227,0.101-0.36c-0.015-0.261-0.029-0.521-0.044-0.782
				c0.02-0.403,0.039-0.806,0.059-1.208l-0.025,0.026c1.195,0.133,2.39,0.266,3.584,0.399c-0.028,0.721,0.966,1.58-0.441,2.123
				c-0.671,0.259,0.368,1.085-0.221,1.65c-0.424-0.167-0.67-0.917-1.329-0.604c-0.262-0.002-0.523-0.005-0.785-0.008
				C42.189,32.854,41.933,32.85,41.676,32.846z"/>
			<path fill-rule="evenodd" clip-rule="evenodd" fill="#43C06F" d="M49.661,34.315c-1.129,0.496-2.175,1.105-2.927,2.12
				c-0.263,0.028-0.525,0.055-0.788,0.083c0,0-0.05,0.052-0.048,0.05c-0.001-0.183,0.01-0.52-0.008-0.521
				c-0.397-0.034-0.202,0.306-0.285,0.482c-0.144-0.11-0.287-0.221-0.43-0.331c-0.061-0.663,0.52-0.93,0.841-1.357l0,0
				c0.518,0.197,1.136,0.442,0.91-0.518c-0.244-1.04,0.363-1.069,1.073-1.07l0.002,0.001C48.366,33.903,49.475,33.387,49.661,34.315
				z"/>
			<path fill-rule="evenodd" clip-rule="evenodd" fill="#43C06F" d="M51.572,29.286c-0.479-1.105,0.342-0.682,0.987-0.784
				C52.122,28.849,51.848,29.067,51.572,29.286L51.572,29.286z"/>
			<path fill-rule="evenodd" clip-rule="evenodd" fill="#43C06F" d="M54.185,26.61c-0.268-0.364-0.47-0.699-0.218-1.158
				C54.471,25.773,54.393,26.16,54.185,26.61z"/>
			<path fill-rule="evenodd" clip-rule="evenodd" fill="#3EB86C" d="M46.017,34.445c-0.001,0.132-0.001,0.264,0,0.396l0,0
				c-0.295-0.026-0.59-0.053-0.886-0.08c0-0.078,0-0.156,0-0.234C45.426,34.499,45.722,34.472,46.017,34.445L46.017,34.445z"/>
			<path fill-rule="evenodd" clip-rule="evenodd" fill="#43C06F" d="M46.017,34.445c0.053-0.289,0.105-0.578,0.159-0.867
				c0.052,0.033,0.135,0.055,0.15,0.1C46.438,34.017,46.302,34.263,46.017,34.445L46.017,34.445z"/>
			<path fill-rule="evenodd" clip-rule="evenodd" fill="#3EB86C" d="M44.362,35.427c-0.16-0.178-0.321-0.355-0.482-0.533
				C44.189,34.938,44.342,35.123,44.362,35.427z"/>
			<path fill-rule="evenodd" clip-rule="evenodd" fill="#43C06F" d="M48,33.253c0.03-0.055,0.061-0.11,0.092-0.165
				c-0.03,0.055-0.061,0.111-0.09,0.167L48,33.253z"/>
			<path fill-rule="evenodd" clip-rule="evenodd" fill="#44C977" d="M31.149,31.345c0.711-0.704,1.422-1.408,2.134-2.112
				c0.655,1.12,1.807,1.483,2.894,1.998c0.596,0.282,1.318,0.576,1.563,1.34c-0.025,0.189-0.051,0.378-0.077,0.567
				c-0.137,0.168-0.273,0.336-0.41,0.504l0.021-0.024c-0.14,0.141-0.279,0.281-0.418,0.421l0.013-0.022
				c-2.375,1.396-3.732-0.198-5.106-1.739c0.022-0.088-0.005-0.157-0.081-0.206C31.505,31.828,31.327,31.586,31.149,31.345z"/>
			<path fill-rule="evenodd" clip-rule="evenodd" fill="#1C2B20" d="M33.257,28.869c-1.873-1.788-5.248-2.121-7.263-0.639
				c-0.978,0.719-1.727,1.624-1.024,2.973c-0.263,0.044-0.525,0.088-0.788,0.132c-0.935-2,0.092-3.28,1.61-4.379
				c1.632-0.782,3.369-0.922,5.143-0.831c0.385,0.083,0.77,0.167,1.154,0.25C32.638,27.131,33.726,27.636,33.257,28.869z"/>
			<path fill-rule="evenodd" clip-rule="evenodd" fill="#1C2B20" d="M41.664,29.272c-0.02,0.403-0.039,0.805-0.059,1.208
				c-1.083,0.212-2.017,0.998-3.198,0.834c-0.294-0.195-1.369-0.295-0.312-0.758C39.238,30.055,40.336,29.304,41.664,29.272z"/>
			<path fill-rule="evenodd" clip-rule="evenodd" fill="#44C977" d="M35.77,28.877c0.106,0.064,0.246,0.149,0.384,0.233
				c-0.213,0.122-0.417,0.268-0.644,0.351c-0.068,0.025-0.275-0.114-0.292-0.201C35.139,28.836,35.495,28.95,35.77,28.877z"/>
			<path fill-rule="evenodd" clip-rule="evenodd" fill="#4BE193" d="M32.088,26.375c-0.385-0.083-0.77-0.167-1.154-0.25
				C31.458,25.568,31.858,25.577,32.088,26.375z"/>
			<path fill-rule="evenodd" clip-rule="evenodd" fill="#1C2B20" d="M38.545,32.077c0.255,0.403-0.099,0.312-0.288,0.355
				C38.354,32.314,38.45,32.195,38.545,32.077z"/>
			<path fill-rule="evenodd" clip-rule="evenodd" fill="#44C977" d="M48.863,23.037c0.015,0.049,0.053,0.131,0.037,0.142
				c-0.044,0.034-0.109,0.04-0.166,0.057c-0.014-0.05-0.052-0.131-0.037-0.143C48.74,23.059,48.807,23.054,48.863,23.037z"/>
			<path fill-rule="evenodd" clip-rule="evenodd" fill="#44C977" d="M50.774,23.733c-0.057-0.033-0.112-0.065-0.168-0.097
				c0.059,0.03,0.117,0.06,0.176,0.089C50.782,23.725,50.774,23.733,50.774,23.733z"/>
			<path fill-rule="evenodd" clip-rule="evenodd" fill="#2F3330" d="M31.212,62.297c1.557-0.997,3.172-1.644,5.084-1.855
				c2.315-0.257,4.583-0.988,6.854-1.576c0.516-0.133,0.893,0.018,1.311,0.2c-2.116,1.539-4.468,2.668-6.796,3.824
				C35.424,64.002,33.236,63.876,31.212,62.297z"/>
			<path fill-rule="evenodd" clip-rule="evenodd" fill="#707070" d="M51.881,56.933c0.589-0.984,1.628-0.881,2.554-1.091
				c1.452-0.329,2.889-0.725,4.332-1.092c-0.719,1.251-2.091,1.189-3.227,1.521C54.356,56.615,53.104,56.722,51.881,56.933z"/>
			<path fill-rule="evenodd" clip-rule="evenodd" fill="#707070" d="M48.399,57.532c0.847-0.603,1.688-1.235,2.775-0.5
				C50.33,57.646,49.405,57.812,48.399,57.532z"/>
			<path fill-rule="evenodd" clip-rule="evenodd" fill="#32B15C" d="M32.556,44.374c-2.124-0.724-2.104-0.715-3.196,1.755
				c-0.201,0.454-0.689,0.217-0.979,0.019c-1.021-0.703-2.011-1.45-3.013-2.181c-0.061-0.525-0.15-0.996-0.783-0.397
				c-0.528,0.001-1.057,0.002-1.585,0.003c0.096-0.69-0.229-0.914-0.871-0.783c-0.042-0.089-0.037-0.175,0.018-0.258
				c-0.096-0.188-0.192-0.373-0.289-0.559c-0.277-1.59-0.555-3.179-0.833-4.769c0.691,0.171,1.083-0.286,1.349-0.811
				c0.652,0.607-0.6,1.405,0.314,1.723c0.963,0.334,1.499,1.319,2.412,1.534c1.021,0.24,1.812,1.416,3.043,0.786
				c0.921,0.587,1.82,1.218,2.973,1.285C33.009,41.83,33.366,42.79,32.556,44.374z"/>
			<path fill-rule="evenodd" clip-rule="evenodd" fill="#3EB86C" d="M28.145,40.436c-1.231,0.629-2.022-0.546-3.043-0.786
				c-0.913-0.215-1.448-1.2-2.412-1.534c-0.914-0.318,0.338-1.116-0.314-1.723c-0.266,0.525-0.658,0.982-1.349,0.811
				c-0.52-1.392-0.799-2.831-0.857-4.314c1.017,0.299,1.496,1.385,2.075,2.01c1.004,1.084,2.489,0.206,3.322,1.416
				c0.25,0.364,0.562-0.594,0.612-1.089c1.123-0.444,1.629,1.233,2.749,0.798c-0.651,1.103-2.055,1.964-1.14,3.567
				C27.906,39.873,28.025,40.154,28.145,40.436z"/>
			<path fill-rule="evenodd" clip-rule="evenodd" fill="#22A44E" d="M22.13,42.789c0.643-0.131,0.967,0.093,0.871,0.783
				c-0.006,0.474-0.223,0.759-0.714,0.797C22.234,43.843,22.182,43.316,22.13,42.789z"/>
			<path fill-rule="evenodd" clip-rule="evenodd" fill="#22A44E" d="M22.307,44.752c0.247,0.081,0.615-0.158,0.711,0.271
				c0.004,0.016-0.32,0.104-0.492,0.159C22.452,45.039,22.379,44.895,22.307,44.752z"/>
			<path fill-rule="evenodd" clip-rule="evenodd" fill="#22A44E" d="M21.859,41.973c0.096,0.186,0.192,0.371,0.289,0.559
				C22.051,42.346,21.955,42.159,21.859,41.973z"/>
			<path fill-rule="evenodd" clip-rule="evenodd" fill="#2F3330" d="M46.812,38.396c1.094-3.188,6.386-4.437,8.594-2.005
				c0.185,0.203,0.13,0.625,0.187,0.945c-0.059,0.347-0.118,0.693-0.177,1.04c-0.099,0.108-0.197,0.217-0.297,0.325
				c-0.225,0.171-0.449,0.343-0.674,0.514c-0.162,0.264-0.324,0.528-0.486,0.792c-1.595,0.986-3.411,0.508-5.114,0.771
				C48.683,39.543,47.031,39.581,46.812,38.396z"/>
			<path fill-rule="evenodd" clip-rule="evenodd" fill="#22A44E" d="M60.678,39.206c0.332,0.171,0.393,0.473,0.387,0.806
				c-0.472,0.539-0.581,1.555-1.809,1.172c0.279-0.472,1.555-0.736,0.601-1.607c-0.278-0.254-1.099-0.318-0.561-0.89
				C59.952,37.99,60.243,38.934,60.678,39.206z"/>
			<path fill-rule="evenodd" clip-rule="evenodd" fill="#24AB51" d="M57.525,43.175c-0.04-0.866,0.244-1.37,1.405-1.052
				C58.399,42.521,57.962,42.848,57.525,43.175L57.525,43.175z"/>
			<path fill-rule="evenodd" clip-rule="evenodd" fill="#22A44E" d="M55.118,38.701c0.1-0.108,0.198-0.216,0.297-0.325
				c0.297,0.128,0.696,0.261,0.603,0.623c-0.035,0.136-0.565,0.145-0.87,0.211c0,0-0.008-0.008-0.008-0.008
				C55.133,39.035,55.125,38.868,55.118,38.701z"/>
			<path fill-rule="evenodd" clip-rule="evenodd" fill="#3EB86C" d="M24.182,31.335c0.263-0.044,0.525-0.088,0.788-0.132
				c0.271,0.159,0.543,0.318,0.814,0.477c0.354,0.462,0.735,0.494,1.146,0.076c0.421,0.001,0.841,0.001,1.262,0.001
				c0.106,0.343,0.509,0.897-0.045,0.972c-1.062,0.142-1.993,1.108-3.162,0.527c-0.001-0.133-0.002-0.267-0.003-0.4
				C24.469,32.478,23.711,32.23,24.182,31.335z"/>
			<path fill-rule="evenodd" clip-rule="evenodd" fill="#3EB86C" d="M21.62,28.207c-0.061-0.111-0.156-0.208-0.157-0.307
				c-0.001-0.099,0.092-0.199,0.144-0.298c0.056,0.097,0.153,0.193,0.156,0.292C21.766,27.992,21.676,28.094,21.62,28.207z"/>
			<path fill-rule="evenodd" clip-rule="evenodd" fill="#3EB86C" d="M22.903,28.902c-0.038,0.046-0.075,0.092-0.113,0.139
				c-0.029-0.053-0.083-0.109-0.079-0.159c0.004-0.049,0.068-0.093,0.106-0.14C22.846,28.795,22.875,28.849,22.903,28.902z"/>
			<path fill-rule="evenodd" clip-rule="evenodd" fill="#44C977" d="M24.985,33.255c1.169,0.582,2.1-0.385,3.162-0.527
				c0.554-0.074,0.151-0.628,0.045-0.972c1.948,0.109,2.176,1.974,3.146,3.081c-0.404,0.13-0.808,0.26-1.212,0.39
				c-0.521-0.236-1.024-0.602-1.767-0.147c0.42,0.179,0.854,0.228,1.03,0.615c-0.154,0.11-0.309,0.219-0.463,0.329
				c-1.12,0.435-1.626-1.242-2.749-0.798L24.985,33.255z"/>
			<path fill-rule="evenodd" clip-rule="evenodd" fill="#32B15C" d="M48.844,40.778c1.703-0.263,3.52,0.215,5.114-0.771
				c-0.001,0.065,0.021,0.144-0.006,0.195c-0.494,0.939,1.422,1.769,0.416,2.372c-1.342,0.806-2.981,1.551-4.634,0.687
				c-0.592-0.31-0.619,0.26-0.939,0.312c-1.837-0.146-3.671-0.977-5.51-0.014c-0.177-0.261-0.353-0.521-0.529-0.781
				c-0.024-0.292-0.203-0.44-0.472-0.505c-0.034,0.169-0.069,0.337-0.104,0.506c0.003,0.273,0.005,0.548,0.008,0.822
				c-0.161,0.31-0.321,0.62-0.482,0.93c-1.356-0.294-2.139-1.739-3.611-1.798c-0.121-0.658-0.241-1.316-0.362-1.974
				c0.735-0.169,1.256-0.609,2.214,0.082c1.698,1.223,2.374,0.847,2.913-0.876c0.262,0.017,0.522,0.034,0.784,0.051
				C45.456,39.73,47.078,40.743,48.844,40.778z"/>
			<path fill-rule="evenodd" clip-rule="evenodd" fill="#3EB86C" d="M42.86,39.963c-0.54,1.723-1.216,2.099-2.914,0.876
				c-0.958-0.691-1.479-0.25-2.214-0.082c-0.375-1.117,0.522-1.515,1.163-2.058c0.389-0.013,0.778-0.025,1.167-0.038
				c0.258-0.019,0.516-0.039,0.774-0.058c0.812,0.042,1.625,0.085,2.436,0.127C43.135,39.143,42.997,39.553,42.86,39.963z"/>
			<path fill-rule="evenodd" clip-rule="evenodd" fill="#24AB51" d="M43.285,43.559c1.839-0.963,3.673-0.132,5.51,0.014l0.001-0.002
				c-0.134,0.135-0.268,0.27-0.401,0.404c-1.561,0.34-2.547,1.964-4.282,1.909c0-0.001-0.042,0.053-0.042,0.053
				c0.064-0.37-0.004-0.672-0.406-0.806l0.007,0.016c0.062-0.398-0.088-0.709-0.394-0.955c0.037-0.072,0.032-0.143-0.013-0.21
				C43.271,43.841,43.278,43.699,43.285,43.559z"/>
			<path fill-rule="evenodd" clip-rule="evenodd" fill="#1C2B20" d="M31.764,32.276c1.375,1.541,2.731,3.135,5.106,1.739
				c-0.297,1.499-1.363,2.207-2.747,1.499C32.891,34.884,31.605,34.037,31.764,32.276z"/>
			<path fill-rule="evenodd" clip-rule="evenodd" fill="#1C2B20" d="M28.927,36.024c0.155-0.11,0.309-0.219,0.463-0.329
				c0.246-0.156,0.491-0.312,0.736-0.467c0.404-0.13,0.808-0.26,1.212-0.39c0.035,0.684-0.08,1.312-0.809,1.583
				c-1.502,0.558-2.318,1.69-2.742,3.171C26.872,37.989,28.276,37.127,28.927,36.024z"/>
			<path fill-rule="evenodd" clip-rule="evenodd" fill="#1C2B20" d="M38.094,42.732c1.472,0.059,2.255,1.504,3.611,1.798
				c0.286,0.557,0.463,1.129-0.502,0.775C39.883,44.822,38.777,44.017,38.094,42.732z"/>
			<path fill-rule="evenodd" clip-rule="evenodd" fill="#22A44E" d="M30.541,48.729c0.705-0.012,1.411-0.023,2.117-0.035
				c0.087,0.141,0.173,0.281,0.259,0.422c-0.624,0.146-1.247,0.292-1.87,0.438C30.421,49.562,30.245,49.291,30.541,48.729
				L30.541,48.729z"/>
			<path fill-rule="evenodd" clip-rule="evenodd" fill="#1C2B20" d="M43.285,43.559c-0.007,0.141-0.014,0.282-0.021,0.423
				c-0.359-0.127-0.719-0.254-1.078-0.382c-0.002-0.273-0.004-0.548-0.008-0.821c0.192,0,0.385-0.001,0.577-0.001
				C42.933,43.037,43.108,43.298,43.285,43.559z"/>
			<path fill-rule="evenodd" clip-rule="evenodd" fill="#22A44E" d="M32.514,48.333c-0.806-0.045-0.789-0.624-0.779-1.199
				C31.995,47.533,32.254,47.933,32.514,48.333z"/>
			<path fill-rule="evenodd" clip-rule="evenodd" fill="#1C2B20" d="M31.149,31.345c0.178,0.242,0.356,0.483,0.534,0.726
				C31.268,32.002,30.817,31.961,31.149,31.345z"/>
			<path fill-rule="evenodd" clip-rule="evenodd" fill="#44C977" d="M26.93,31.755c-0.412,0.418-0.793,0.386-1.146-0.076
				C26.166,31.705,26.548,31.73,26.93,31.755z"/>
			<path fill-rule="evenodd" clip-rule="evenodd" fill="#1C2B20" d="M38.116,35.992c0.108,0.148,0.215,0.297,0.323,0.445
				C38.256,36.344,37.657,36.551,38.116,35.992z"/>
			<path fill-rule="evenodd" clip-rule="evenodd" fill="#1C2B20" d="M43.277,44.191c0.306,0.246,0.455,0.557,0.394,0.955
				C43.257,44.945,43.251,44.575,43.277,44.191z"/>
			<path fill-rule="evenodd" clip-rule="evenodd" fill="#1C2B20" d="M43.664,45.131c0.402,0.134,0.471,0.436,0.406,0.806
				C43.711,45.781,43.645,45.478,43.664,45.131z"/>
			<path fill-rule="evenodd" clip-rule="evenodd" fill="#1C2B20" d="M36.857,34.038c0.139-0.14,0.278-0.281,0.418-0.421
				C37.135,33.757,36.996,33.898,36.857,34.038z"/>
			<path fill-rule="evenodd" clip-rule="evenodd" fill="#3EB86C" d="M41.649,31.263c0.012,0.133-0.022,0.253-0.101,0.36
				C41.583,31.503,41.616,31.383,41.649,31.263z"/>
			<path fill-rule="evenodd" clip-rule="evenodd" fill="#1C2B20" d="M37.253,33.641c0.137-0.168,0.273-0.335,0.41-0.504
				C37.527,33.305,37.39,33.473,37.253,33.641z"/>
			<path fill-rule="evenodd" clip-rule="evenodd" fill="#32B15C" d="M55.118,38.701c0.007,0.167,0.015,0.334,0.021,0.501
				c-0.232,0.004-0.465,0.008-0.696,0.012C54.669,39.043,54.894,38.872,55.118,38.701z"/>
			<path fill-rule="evenodd" clip-rule="evenodd" fill="#32B15C" d="M48.395,43.975c0.134-0.135,0.268-0.27,0.401-0.404
				c-0.001,0.118-0.004,0.236-0.009,0.354C48.656,43.941,48.525,43.958,48.395,43.975z"/>
			<path fill-rule="evenodd" clip-rule="evenodd" fill="#22A44E" d="M26.324,46.188c-0.255,0.146-0.453,0.3-0.677,0.38
				c-0.429,0.152-0.603-0.126-0.625-0.485c-0.013-0.196-0.172-0.621,0.251-0.525C25.622,45.637,25.921,45.935,26.324,46.188z"/>
			<path fill-rule="evenodd" clip-rule="evenodd" fill="#22A44E" d="M30.54,48.73c-0.425-0.06-0.85-0.119-1.274-0.18
				c0.084-0.152,0.132-0.384,0.26-0.445C30.154,47.806,30.467,48.089,30.54,48.73L30.54,48.73z"/>
			<path fill-rule="evenodd" clip-rule="evenodd" fill="#22A44E" d="M23.703,44.36c0.552,0.652,0.643,0.979,0.55,1.346
				c-0.004,0.019-0.278,0.011-0.287-0.022C23.889,45.403,23.845,45.112,23.703,44.36z"/>
			<path fill-rule="evenodd" clip-rule="evenodd" fill="#22A44E" d="M24.586,43.569c0.633-0.599,0.722-0.128,0.783,0.397
				C25.045,43.959,24.754,43.884,24.586,43.569z"/>
			<path fill-rule="evenodd" clip-rule="evenodd" fill="#3EB86C" d="M48.844,40.778c-1.766-0.035-3.388-1.047-5.2-0.763
				c0.671-0.484,1.343-0.968,2.015-1.452c0.384-0.056,0.769-0.111,1.153-0.167C47.031,39.581,48.683,39.543,48.844,40.778z"/>
			<path fill-rule="evenodd" clip-rule="evenodd" fill="#373C39" d="M45.658,38.563c-0.672,0.484-1.344,0.968-2.015,1.452
				c-0.262-0.017-0.522-0.034-0.784-0.051c0.138-0.411,0.275-0.821,0.412-1.231C43.971,37.314,44.753,37.074,45.658,38.563z"/>
			<path fill-rule="evenodd" clip-rule="evenodd" fill="#44C977" d="M45.605,36.528c0.083-0.176-0.112-0.516,0.285-0.482
				c0.018,0.001,0.007,0.339,0.008,0.521c-0.002,0.002-0.156,0.045-0.156,0.045L45.605,36.528z"/>
			<path fill-rule="evenodd" clip-rule="evenodd" fill="#44C977" d="M45.946,36.518c0.263-0.027,0.525-0.055,0.788-0.083
				c-0.043,0.281-0.178,0.52-0.478,0.488C46.141,36.911,46.049,36.66,45.946,36.518z"/>
			<path fill-rule="evenodd" clip-rule="evenodd" fill="#373C39" d="M40.835,38.605c-0.258,0.02-0.516,0.039-0.774,0.058
				C40.3,38.392,40.558,38.369,40.835,38.605z"/>
			<path fill-rule="evenodd" clip-rule="evenodd" fill="#44C977" d="M41.676,32.846c0.257,0.004,0.514,0.008,0.771,0.013
				C42.183,33.248,41.926,33.291,41.676,32.846z"/>
			<path fill-rule="evenodd" clip-rule="evenodd" fill="#3EB86C" d="M30.126,35.228c-0.246,0.156-0.491,0.312-0.736,0.467
				c-0.176-0.387-0.61-0.436-1.03-0.615C29.102,34.626,29.605,34.992,30.126,35.228z"/>
			<path fill-rule="evenodd" clip-rule="evenodd" fill="#2F3330" d="M42.756,42.777c-0.192,0-0.385,0.001-0.577,0.001
				c0.036-0.169,0.071-0.337,0.105-0.506C42.553,42.337,42.731,42.485,42.756,42.777z"/>
		</g>
	</g>
</g>
</svg>
