<svg version="1.1" class="skills-big" id="Layer_1" xmlns="http://www.w3.org/2000/svg" xmlns:xlink="http://www.w3.org/1999/xlink" x="0px" y="0px"
	 width="80px" height="80px" viewBox="0 0 80 80" enable-background="new 0 0 80 80" xml:space="preserve">
<circle fill="#FFFFFF" stroke="#000000" stroke-miterlimit="10" cx="39.667" cy="39.999" r="37.5"/>
<circle fill="#FFFFFF" stroke="#000000" stroke-miterlimit="10" cx="39.667" cy="39.999" r="37.5"/>
<g id="GLyw5B.tif">
	<g>
		<g>
			<path fill="#2B69D3" d="M17.343,21.717c0-1.111,0.041-2.225-0.017-3.333c-0.031-0.59,0.095-0.73,0.711-0.728
				c7.808,0.027,15.616,0.018,23.424,0.018c6.96,0,13.92,0,20.88,0c-0.012,1.349-0.023,2.697-0.036,4.046
				C47.318,21.719,32.331,21.718,17.343,21.717z"/>
			<path fill-rule="evenodd" clip-rule="evenodd" fill="#164080" d="M17.343,52.303c0-0.996,0-1.992,0-2.988
				c3.631,0,7.261,0,10.892,0c0.881,0.514,1.761,0.517,2.64-0.007c0.22,0.184,0.485,0.183,0.75,0.183
				c3.63-0.001,7.261-0.001,10.892-0.001c0.393,0,0.76-0.059,1.029-0.385c2.24,0.729,4.461,0.843,6.646-0.21
				c0.176,0.545,0.641,0.415,1.026,0.416c3.696,0.008,7.393,0.005,11.089,0.006c0,0.996,0,1.992,0,2.988
				C47.318,52.304,32.331,52.304,17.343,52.303z"/>
			<path fill-rule="evenodd" clip-rule="evenodd" fill="#143C79" d="M17.343,52.303c14.988,0.001,29.976,0.001,44.964,0.002
				c0,0.937,0,1.875,0,2.812c-14.988,0-29.976,0-44.964-0.001C17.343,54.178,17.343,53.24,17.343,52.303z"/>
			<path fill-rule="evenodd" clip-rule="evenodd" fill="#255EBB" d="M17.343,29.979c0-0.996,0-1.992,0-2.988
				c14.988,0.001,29.976,0.001,44.963,0.002c0,0.996,0,1.992,0,2.988c-7.604-0.001-15.21-0.004-22.815,0.004
				c-0.38,0-0.851-0.165-1.062,0.367c-0.983-0.716-2.065-1.167-3.284-1.312c-1.948-0.231-3.9-0.073-5.851-0.107
				c-0.67-0.012-0.97,0.439-1.081,1.046C24.59,29.979,20.966,29.979,17.343,29.979z"/>
			<path fill-rule="evenodd" clip-rule="evenodd" fill="#2965CB" d="M17.343,21.717c14.988,0.001,29.976,0.002,44.963,0.003
				c0,0.879,0,1.757,0,2.636c-14.987,0-29.975-0.001-44.963-0.002C17.343,23.475,17.343,22.596,17.343,21.717z"/>
			<path fill-rule="evenodd" clip-rule="evenodd" fill="#2761C3" d="M17.343,24.354c14.988,0.001,29.976,0.002,44.963,0.002
				c0,0.879,0,1.758,0,2.637c-14.987-0.001-29.975-0.001-44.963-0.002C17.343,26.112,17.343,25.233,17.343,24.354z"/>
			<path fill-rule="evenodd" clip-rule="evenodd" fill="#11366C" d="M17.343,60.389c0-0.879,0-1.758,0-2.637
				c14.988,0,29.976,0.001,44.964,0.001c0,0.879,0,1.758,0,2.637C47.318,60.39,32.331,60.389,17.343,60.389z"/>
			<path fill-rule="evenodd" clip-rule="evenodd" fill="#123972" d="M62.307,57.753c-14.988,0-29.976-0.001-44.964-0.001
				c0-0.879,0-1.758,0-2.637c14.988,0.001,29.976,0.001,44.964,0.001C62.307,55.995,62.307,56.874,62.307,57.753z"/>
			<path fill-rule="evenodd" clip-rule="evenodd" fill="#0F3366" d="M17.343,60.389c14.988,0,29.976,0.001,44.964,0.001
				c0.012,0.762,0.023,1.522,0.035,2.284c-14.765,0-29.53-0.005-44.296,0.017c-0.602,0.001-0.792-0.112-0.716-0.722
				C17.394,61.45,17.343,60.916,17.343,60.389z"/>
			<path fill-rule="evenodd" clip-rule="evenodd" fill="#1E509F" d="M17.343,41.229c0-1.875,0-3.75,0-5.625
				c3.623,0,7.246,0.001,10.869,0.001c0,1.875,0,3.749,0.001,5.624C24.589,41.229,20.966,41.229,17.343,41.229z"/>
			<path fill-rule="evenodd" clip-rule="evenodd" fill="#2359B2" d="M17.343,29.979c3.624,0,7.247,0,10.871,0
				c-0.001,0.938-0.001,1.875-0.002,2.812c-3.623,0-7.246,0-10.869,0C17.343,31.854,17.343,30.917,17.343,29.979z"/>
			<path fill-rule="evenodd" clip-rule="evenodd" fill="#1B4A93" d="M17.343,41.229c3.623,0,7.247,0.001,10.87,0.001
				c0,0.938,0,1.875-0.001,2.812c-3.623,0-7.246-0.001-10.869-0.001C17.343,43.104,17.343,42.166,17.343,41.229z"/>
			<path fill-rule="evenodd" clip-rule="evenodd" fill="#2256AB" d="M17.343,32.792c3.623,0,7.246,0,10.869,0
				c0,0.938,0,1.875,0,2.813c-3.623,0-7.246-0.001-10.869-0.001C17.343,34.667,17.343,33.729,17.343,32.792z"/>
			<path fill-rule="evenodd" clip-rule="evenodd" fill="#1A478D" d="M17.343,44.041c3.623,0,7.246,0.001,10.869,0.001
				c0,0.879,0,1.758,0,2.637c-3.623,0-7.246-0.001-10.869-0.001C17.343,45.799,17.343,44.92,17.343,44.041z"/>
			<path fill-rule="evenodd" clip-rule="evenodd" fill="#184386" d="M17.343,46.678c3.623,0,7.246,0.001,10.869,0.001
				c0.008,0.879,0.016,1.758,0.023,2.636c-3.631,0-7.261,0-10.892,0C17.343,48.436,17.343,47.557,17.343,46.678z"/>
			<path fill-rule="evenodd" clip-rule="evenodd" fill="#E8E9E9" d="M62.342,62.674c-0.012-0.762-0.023-1.522-0.035-2.284
				c0-0.879,0-1.758,0-2.637s0-1.758,0-2.637c0-0.937,0-1.875,0-2.812c0-0.996,0-1.992,0-2.988c0-0.938,0-1.875,0-2.812
				c0-1.055,0-2.109-0.001-3.164c0-1.229,0-2.46,0-3.689c0-1.289,0.001-2.578,0.001-3.867c0-1.055,0-2.11,0-3.166
				c-0.001-0.878-0.001-1.757-0.001-2.636c0-0.996,0-1.992,0-2.988c0-0.879,0-1.758,0-2.637s0-1.757,0-2.636
				c0.013-1.349,0.024-2.697,0.036-4.046c0.347-0.027,0.167,0.241,0.167,0.352c0.01,14.766,0.01,29.531,0,44.296
				C62.509,62.433,62.688,62.7,62.342,62.674z"/>
			<path fill-rule="evenodd" clip-rule="evenodd" fill="#E8E9E9" d="M28.235,49.314c-0.008-0.878-0.016-1.757-0.023-2.636
				c0-0.879,0-1.758,0-2.637c0-0.938,0-1.875,0.001-2.812c0-1.875,0-3.75-0.001-5.624c0-0.938,0-1.876,0-2.813
				c0.001-0.938,0.001-1.875,0.002-2.812c0.11-0.607,0.41-1.058,1.081-1.046c1.95,0.034,3.903-0.124,5.851,0.107
				c1.219,0.145,2.301,0.596,3.284,1.312c0.765,0.723,1.333,1.575,1.685,2.569c0.406,1.605,0.31,3.193-0.173,4.766
				c-0.562,1.362-1.492,2.408-2.737,3.182c-1.32,0.59-2.706,0.856-4.149,0.869c-2.279,0.019-2.279,0.025-2.149,2.305
				c0,0.938,0,1.875,0,2.812c-0.01,0.817-0.019,1.636-0.029,2.453C29.996,49.831,29.116,49.828,28.235,49.314z M30.903,33.319
				c0,0.879,0,1.758,0,2.638c-0.01,0.263-0.042,0.527-0.025,0.788c0.057,0.893-0.407,2.177,0.186,2.579
				c0.664,0.45,1.86,0.181,2.818,0.114c2.071-0.145,3.333-1.386,3.643-3.481c0.099-0.904,0.156-1.804-0.322-2.638
				c-0.269-0.876-0.895-1.411-1.704-1.764c-0.828-0.362-1.708-0.354-2.587-0.357C30.784,31.188,30.784,31.188,30.903,33.319z"/>
			<path fill-rule="evenodd" clip-rule="evenodd" fill="#E8E9E9" d="M50.191,48.895c-2.185,1.053-4.405,0.939-6.646,0.21
				c-1.028-0.409-1.383-1.195-1.257-2.25c0.199-0.767,0.643-0.587,1.121-0.293c1.425,0.874,2.938,1.299,4.607,0.873
				c0.86-0.219,1.479-0.718,1.643-1.629c0.163-0.907-0.176-1.604-0.986-2.059c-0.421-0.377-0.947-0.555-1.457-0.752
				c-1.299-0.501-2.59-1.011-3.647-1.957c-0.725-0.928-1.002-1.987-0.931-3.15c0.228-0.845,0.412-1.808,1.106-2.322
				c2.14-1.585,4.494-1.74,6.932-0.684c0.415,0.18,0.756,0.438,0.838,0.925c-0.002,0.116-0.005,0.232-0.006,0.348
				c-0.014,1.229-0.135,1.311-1.184,0.765c-1.007-0.523-2.064-0.759-3.198-0.631c-1.034,0.117-1.728,0.634-1.952,1.473
				c-0.232,0.866,0.077,1.525,1.026,2.18c0.748,0.572,1.657,0.794,2.505,1.145c1.297,0.537,2.526,1.156,3.257,2.444
				c0.283,0.979,0.301,1.97,0.15,2.97C51.722,47.498,51.091,48.305,50.191,48.895z"/>
			<path fill-rule="evenodd" clip-rule="evenodd" fill="#184386" d="M50.191,48.895c0.899-0.59,1.53-1.396,1.922-2.394
				c3.397,0.001,6.795,0.002,10.193,0.003c0,0.938,0,1.875,0,2.812c-3.696-0.001-7.393,0.002-11.089-0.006
				C50.832,49.31,50.367,49.439,50.191,48.895z"/>
			<path fill-rule="evenodd" clip-rule="evenodd" fill="#184386" d="M42.289,46.854c-0.126,1.055,0.229,1.841,1.257,2.25
				c-0.27,0.326-0.637,0.385-1.029,0.385c-3.631,0-7.262,0-10.892,0.001c-0.265,0-0.53,0.001-0.75-0.183
				c0.01-0.817,0.019-1.636,0.029-2.453C34.699,46.854,38.494,46.854,42.289,46.854z"/>
			<path fill-rule="evenodd" clip-rule="evenodd" fill="#2359B2" d="M40.113,32.921c-0.352-0.994-0.92-1.846-1.685-2.569
				c0.21-0.531,0.681-0.367,1.062-0.367c7.605-0.008,15.211-0.005,22.815-0.004c0,0.879,0,1.758,0.001,2.636
				c-6.989-0.001-13.979-0.002-20.968,0.001C40.911,32.619,40.447,32.521,40.113,32.921z"/>
			<path fill-rule="evenodd" clip-rule="evenodd" fill="#2256AB" d="M40.113,32.921c0.334-0.4,0.798-0.302,1.226-0.302
				c6.989-0.003,13.979-0.002,20.968-0.001c0,1.055,0,2.11,0,3.166c-3.598,0.008-7.194,0.016-10.792,0.024
				c-0.082-0.487-0.423-0.745-0.838-0.925c-2.438-1.057-4.792-0.901-6.932,0.684c-0.694,0.514-0.879,1.477-1.106,2.322
				c-0.902-0.029-1.817,0.104-2.699-0.202C40.423,36.114,40.52,34.526,40.113,32.921z"/>
			<path fill-rule="evenodd" clip-rule="evenodd" fill="#1E509F" d="M51.515,35.808c3.598-0.008,7.194-0.017,10.792-0.024
				c0,1.289-0.001,2.578-0.001,3.867c-4.92-0.001-9.84-0.001-14.76-0.004c-0.472,0-0.942-0.01-1.345,0.296
				c-0.949-0.655-1.259-1.314-1.026-2.18c0.225-0.839,0.918-1.356,1.952-1.473c1.134-0.127,2.191,0.108,3.198,0.631
				c1.049,0.546,1.17,0.463,1.184-0.765C51.51,36.04,51.513,35.924,51.515,35.808z"/>
			<path fill-rule="evenodd" clip-rule="evenodd" fill="#1B4A93" d="M46.201,39.942c0.402-0.307,0.873-0.296,1.345-0.296
				c4.92,0.003,9.84,0.003,14.76,0.004c0,1.229,0,2.46,0,3.689c-3.084-0.001-6.168-0.003-9.252,0.002
				c-0.371,0-0.764-0.081-1.091,0.189c-0.73-1.288-1.96-1.907-3.257-2.444C47.858,40.736,46.949,40.515,46.201,39.942z"/>
			<path fill-rule="evenodd" clip-rule="evenodd" fill="#1A478D" d="M51.963,43.531c0.327-0.271,0.72-0.189,1.091-0.189
				c3.084-0.005,6.168-0.003,9.252-0.002c0.001,1.055,0.001,2.109,0.001,3.164c-3.398-0.001-6.796-0.002-10.193-0.003
				C52.264,45.501,52.246,44.51,51.963,43.531z"/>
			<path fill-rule="evenodd" clip-rule="evenodd" fill="#1A478D" d="M42.289,46.854c-3.795,0-7.59,0-11.386,0
				c0-0.938,0-1.875,0-2.812c5.516,0,11.032,0.002,16.547-0.005c0.423-0.001,0.891,0.123,1.223-0.29
				c0.811,0.455,1.149,1.151,0.986,2.059c-0.164,0.911-0.782,1.41-1.643,1.629c-1.669,0.426-3.183,0.001-4.607-0.873
				C42.932,46.268,42.488,46.088,42.289,46.854z"/>
			<path fill-rule="evenodd" clip-rule="evenodd" fill="#1B4A93" d="M48.674,43.747c-0.332,0.413-0.8,0.289-1.223,0.29
				c-5.516,0.007-11.032,0.005-16.547,0.005c-0.129-2.279-0.129-2.286,2.149-2.305c1.443-0.013,2.829-0.278,4.149-0.869
				c0.247,0.207,0.545,0.183,0.837,0.183c1.843-0.004,3.687-0.009,5.53-0.014c1.058,0.946,2.349,1.456,3.647,1.957
				C47.727,43.192,48.253,43.37,48.674,43.747z"/>
			<path fill-rule="evenodd" clip-rule="evenodd" fill="#1E509F" d="M37.525,35.957c-0.31,2.095-1.572,3.336-3.643,3.481
				c-0.958,0.066-2.154,0.335-2.818-0.114c-0.593-0.401-0.129-1.686-0.186-2.579c-0.017-0.261,0.016-0.525,0.025-0.788
				C33.11,35.957,35.317,35.957,37.525,35.957z"/>
			<path fill-rule="evenodd" clip-rule="evenodd" fill="#2256AB" d="M37.525,35.957c-2.208,0-4.415,0-6.622,0
				c0-0.879,0-1.758,0-2.638c2.1,0,4.2,0,6.3,0C37.681,34.153,37.624,35.052,37.525,35.957z"/>
			<path fill-rule="evenodd" clip-rule="evenodd" fill="#1E509F" d="M43.569,41.038c-1.843,0.005-3.687,0.01-5.53,0.014
				c-0.292,0-0.59,0.023-0.837-0.183c1.246-0.774,2.175-1.82,2.737-3.182c0.882,0.305,1.796,0.172,2.699,0.202
				C42.567,39.051,42.845,40.11,43.569,41.038z"/>
			<path fill-rule="evenodd" clip-rule="evenodd" fill="#2359B2" d="M37.203,33.318c-2.1,0-4.2,0-6.3,0
				c-0.119-2.131-0.119-2.13,2.009-2.122c0.879,0.003,1.76-0.004,2.587,0.357C36.308,31.908,36.934,32.442,37.203,33.318z"/>
		</g>
	</g>
</g>
</svg>
